<svg width="41" height="41" viewBox="0 0 41 41" fill="none" xmlns="http://www.w3.org/2000/svg">
<g clip-path="url(#clip0_6_584)">
<path fill-rule="evenodd" clip-rule="evenodd" d="M20.4799 0.717773C24.0857 0.758919 27.3431 1.6451 30.2522 3.37631C33.1266 5.07296 35.5177 7.47867 37.1968 10.3634C38.9175 13.29 39.7983 16.5672 39.8394 20.1949C39.7372 25.1584 38.1716 29.3977 35.1427 32.9129C32.1138 36.4281 28.2345 38.6027 24.2187 39.4364V25.5202H28.0154L28.8739 20.0515H23.125V16.4696C23.0931 15.727 23.3279 14.9976 23.787 14.4131C24.2468 13.827 25.0564 13.519 26.2159 13.489H29.6875V8.69845C29.6377 8.68243 29.165 8.61905 28.2695 8.50833C27.2539 8.3895 26.2326 8.32603 25.2101 8.3182C22.8959 8.32888 21.0657 8.98168 19.7194 10.2766C18.3731 11.5711 17.6854 13.4441 17.6563 15.8954V20.0515H13.2813V25.5202H17.6563V39.4364C12.7254 38.6027 8.8461 36.4281 5.81719 32.9129C2.78828 29.3977 1.22282 25.1584 1.12061 20.1949C1.1615 16.567 2.04233 13.2899 3.76308 10.3634C5.4422 7.47868 7.83331 5.07297 10.7077 3.37631C13.6168 1.64543 16.8742 0.759253 20.4799 0.717773Z" fill="#FAFAFA"/>
</g>
<defs>
<clipPath id="clip0_6_584">
<rect width="40" height="40" fill="white" transform="translate(0.543823 0.111328)"/>
</clipPath>
</defs>
</svg>
