<svg width="100" height="101" viewBox="0 0 100 101" fill="none" xmlns="http://www.w3.org/2000/svg">
<g clip-path="url(#clip0_6_32)">
<path d="M89.4232 19.3311L84.9272 19.1899C83.3832 19.9696 81.651 20.399 79.8478 20.399C78.5188 20.399 77.2181 20.1655 75.9721 19.7065C74.9576 20.2643 74.1281 21.1203 73.6043 22.1607L66.1722 34.7885C62.3006 37.6564 51.604 45.5633 51.3095 45.8006C52.2621 45.8391 54.3321 45.2242 56.7013 46.6372C56.2566 43.3873 58.1499 40.1697 61.3692 39.062L78.0238 33.3313L81.4317 28.7319L78.5058 36.4642L62.7212 41.7259C60.5298 42.4562 59.3455 44.8248 60.0759 47.0162C60.8077 49.2116 63.179 50.3908 65.3662 49.6614L83.0365 43.7713C84.2296 43.3737 85.1805 42.46 85.6258 41.2837L89.2993 31.5756L88.4774 41.8727C88.339 43.6072 87.1765 45.0145 85.6309 45.5487C80.9094 47.1728 72.0579 50.1721 72.0579 50.1721V54.4149L65.3719 71.6639C64.9835 72.6658 64.9358 73.7674 65.2362 74.799L71.68 96.9446C72.4351 99.5396 75.151 101.031 77.7446 100.275C80.3392 99.5205 81.8306 96.8054 81.0755 94.2108L75.0945 73.6557L81.5775 56.9306H84.3797C84.3797 56.9306 84.391 84.7729 84.3797 95.5789C84.3797 98.2811 86.4728 100.471 89.1748 100.471C91.8768 100.471 94.0673 98.2809 94.0673 95.5789C94.0718 84.971 94.0718 36.882 94.0673 25.2499C94.1668 22.0806 92.5926 19.4307 89.4232 19.3311Z" fill="#FAFAFA"/>
<path d="M76.4151 17.0806C77.5346 17.5648 78.7008 17.7941 79.8478 17.7941C83.1973 17.7941 86.3858 15.8395 87.7998 12.5698C89.698 8.18045 87.6785 3.08335 83.2892 1.18517C82.1695 0.701001 81.0033 0.47168 79.8564 0.47168C76.5069 0.47168 73.3184 2.42621 71.9044 5.696C70.0062 10.0853 72.0258 15.1824 76.4151 17.0806Z" fill="#FAFAFA"/>
<path d="M20.8824 77.2161C17.2437 77.2161 13.9584 75.6837 11.6304 73.2334C8.15368 76.0414 5.92801 80.3367 5.92801 85.1538C5.92801 93.6134 12.7859 100.471 21.2454 100.471C29.705 100.471 36.5628 93.6134 36.5628 85.1538C36.5628 82.2478 35.7535 79.5309 34.3479 77.2159C31.344 77.2161 23.6659 77.2161 20.8824 77.2161Z" fill="#FAFAFA"/>
<path d="M29.9133 35.91C33.2133 34.8712 35.708 31.9051 35.9677 28.245C36.3072 23.4635 32.706 19.3121 27.9246 18.9728C23.143 18.6334 18.9917 22.2346 18.6524 27.016C18.3997 30.5756 20.3317 33.7847 23.3079 35.333C24.3297 35.8645 25.4735 36.2014 26.6955 36.2882C27.8166 36.3679 28.9024 36.2283 29.9133 35.91Z" fill="#FAFAFA"/>
<path d="M32.3871 64.7816V57.5462L26.2336 49.954L34.9792 56.4667C35.7115 57.0122 36.6168 57.2878 37.5439 57.2336L53.5092 56.2896C55.6638 56.1622 57.3072 54.3123 57.1796 52.1579C57.0519 50.0035 55.2028 48.3618 53.0479 48.4874L38.5046 49.3472L31.0762 43.8154L32.3871 44.3463V43.3907C32.3871 40.3738 29.9416 37.9282 26.9247 37.9282H20.6503C15.1598 37.9282 10.7086 42.3794 10.7086 47.8699V64.4478C10.7086 70.0668 15.2636 74.5533 20.8826 74.5533H36.4338L41.5103 96.8071C42.0752 99.3266 44.5769 100.925 47.112 100.357C49.6392 99.7908 51.2286 97.2828 50.6622 94.7555L44.7642 68.4454C44.2842 66.3038 42.383 64.7816 40.1882 64.7816C38.9803 64.7816 34.4334 64.7816 32.3871 64.7816Z" fill="#FAFAFA"/>
</g>
<defs>
<clipPath id="clip0_6_32">
<rect width="100" height="100" fill="white" transform="translate(0 0.47168)"/>
</clipPath>
</defs>
</svg>
