<svg width="101" height="101" viewBox="0 0 101 101" fill="none" xmlns="http://www.w3.org/2000/svg">
<g clip-path="url(#clip0_2_246)">
<path d="M19.25 22.155H25.5V28.405H19.25V22.155Z" fill="#FAFAFA"/>
<path d="M19.25 47.155H25.5V53.405H19.25V47.155Z" fill="#FAFAFA"/>
<path d="M16.125 40.905H28.625C28.875 40.905 29.0938 40.9363 29.3125 40.9988C30.75 38.155 32.6875 35.53 35 33.2172C36.0312 32.186 37.0938 31.2797 38.2188 30.436C38.6562 29.2485 39.7812 28.4047 41.125 28.4047H41.2188C50.7812 22.7485 62.7188 22.6235 72.375 28.061V9.65503C72.375 4.49878 68.1562 0.280029 63 0.280029H9.875C4.71875 0.280029 0.5 4.49878 0.5 9.65503V90.905C0.5 96.0613 4.71875 100.28 9.875 100.28H63C67.5938 100.28 71.4375 96.9363 72.2188 92.53L70.3438 90.655C68.75 89.0613 67.625 87.0925 67.0938 84.9363C63.9062 85.9988 60.5625 86.5613 57.0938 86.5613C53.3753 86.5613 49.7188 85.905 46.3125 84.655H41.125C39.4062 84.655 38 83.2488 38 81.53C38 81.0613 38.0938 80.655 38.2812 80.2488C37.125 79.405 36.0312 78.4363 35 77.405C33.8125 76.2175 32.7188 74.9363 31.75 73.5925V81.53C31.75 83.2488 30.3438 84.655 28.625 84.655H16.125C14.4062 84.655 13 83.2488 13 81.53V69.03C13 67.3113 14.4062 65.905 16.125 65.905H27.6562C26.9687 63.8738 26.4375 61.78 26.1562 59.655H16.125C14.4062 59.655 13 58.2488 13 56.53V44.03C13 42.3113 14.4062 40.905 16.125 40.905ZM41.125 15.905H56.75C58.4688 15.905 59.875 17.3113 59.875 19.03C59.875 20.7488 58.4688 22.155 56.75 22.155H41.125C39.4062 22.155 38 20.7488 38 19.03C38 17.3113 39.4062 15.905 41.125 15.905ZM13 19.03C13 17.3113 14.4062 15.905 16.125 15.905H28.625C30.3438 15.905 31.75 17.3113 31.75 19.03V31.53C31.75 33.2488 30.3438 34.655 28.625 34.655H16.125C14.4062 34.655 13 33.2488 13 31.53V19.03Z" fill="#FAFAFA"/>
<path d="M19.25 72.155H25.5V78.405H19.25V72.155Z" fill="#FAFAFA"/>
<path d="M74.7813 37.6238C65.0313 27.8738 49.1562 27.8738 39.4062 37.6238C29.6562 47.3738 29.6562 63.2488 39.4062 72.9988C44.1562 77.7175 50.4063 80.3113 57.0938 80.3113C63.7813 80.3113 70.0625 77.7175 74.7813 72.9988C79.5 68.28 82.0938 61.9988 82.0938 55.3113C82.0938 48.6238 79.5 42.3738 74.7813 37.6238ZM67.2188 52.0925L57.125 62.8113C56.5625 63.4363 55.75 63.78 54.9062 63.78H54.8438C54.0312 63.78 53.25 63.4675 52.6563 62.8738L47.0625 57.28C45.8438 56.0613 45.8438 54.0925 47.0625 52.8738C48.2812 51.655 50.25 51.655 51.4688 52.8738L54.7813 56.1863L62.6562 47.8113C63.8438 46.5613 65.8125 46.4988 67.0625 47.6863C68.3438 48.8738 68.4066 50.8425 67.2188 52.0925Z" fill="#FAFAFA"/>
<path d="M79.1941 80.5366C78.3944 80.5366 77.595 80.2313 76.9847 79.621L70.3547 72.991C69.1341 71.7704 69.1341 69.7929 70.3547 68.572C71.5753 67.351 73.5528 67.3513 74.7737 68.572L81.4037 75.202C82.6244 76.4226 82.6244 78.4001 81.4037 79.621C80.7934 80.2313 79.9934 80.5366 79.1941 80.5366Z" fill="#FAFAFA"/>
<path d="M97.7244 82.6835L88.0319 72.9925C85.5965 70.5541 81.6294 70.5541 79.194 72.9925L74.775 77.4116C72.3381 79.8485 72.3381 83.8125 74.775 86.2494L84.4659 95.9419C86.294 97.77 88.694 98.6838 91.0944 98.6838C93.4962 98.6838 95.8962 97.7697 97.7244 95.9419C101.38 92.286 101.38 86.3382 97.7244 82.6835Z" fill="#FAFAFA"/>
</g>
<defs>
<clipPath id="clip0_2_246">
<rect width="100" height="100" fill="white" transform="translate(0.5 0.280029)"/>
</clipPath>
</defs>
</svg>
