<svg width="101" height="101" viewBox="0 0 101 101" fill="none" xmlns="http://www.w3.org/2000/svg">
<g clip-path="url(#clip0_2_242)">
<path d="M91.2951 6.53003H47.3613C42.277 6.53003 38.1564 10.6514 38.1564 15.7349V37.3757C40.4788 38.53 42.9881 39.7782 45.3303 40.9424L48.9138 33.7723C51.0836 29.4365 56.3731 27.6749 60.7074 29.8409C65.0508 32.0145 66.8109 37.2895 64.6365 41.6336L58.2484 54.4129C58.4178 56.1043 58.2675 57.8095 57.7906 59.4597H62.0082L50.8845 90.0475C50.2246 91.8618 51.5002 93.9789 53.6387 93.9789C54.8343 93.9789 55.9588 93.2411 56.3907 92.0494L68.2422 59.4597H70.2952L82.2673 92.0594C82.7029 93.245 83.8244 93.9789 85.0192 93.9789C87.0173 93.9789 88.4822 91.9831 87.7673 90.0399L76.5368 59.4597H91.2951C96.3786 59.4597 100.5 55.3383 100.5 50.2549V15.7349C100.5 10.6514 96.3786 6.53003 91.2951 6.53003ZM85.0177 46.9086H71.873C70.2556 46.9086 68.9433 45.5963 68.9433 43.9789C68.9433 42.36 70.2556 41.0492 71.873 41.0492H85.0177C86.6366 41.0492 87.9474 42.36 87.9474 43.9789C87.9474 45.5963 86.6366 46.9086 85.0177 46.9086ZM85.0177 35.9246H71.873C70.2556 35.9246 68.9433 34.6138 68.9433 32.9949C68.9433 31.3774 70.2556 30.0652 71.873 30.0652H85.0177C86.6366 30.0652 87.9474 31.3774 87.9474 32.9949C87.9474 34.6138 86.6366 35.9246 85.0177 35.9246ZM85.0177 24.942H53.6387C52.0198 24.942 50.709 23.6298 50.709 22.0124C50.709 20.3949 52.0198 19.0827 53.6387 19.0827H85.0177C86.6366 19.0827 87.9474 20.3949 87.9474 22.0124C87.9474 23.6298 86.6366 24.942 85.0177 24.942Z" fill="#FAFAFA"/>
<path d="M52.0472 58.2032C52.5767 56.6521 52.5729 55.0316 52.1258 53.553L59.3966 39.0129C60.1199 37.5656 59.534 35.8055 58.0867 35.0823C56.6401 34.3582 54.88 34.9449 54.156 36.3922L47.9548 48.7931C44.2485 46.9475 38.6172 44.1475 34.0808 41.8915C29.8602 39.7927 26.8481 37.9105 21.709 37.9105H19.1203C23.1219 37.9105 26.6932 36.0688 29.0309 33.1864C30.8146 30.9929 31.8812 28.1975 31.8812 25.1511C31.8812 18.1023 26.1683 12.3894 19.1188 12.3894C12.0723 12.3894 6.35938 18.1023 6.35938 25.1511C6.35938 28.5363 7.67773 31.6124 9.82846 33.8951C12.1539 36.3678 15.4567 37.9105 19.118 37.9113C14.2093 37.9113 9.41037 39.9002 5.95807 43.3617C2.43863 46.872 0.5 51.5488 0.5 56.5308V65.9447C0.5 69.9974 3.13138 73.4459 6.77594 74.6727V91.0485C6.77594 92.6667 8.08743 93.9781 9.70563 93.9781H28.5334C30.1516 93.9781 31.4631 92.6667 31.4631 91.0485V58.1314C34.241 59.52 37.8901 61.3442 40.8427 62.8212C42.9126 63.8558 45.3311 63.9489 47.4879 63.0715C49.6386 62.1865 51.2965 60.4248 52.0358 58.2375C52.0396 58.226 52.0434 58.2146 52.0472 58.2032Z" fill="#FAFAFA"/>
</g>
<defs>
<clipPath id="clip0_2_242">
<rect width="100" height="100" fill="white" transform="translate(0.5 0.280029)"/>
</clipPath>
</defs>
</svg>
