<svg width="100" height="101" viewBox="0 0 100 101" fill="none" xmlns="http://www.w3.org/2000/svg">
<g clip-path="url(#clip0_6_40)">
<path d="M76.4953 29.6827C78.4842 31.9054 79.0622 35.8279 77.9693 39.6748C77.0156 43.0336 74.8834 45.8531 72.4062 47.0349C71.8398 47.2778 71.664 47.9653 71.8866 48.4997C72.5454 49.9828 72.6875 51.1677 72.3202 52.122C71.6751 53.7958 69.4127 54.7933 67.2246 55.7575C65.1171 56.6859 63.1269 57.5628 62.1165 59.1436C61.5534 60.0243 61.205 61.1494 61.0827 62.4879C60.9792 63.62 60.0918 64.5028 58.9733 64.5887C58.2364 64.6454 57.537 64.3557 57.0535 63.7958C56.5775 63.2437 56.3979 62.5216 56.5586 61.8152C56.8419 60.5756 56.8893 59.3029 56.7005 58.0327C56.2526 55.0244 56.2759 52.8067 56.774 51.0554C56.8996 50.6114 57.1105 50.1122 57.388 49.586C58.3495 47.7708 60.1171 45.6571 62.0032 44.532C62.5248 44.2208 62.6945 43.5463 62.3833 43.0248C62.0721 42.504 61.3977 42.3334 60.8761 42.6446C58.7473 43.9154 56.8664 46.079 55.7036 48.0945C54.0258 48.5887 51.9803 48.623 50.395 48.1726C48.1724 47.5404 46.3937 46.1447 45.3267 44.407C44.287 42.7156 43.9197 40.7001 44.4738 38.7533C44.5884 38.3503 44.7415 37.9551 44.9295 37.5788C45.0838 37.269 45.0832 36.9049 44.9289 36.5951C44.774 36.2859 44.4817 36.0677 44.1411 36.0067C44.0011 35.9814 43.8631 35.9488 43.7303 35.9116C40.8814 35.1018 39.3983 31.5041 40.425 27.8934C40.9465 26.0587 42.0656 24.4696 43.4958 23.5333C44.0037 23.2006 44.1456 22.5204 43.8135 22.0119C43.4808 21.504 42.7999 21.3621 42.292 21.6948C40.3974 22.9344 38.9841 24.922 38.3102 27.2925C37.6637 29.568 37.7854 31.9234 38.6534 33.9273C39.4516 35.769 40.7908 37.1225 42.4672 37.799C42.4282 37.9161 42.3922 38.0346 42.3585 38.1526C41.8006 40.1148 41.9482 42.1253 42.6554 43.9475C41.9505 43.8993 41.2453 43.7764 40.5487 43.5785C38.1529 42.8968 36.1456 41.4145 34.8964 39.4026C33.6672 37.4235 33.3215 35.1677 33.9238 33.0497C34.0638 32.5575 34.2559 32.0763 34.4934 31.6207C34.6639 31.2944 34.6593 30.9044 34.4817 30.5816C33.5553 28.9026 33.3528 26.7814 33.9264 24.7633C34.3789 23.1709 35.2916 21.7509 36.496 20.7666C36.7142 20.5876 36.8566 20.3305 36.8912 20.0498C36.9322 19.7133 37.0013 19.3748 37.0949 19.0453C37.9329 16.0968 40.615 14.2667 43.0735 14.9659C43.265 15.0199 43.4536 15.0902 43.6367 15.1742C44.0254 15.3526 44.4823 15.2895 44.808 15.0127C46.3762 13.6792 48.2845 13.2015 50.043 13.7007C50.89 13.941 51.6438 14.3882 52.2845 15.0281C52.6562 15.3992 53.2382 15.4553 53.6744 15.1629C55.1249 14.1869 56.7635 13.8888 58.2876 14.3217C59.5618 14.6844 60.6308 15.5163 61.3788 16.7274C61.6568 17.1766 62.2154 17.3647 62.7088 17.1752C63.8202 16.7469 64.9809 16.6836 66.0656 16.9916C67.6704 17.4473 68.9419 18.6427 69.6443 20.3568C69.8181 20.7793 70.2348 21.0489 70.6904 21.0385C71.2074 21.0248 71.7203 21.0887 72.2151 21.2291C75.0803 22.0436 76.8051 25.2865 76.2268 28.7714C76.175 29.0981 76.2727 29.434 76.4953 29.6827ZM71.5819 40.8188C72.1866 40.7758 72.6431 40.2504 72.5995 39.6443C72.24 34.615 69.8372 32.8462 67.4243 32.3723C67.7602 31.205 67.9177 29.7591 67.7198 27.9901C67.6527 27.3871 67.1079 26.953 66.5055 27.0201C65.9026 27.0878 65.4685 27.6321 65.5356 28.235C65.7367 30.0293 65.535 31.5475 64.9352 32.7682C64.9346 32.7689 64.934 32.7703 64.934 32.7715C64.9105 32.8104 64.8898 32.8508 64.8722 32.8932C64.8716 32.8938 64.8716 32.8952 64.871 32.8958C64.6783 33.2637 64.4478 33.6048 64.1802 33.9166C63.1685 35.0937 61.6074 35.808 59.8971 35.8763C59.2904 35.9004 58.8182 36.4115 58.8431 37.0176C58.8666 37.6095 59.3536 38.073 59.9401 38.073C59.9552 38.073 59.9694 38.0724 59.9851 38.0718C62.3028 37.9806 64.4402 36.9871 65.8478 35.3485C66.0672 35.0939 66.2906 34.797 66.5053 34.4553C67.6226 34.5666 68.4714 34.978 69.0886 35.7039C69.8334 36.5815 70.2774 37.9597 70.409 39.801C70.45 40.3798 70.9323 40.8218 71.5041 40.8218C71.5292 40.8214 71.5551 40.8208 71.5819 40.8188ZM56.5663 27.5571C57.1736 27.5428 57.6536 27.0396 57.6391 26.432C57.5786 23.8721 56.3812 21.4268 54.436 19.8903C52.6743 18.4984 50.4504 17.9998 48.1738 18.4859C47.5807 18.6123 47.2018 19.1962 47.3287 19.7892C47.4551 20.3823 48.0398 20.7618 48.6322 20.6349C50.7156 20.1902 52.1967 20.9226 53.0737 21.6147C54.4897 22.7337 55.3972 24.599 55.4416 26.4845C55.4552 27.0822 55.9442 27.5573 56.5399 27.5573C56.548 27.5571 56.5572 27.5571 56.5663 27.5571ZM54.2576 40.6886C55.0922 38.2187 54.8364 35.2655 53.5916 32.9816C52.4965 30.9731 50.7817 29.6269 48.6326 29.0852C48.0434 28.9367 47.4465 29.2942 47.298 29.8828C47.1501 30.4713 47.5075 31.0684 48.0956 31.2168C50.041 31.7065 51.108 33.019 51.6613 34.034C52.6229 35.7969 52.8201 38.077 52.175 39.985C51.9803 40.5598 52.2895 41.1837 52.8645 41.3775C52.9811 41.4165 53.0996 41.4354 53.2161 41.4354C53.675 41.436 54.1027 41.1469 54.2576 40.6886Z" fill="#FAFAFA"/>
<path d="M91.0331 37.6235C91.0331 46.7282 87.7063 55.4881 81.666 62.2874C76.7512 67.8194 74.0442 74.9482 74.0442 82.3603V100.472H34.2103V81.9912C34.2103 78.7998 31.6134 76.2029 28.4212 76.2029H21.621C20.4218 76.2029 19.306 75.6066 18.636 74.6085C18.1731 73.9184 18.1725 72.9835 18.6348 72.2283C20.1946 69.6794 18.8041 67.2054 17.8502 66.2537C17.278 65.6808 17.2121 64.94 17.2583 64.4191C17.317 63.7615 17.1659 63.1085 16.8216 62.5297C16.5598 62.0889 16.66 61.52 17.1191 60.8389C17.4602 60.333 17.4948 59.6821 17.2069 59.1416C16.9192 58.6006 16.3593 58.2641 15.7467 58.2641H10.9979C10.3031 58.2641 9.68534 57.9308 9.30442 57.3507C8.92229 56.7699 8.86162 56.0714 9.13706 55.4335L16.2608 38.9368C16.5616 38.2402 16.7225 37.5118 16.7388 36.7714C17.1886 16.7556 33.8507 0.47168 53.8807 0.47168C74.3664 0.47168 91.0331 17.1377 91.0331 37.6235ZM80.0833 40.2756C80.7239 38.0217 80.8788 35.7014 80.5305 33.5653C80.2161 31.6324 79.5071 29.9345 78.47 28.618C78.9797 24.2227 76.6152 20.1909 72.8189 19.1129C72.3475 18.9787 71.8651 18.8929 71.3767 18.8569C70.3682 16.8816 68.6854 15.4481 66.6697 14.8751C65.3955 14.5131 64.0577 14.5073 62.7544 14.8516C61.7537 13.5632 60.408 12.6362 58.8918 12.2045C56.9966 11.666 55.0006 11.9101 53.19 12.8888C52.4316 12.2866 51.5793 11.8491 50.6471 11.5841C48.3698 10.9369 45.9485 11.4245 43.9121 12.9207C43.8346 12.8954 43.7566 12.8713 43.6776 12.8492C40.0533 11.8193 36.1529 14.3277 34.983 18.4416C34.8984 18.7392 34.8299 19.0419 34.7773 19.3459C33.3769 20.6004 32.3567 22.2567 31.8157 24.1597C31.1418 26.5314 31.3202 29.0347 32.2962 31.1219C32.1036 31.5516 31.9414 31.9956 31.8133 32.4467C31.0398 35.168 31.4727 38.049 33.0326 40.5599C34.5717 43.0371 37.0286 44.8593 39.9518 45.6901C41.2388 46.0559 42.5502 46.2116 43.8587 46.1542C45.2246 48.0644 47.2837 49.5702 49.7975 50.2844C50.7407 50.5526 51.7917 50.6854 52.8567 50.6854C53.4486 50.6854 54.0461 50.6445 54.6321 50.5625C54.067 52.6282 54.0358 55.0391 54.5293 58.3535C54.6777 59.3516 54.64 60.3509 54.4179 61.3229C54.0995 62.718 54.4537 64.1406 55.3905 65.2279C56.2565 66.2325 57.4792 66.791 58.7883 66.791C58.9054 66.791 59.024 66.7872 59.1425 66.7773C61.334 66.61 63.0702 64.8894 63.2721 62.6862C63.3613 61.7155 63.6022 60.8998 63.9695 60.3256C64.6218 59.3048 66.3958 58.5228 68.1114 57.7664C70.59 56.6747 73.3985 55.4369 74.3719 52.9097C74.8699 51.6175 74.8341 50.1739 74.2592 48.5217C76.9184 46.8889 79.0584 43.8817 80.0833 40.2756Z" fill="#FAFAFA"/>
</g>
<defs>
<clipPath id="clip0_6_40">
<rect width="100" height="100" fill="white" transform="translate(0 0.47168)"/>
</clipPath>
</defs>
</svg>
