<svg width="101" height="101" viewBox="0 0 101 101" fill="none" xmlns="http://www.w3.org/2000/svg">
<g clip-path="url(#clip0_2_255)">
<path d="M97.4786 99.0131H3.52144C1.90663 99.0131 0.597466 97.7039 0.597466 96.0891C0.597466 89.6296 5.83392 84.3932 12.2934 84.3932H88.7066C95.1661 84.3932 100.403 89.6296 100.403 96.0891C100.403 97.7039 99.0934 99.0131 97.4786 99.0131Z" fill="#FAFAFA"/>
<path d="M11.3187 78.5452C5.40702 78.5452 0.597466 73.7356 0.597466 67.8239C0.597466 61.9122 5.40702 57.1027 11.3187 57.1027C17.2304 57.1027 22.04 61.9122 22.04 67.8239C22.04 73.7356 17.2304 78.5452 11.3187 78.5452Z" fill="#FAFAFA"/>
<path d="M78.2559 59.9563V61.0013H87.0285V54.8916L78.2559 59.9563Z" fill="#FAFAFA"/>
<path d="M94.5546 66.8493H72.4078V56.5801L86.2612 48.5818C89.0207 46.9886 90.1043 43.4781 88.5873 40.676C87.0134 37.7686 83.363 36.7499 80.5185 38.392L63.6368 48.1386C61.7626 49.2208 60.739 51.1849 60.7372 53.204H60.7121V61.0013H29.6423C28.5885 61.0013 27.5782 61.1875 26.6421 61.5282C27.4431 63.4705 27.8879 65.5959 27.8879 67.8239C27.8879 71.3009 26.8092 74.5294 24.9719 77.1972C26.3246 78.0501 27.9251 78.5452 29.6423 78.5452H94.433C97.6195 78.5452 100.313 76.0467 100.4 72.8616C100.491 69.5567 97.839 66.8493 94.5546 66.8493Z" fill="#FAFAFA"/>
<path d="M77.5476 28.1356C75.6928 26.9536 73.6725 26.0869 71.5608 25.5563C68.3776 28.7832 63.9571 30.7869 59.077 30.7869C54.1359 30.7869 49.6659 28.7327 46.4743 25.4344C37.331 27.4818 30.498 35.6458 30.498 45.4068V49.3054C30.498 52.5352 33.1162 55.1534 36.346 55.1534H38.2953H51.9402C53.555 55.1534 54.8641 53.8442 54.8641 52.2294V52.2282C54.8641 50.614 53.5556 49.3054 51.9413 49.3054H42.194C40.5791 49.3054 39.27 47.9962 39.27 46.3814V40.6161C39.27 39.0417 40.4799 37.6869 42.0526 37.6128C43.7318 37.5337 45.1179 38.8717 45.1179 40.5335V43.4574H51.9402C54.1359 43.4574 56.1442 44.2703 57.6846 45.6083C58.5329 44.6089 59.5505 43.7456 60.7131 43.0742L77.5947 33.3276L81.2864 31.1962C80.1698 30.0391 78.9177 29.0091 77.5476 28.1356Z" fill="#FAFAFA"/>
<path d="M59.077 24.9389C52.6279 24.9389 47.3811 19.6921 47.3811 13.243C47.3811 6.7939 52.6279 1.54712 59.077 1.54712C65.5261 1.54712 70.7729 6.7939 70.7729 13.243C70.7729 19.6921 65.5261 24.9389 59.077 24.9389Z" fill="#FAFAFA"/>
</g>
<defs>
<clipPath id="clip0_2_255">
<rect width="100" height="100" fill="white" transform="translate(0.5 0.280029)"/>
</clipPath>
</defs>
</svg>
