<svg width="101" height="101" viewBox="0 0 101 101" fill="none" xmlns="http://www.w3.org/2000/svg">
<path d="M3.625 73.7175H16.125V95.5925H3.625V73.7175Z" fill="#FAFAFA"/>
<path d="M57.5312 67.4675C62.2703 67.4675 66.125 71.3238 66.125 76.0613C66.125 76.8738 66.0125 77.6597 65.8 78.405H70.1266L88.8328 69.7722C89.8813 69.2863 91.0484 69.03 92.2078 69.03H92.4453C93.0672 69.03 93.6672 69.116 94.25 69.2503V26.8425C94.25 23.391 91.4516 20.5925 88 20.5925H78.625V11.2175C78.625 7.76597 75.8266 4.96753 72.375 4.96753H53.625C50.1734 4.96753 47.375 7.76597 47.375 11.2175V20.5925H38C34.5484 20.5925 31.75 23.391 31.75 26.8425V70.8597L35.1422 67.4675H57.5312ZM53.625 11.2175H72.375V20.5925H53.625V11.2175ZM63 29.9675C72.4922 29.9675 80.1875 37.6628 80.1875 47.155C80.1875 56.6472 72.4922 64.3425 63 64.3425C53.5078 64.3425 45.8125 56.6472 45.8125 47.155C45.8125 37.6628 53.5078 29.9675 63 29.9675Z" fill="#FAFAFA"/>
<path d="M59.875 56.53H66.125V50.28H72.375V44.03H66.125V37.78H59.875V44.03H53.625V50.28H59.875V56.53Z" fill="#FAFAFA"/>
<path d="M92.4453 72.155H92.2078C91.4938 72.155 90.7891 72.3097 90.1422 72.6082L70.8125 81.53H57.5312C60.5516 81.53 63 79.0816 63 76.0613C63 73.041 60.5516 70.5925 57.5312 70.5925H36.4375L30.1875 76.8425H19.25V94.03H72.375L94.8625 81.3816C96.4141 80.5082 97.375 78.866 97.375 77.0847C97.375 74.3613 95.1688 72.155 92.4453 72.155ZM56.75 84.655H45.8125C44.95 84.655 44.25 83.955 44.25 83.0925C44.25 82.23 44.95 81.53 45.8125 81.53H56.75C57.6125 81.53 58.3125 82.23 58.3125 83.0925C58.3125 83.955 57.6125 84.655 56.75 84.655Z" fill="#FAFAFA"/>
</svg>
