<svg width="83" height="82" viewBox="0 0 83 82" fill="none" xmlns="http://www.w3.org/2000/svg">
<path d="M41.5 0C18.89 0 0.5 18.39 0.5 41C0.5 63.61 18.89 82 41.5 82C64.1 82 82.5 63.61 82.5 41C82.5 18.39 64.1 0 41.5 0ZM17.09 38.9C17.03 39.59 17 40.29 17 41C17 42.1 16.1 43 15 43C13.89 43 13 42.1 13 41C13 25.72 25.09 13.21 40.2 12.53L37.08 9.41C36.3 8.63 36.3 7.36 37.08 6.58C37.86 5.8 39.13 5.8 39.91 6.58L45.91 12.58C46.29 12.96 46.5 13.47 46.5 14C46.5 14.53 46.29 15.04 45.91 15.41L39.91 21.41C39.52 21.8 39.01 22 38.5 22C37.99 22 37.47 21.8 37.08 21.41C36.54 20.87 36.38 20.09 36.6 19.4C36.69 19.1 36.85 18.82 37.08 18.58L39.05 16.62C27.37 17.79 18.09 27.18 17.09 38.9ZM30.75 44.97C30.27 42 31.01 39.04 32.83 36.65L38.31 29.44C39.08 28.44 40.24 27.87 41.5 27.87C42.76 27.87 43.92 28.44 44.68 29.44L50.16 36.65C51.99 39.04 52.73 42 52.25 44.97C51.77 47.95 50.14 50.52 47.65 52.22C45.81 53.48 43.65 54.12 41.5 54.12C39.34 54.12 37.18 53.48 35.34 52.22C32.86 50.52 31.23 47.95 30.75 44.97ZM42.79 69.46L45.91 72.58C46.69 73.36 46.69 74.63 45.91 75.41C45.52 75.8 45.01 76 44.5 76C43.99 76 43.47 75.8 43.08 75.41L37.08 69.41C36.71 69.04 36.5 68.53 36.5 68C36.5 67.47 36.71 66.96 37.08 66.58L43.08 60.58C43.86 59.8 45.13 59.8 45.91 60.58C46.46 61.13 46.61 61.91 46.4 62.6C46.3 62.9 46.15 63.18 45.91 63.41L43.95 65.37C55.62 64.21 64.9 54.82 65.9 43.09C65.96 42.4 66 41.7 66 41C66 39.89 66.89 39 68 39C69.1 39 70 39.89 70 41C70 56.28 57.91 68.78 42.79 69.46Z" fill="#2F95FF"/>
<path d="M48.3005 44.34C48.6005 42.46 48.1305 40.59 46.9805 39.07L41.5005 31.87L36.0205 39.07C34.8605 40.59 34.3905 42.46 34.7005 44.34C35.0005 46.22 36.0305 47.85 37.6005 48.92C39.9305 50.52 43.0605 50.52 45.3905 48.92C46.9605 47.85 47.9905 46.22 48.3005 44.34Z" fill="#2F95FF"/>
</svg>
