<svg width="100" height="100" viewBox="0 0 100 100" fill="none" xmlns="http://www.w3.org/2000/svg">
<path d="M93.7812 55C92.7219 49.7009 92.188 44.3102 92.1875 38.9062V36.0516C92.1904 34.0747 91.8738 32.1103 91.25 30.2344C90.2121 27.1026 88.4077 24.28 86.0007 22.0235C83.5938 19.7669 80.6609 18.148 77.4688 17.3141L58.9781 12.4484C58.6442 12.3607 58.3487 12.1649 58.1379 11.8916C57.927 11.6182 57.8126 11.2827 57.8125 10.9375V3.125H42.1875V10.9375C42.1874 11.2827 42.073 11.6182 41.8621 11.8916C41.6513 12.1649 41.3558 12.3607 41.0219 12.4484L22.5375 17.3141C19.3442 18.1471 16.41 19.7656 14.0019 22.0222C11.5939 24.2788 9.78844 27.1019 8.75 30.2344C8.12619 32.1103 7.80961 34.0747 7.8125 36.0516V38.9062C7.81196 44.3102 7.27812 49.7009 6.21875 55C5.20201 60.0935 4.68912 65.2747 4.6875 70.4688V96.875H14.1578L14.6266 89.2391C15.2954 78.6365 16.673 68.0905 18.75 57.6719V56.5031C18.751 53.3983 18.2502 50.3138 17.2672 47.3688L20.2359 46.3812C21.3231 49.6451 21.8766 53.063 21.875 56.5031V57.5094C26.0074 66.8831 28.1362 77.0167 28.125 87.2609V96.875H71.875V87.2609C71.8638 77.0167 73.9926 66.8831 78.125 57.5094V56.5031C78.1244 53.0628 78.679 49.6449 79.7672 46.3812L82.7359 47.3688C81.7518 50.3136 81.25 53.3982 81.25 56.5031V57.6719C83.3242 68.0892 84.6991 78.6335 85.3656 89.2344L85.8344 96.8703H95.3125V70.4688C95.3109 65.2747 94.798 60.0935 93.7812 55ZM48.4375 42.1875H51.5625V56.25H48.4375V42.1875ZM28.5531 46.8125L27.6969 43.8094L29.6203 43.2594C31.8865 42.6038 33.8791 41.2314 35.2997 39.348C36.7203 37.4646 37.4923 35.1716 37.5 32.8125H40.625C40.6158 35.8506 39.6219 38.8038 37.7925 41.2293C35.9631 43.6548 33.3967 45.4219 30.4781 46.2656L28.5531 46.8125ZM32.8266 68.5453C32.8621 68.2698 32.9704 68.0087 33.1405 67.789C33.3105 67.5693 33.536 67.3989 33.7938 67.2953L38.6828 65.3406L33.5703 62.2734L35.1797 59.5953L42.9922 64.2828C43.2418 64.4325 43.4445 64.649 43.5777 64.9077C43.7109 65.1665 43.7691 65.4573 43.7459 65.7474C43.7227 66.0375 43.6189 66.3154 43.4463 66.5496C43.2736 66.7839 43.039 66.9653 42.7687 67.0734L37.5359 69.1656L41.5625 72.1875L39.6875 74.6875L33.4375 70C33.2158 69.8335 33.0423 69.6111 32.9349 69.3554C32.8276 69.0998 32.7902 68.8202 32.8266 68.5453ZM50 95.3125C47.8368 95.3125 45.7221 94.671 43.9235 93.4692C42.1248 92.2674 40.7229 90.5592 39.8951 88.5606C39.0672 86.562 38.8506 84.3629 39.2727 82.2412C39.6947 80.1195 40.7364 78.1707 42.266 76.641C43.7957 75.1114 45.7445 74.0697 47.8662 73.6477C49.9879 73.2256 52.187 73.4422 54.1856 74.2701C56.1842 75.0979 57.8924 76.4998 59.0942 78.2984C60.296 80.0971 60.9375 82.2118 60.9375 84.375C60.9342 87.2748 59.7808 90.0549 57.7303 92.1053C55.6799 94.1558 52.8998 95.3092 50 95.3125ZM66.5625 70L60.3125 74.6875L58.4375 72.1875L62.4641 69.1688L57.2312 67.0766C56.961 66.9685 56.7264 66.7871 56.5537 66.5528C56.3811 66.3185 56.2773 66.0406 56.2541 65.7505C56.2309 65.4604 56.2891 65.1696 56.4223 64.9109C56.5555 64.6521 56.7582 64.4356 57.0078 64.2859L64.8203 59.5984L66.4297 62.2766L61.3172 65.3438L66.2063 67.2984C66.4639 67.4015 66.6894 67.5712 66.8597 67.7903C67.03 68.0094 67.1389 68.2699 67.1751 68.5449C67.2114 68.82 67.1738 69.0998 67.0661 69.3555C66.9584 69.6113 66.7846 69.8337 66.5625 70ZM71.4469 46.8125L69.5312 46.2641C66.6112 45.4221 64.0429 43.656 62.2117 41.2306C60.3805 38.8053 59.3852 35.8515 59.375 32.8125H62.5C62.5075 35.172 63.2795 37.4656 64.7005 39.3493C66.1214 41.2331 68.1146 42.6055 70.3812 43.2609L72.3031 43.8109L71.4469 46.8125Z" fill="#FAFAFA"/>
<path d="M50 76.5625C48.4548 76.5625 46.9444 77.0207 45.6596 77.8791C44.3749 78.7376 43.3735 79.9577 42.7822 81.3853C42.1909 82.8128 42.0362 84.3837 42.3376 85.8991C42.6391 87.4146 43.3831 88.8067 44.4757 89.8993C45.5683 90.9919 46.9604 91.7359 48.4759 92.0374C49.9913 92.3388 51.5622 92.1841 52.9897 91.5928C54.4173 91.0015 55.6374 90.0002 56.4959 88.7154C57.3543 87.4306 57.8125 85.9202 57.8125 84.375C57.81 82.3038 56.9861 80.3181 55.5215 78.8535C54.0569 77.3889 52.0712 76.565 50 76.5625ZM50 87.5C49.3819 87.5 48.7777 87.3167 48.2638 86.9733C47.7499 86.63 47.3494 86.1419 47.1129 85.5709C46.8764 84.9999 46.8145 84.3715 46.9351 83.7653C47.0556 83.1591 47.3533 82.6023 47.7903 82.1653C48.2273 81.7283 48.7842 81.4306 49.3903 81.31C49.9965 81.1895 50.6249 81.2514 51.1959 81.4879C51.7669 81.7244 52.255 82.1249 52.5983 82.6388C52.9417 83.1527 53.125 83.7569 53.125 84.375C53.125 85.2038 52.7958 85.9987 52.2097 86.5847C51.6237 87.1708 50.8288 87.5 50 87.5Z" fill="#FAFAFA"/>
</svg>
