<svg width="84" height="100" viewBox="0 0 84 100" fill="none" xmlns="http://www.w3.org/2000/svg">
<path d="M18.6848 20.5242C33.9893 27.5568 51.6068 26.9129 65.2797 20.4918C71.0178 26.5465 76.4717 33.943 79.5002 41.199C80.973 18.6637 64.4447 0.208398 42.0002 0C19.2143 0.188867 3.05117 19.0525 4.5002 41.1846C7.45781 34.0475 12.9521 26.6025 18.6848 20.5242Z" fill="#2F95FF"/>
<path d="M41.9996 84.5703C49.7221 84.5703 56.1699 79.008 57.548 71.6797H26.4512C27.8293 79.008 34.2771 84.5703 41.9996 84.5703Z" fill="#2F95FF"/>
<path d="M75.4277 46.8738C72.9504 39.6986 68.6883 33.0822 63.6807 27.4896C52.8668 31.9504 35.1643 33.4305 20.3197 27.4896C15.2982 33.1117 11.0045 39.7697 8.57285 46.8738C3.98555 47.7856 0.527344 51.8318 0.527344 56.6869C0.527344 62.0775 4.79062 66.4705 10.1291 66.6832C10.2404 84.8535 22.949 99.7377 42.0002 100C60.5662 99.7074 73.7367 85.4494 73.8713 66.6832C79.2098 66.4705 83.473 62.0777 83.473 56.6869C83.473 51.8318 80.0148 47.7856 75.4277 46.8738ZM17.9369 54.9443C17.9369 49.4691 22.3914 45.0146 27.8666 45.0146C33.3418 45.0146 37.7963 49.4691 37.7963 54.9443H31.9369C31.9369 52.7 30.1109 50.874 27.8666 50.874C25.6223 50.874 23.7963 52.7 23.7963 54.9443H17.9369ZM63.6799 68.75C63.6799 80.7043 53.9545 90.4297 42.0002 90.4297C30.0459 90.4297 20.3205 80.7043 20.3205 68.75V65.8203H63.6799V68.75ZM60.2041 54.9443C60.2041 52.7 58.3781 50.874 56.1338 50.874C53.8895 50.874 52.0635 52.7 52.0635 54.9443H46.2041C46.2041 49.4691 50.6586 45.0146 56.1338 45.0146C61.609 45.0146 66.0635 49.4691 66.0635 54.9443H60.2041Z" fill="#2F95FF"/>
</svg>
