<svg width="100" height="100" viewBox="0 0 100 100" fill="none" xmlns="http://www.w3.org/2000/svg">
<path d="M39.0254 35.3516C48.7875 35.3516 56.7012 27.4378 56.7012 17.6758C56.7012 7.91372 48.7875 0 39.0254 0C29.2633 0 21.3496 7.91372 21.3496 17.6758C21.3496 27.4378 29.2633 35.3516 39.0254 35.3516Z" fill="#FAFAFA"/>
<path d="M75.8508 16.8752C74.4429 16.078 72.6551 16.5731 71.858 17.9813L70.3316 20.6774L68.4361 18.2262C67.1597 16.5756 64.6027 16.7498 63.5693 18.5748L59.8711 25.1057C59.0738 26.5137 59.5689 28.3014 60.9769 29.0987C62.3814 29.894 64.1709 29.4039 64.9699 27.9928L66.4969 25.2963L68.3926 27.7477C69.6705 29.4004 72.2273 29.2219 73.2595 27.3989L76.9572 20.868C77.7541 19.46 77.2588 17.6723 75.8508 16.8752Z" fill="#FAFAFA"/>
<path d="M93.1519 40.1611C92.8575 38.5701 91.329 37.5183 89.738 37.8132L86.6915 38.3769L87.3507 35.3494C87.7948 33.3093 86.0167 31.465 83.9552 31.8453L76.5751 33.2103C74.9841 33.5046 73.9329 35.033 74.2271 36.624C74.5214 38.215 76.0499 39.2658 77.6407 38.972L80.688 38.4084L80.0286 41.4361C79.5845 43.4763 81.3648 45.322 83.4243 44.9402L90.804 43.5748C92.3952 43.2804 93.4462 41.7521 93.1519 40.1611Z" fill="#FAFAFA"/>
<path d="M60.1191 35.3516H39.0254H18.0148C11.8303 35.3516 6.79883 40.383 6.79883 46.5676C6.79883 52.7867 11.3914 55.5055 12.6582 57.1289L29.0193 73.5461C31.3141 75.8406 35.0277 75.8406 37.3225 73.5461L57.7055 53.1631C59.0023 51.866 58.9906 49.7643 57.6795 48.4818C56.3961 47.2266 54.3193 47.2381 53.0498 48.5074L35.2277 66.3295C34.1291 67.4283 32.3631 67.4779 31.2043 66.4428L22.132 58.3373C20.9254 57.2592 20.8213 55.4072 21.8992 54.2006C22.9773 52.9941 24.8293 52.8898 26.0359 53.9678L33.043 60.2281L48.9066 44.3645C52.4352 40.8357 58.2086 40.8037 61.7766 44.293C65.4215 47.8578 65.4537 53.7014 61.8486 57.3062L41.4656 77.6893C36.8922 82.2629 29.45 82.2631 24.8762 77.6893L12.6582 65.4713V97.0703C12.6582 98.6883 13.9699 100 15.5879 100H53.6738V73.4375C53.6738 71.8195 54.9855 70.5078 56.6035 70.5078C58.2215 70.5078 59.5332 71.8195 59.5332 73.4375V100H68.3223C69.9402 100 71.252 98.6883 71.252 97.0703V46.4844C71.252 40.3457 66.2576 35.3516 60.1191 35.3516Z" fill="#FAFAFA"/>
</svg>
