<svg width="101" height="100" viewBox="0 0 101 100" fill="none" xmlns="http://www.w3.org/2000/svg">
<g clip-path="url(#clip0_282_680)">
<path d="M28.5729 20.6734C31.9783 20.6734 34.7475 23.4425 34.7475 26.848C34.7475 30.2494 31.9783 33.0164 28.5729 33.0164C25.1715 33.0164 22.4045 30.2494 22.4045 26.848C22.4045 23.4425 25.1715 20.6734 28.5729 20.6734ZM4.76641 21.6511L9.95449 25.0001C10.191 25.1529 10.4646 25.2322 10.7414 25.2322C10.8553 25.2322 10.9697 25.2189 11.0822 25.1916C11.4684 25.0982 11.7996 24.8505 11.9984 24.5064L13.0752 22.6404L15.4066 24.6652C16.0119 25.1906 16.9283 25.1259 17.4539 24.521C17.9795 23.916 17.915 22.9994 17.3098 22.4738L13.6496 19.2953C13.3225 19.0111 12.8857 18.8878 12.458 18.9597C12.0307 19.0314 11.6576 19.2902 11.441 19.6656L10.2471 21.7347L6.34023 19.2126C5.6668 18.7779 4.76875 18.9716 4.33398 19.6449C3.89941 20.3181 4.09297 21.2164 4.76641 21.6511ZM16.7295 13.6089C16.9109 13.9624 17.2293 14.2261 17.6104 14.3386C17.9916 14.4511 18.4021 14.4021 18.7463 14.2035L20.6143 13.1253L21.626 16.0476C21.8336 16.6478 22.3959 17.0244 22.9973 17.0244C23.1547 17.0244 23.3148 16.9986 23.4719 16.9441C24.2293 16.682 24.6307 15.8554 24.3686 15.098L22.782 10.5152C22.6404 10.1062 22.3236 9.78159 21.918 9.63022C21.5125 9.47905 21.0604 9.51655 20.6854 9.73296L18.616 10.9271L16.498 6.79682C16.1322 6.08374 15.2576 5.8021 14.5443 6.16792C13.8312 6.53374 13.5494 7.40835 13.9152 8.12143L16.7295 13.6089ZM30.0246 10.3249L32.1639 10.613L31.1758 13.54C30.9195 14.2994 31.3271 15.1228 32.0867 15.3792C32.2406 15.4312 32.3971 15.4558 32.551 15.4558C33.1564 15.4558 33.7213 15.0738 33.9258 14.4683L35.477 9.87378C35.6156 9.46323 35.5635 9.01206 35.3348 8.64409C35.1063 8.27592 34.7248 8.02924 34.2955 7.97143L31.9252 7.65229L32.7787 3.08413C32.9258 2.29643 32.4064 1.53823 31.6188 1.39116C30.8316 1.2435 30.0727 1.76323 29.9256 2.55112L28.7916 8.62026C28.7188 9.01108 28.8092 9.41499 29.0422 9.73725C29.2754 10.0595 29.6305 10.272 30.0246 10.3249ZM73.2895 73.5085C72.3588 72.9863 71.3059 72.7085 70.2385 72.7085C69.1937 72.7085 68.1348 72.9738 67.1668 73.5335C64.2174 75.2373 63.2037 79.022 64.9055 81.9673C66.6072 84.9148 70.3898 85.9283 73.3352 84.2265C76.2826 82.5228 77.2982 78.738 75.5943 75.7927C75.0242 74.804 74.218 74.033 73.2895 73.5085ZM87.9779 94.3222L83.8406 92.1982L85.0354 90.1283C85.2518 89.7533 85.2895 89.3011 85.1379 88.8957C84.9867 88.49 84.6621 88.173 84.2529 88.0316L79.6701 86.4453C78.9131 86.183 78.0865 86.5843 77.824 87.3419C77.5619 88.0994 77.9633 88.9257 78.7207 89.188L81.643 90.1996L80.5647 92.0679C80.366 92.4121 80.3174 92.8224 80.4297 93.2035C80.5418 93.5845 80.8055 93.9031 81.159 94.0843L86.6525 96.9044C86.8645 97.0134 87.091 97.065 87.3141 97.065C87.841 97.065 88.3492 96.7771 88.6062 96.2761C88.9723 95.563 88.691 94.6882 87.9779 94.3222ZM100.402 82.5291L90.5736 88.9732C88.2564 85.6818 86.1773 82.4628 84.3078 79.2605L86.1111 78.9123V81.072C86.1111 81.4701 86.2729 81.8494 86.5609 82.1228C86.8324 82.3798 87.191 82.5228 87.5621 82.5228C87.585 82.5228 87.6098 82.5228 87.6348 82.5207L93.7969 82.216C94.5969 82.1765 95.2146 81.4947 95.1752 80.6947C95.1357 79.8947 94.4518 79.2769 93.6539 79.3164L89.0131 79.5464V77.1525C89.0131 76.7193 88.8203 76.3089 88.4865 76.0332C88.1508 75.7576 87.7113 75.6457 87.2863 75.7285L82.7969 76.597C81.6715 74.5513 80.6289 72.5054 79.6588 70.4453C79.9635 70.3873 80.2535 70.2318 80.4732 69.9789L82.5148 67.6574L83.8352 69.3632C84.0777 69.6783 84.4404 69.8773 84.8342 69.9187C85.2301 69.9601 85.6238 69.8357 85.9266 69.5767L90.615 65.564C91.2244 65.0437 91.2949 64.1277 90.7725 63.5183C90.2523 62.9089 89.3361 62.8384 88.7268 63.3587L85.1969 66.3808L83.7336 64.4906C83.4684 64.1486 83.0641 63.9414 82.6309 63.9289C82.1977 63.9144 81.7811 64.0947 81.4951 64.4201L78.4814 67.8484C76.8107 64.0345 75.3807 60.1462 74.1412 56.0859C74.877 54.2453 75.7186 52.4027 76.643 50.6015C77.0098 49.8884 76.7279 49.0138 76.015 48.647C75.3019 48.2822 74.4273 48.5621 74.0625 49.2751C73.0178 51.3105 72.0748 53.3957 71.258 55.4746C71.2561 55.4787 71.2539 55.4849 71.2518 55.489C71.2455 55.5035 71.2414 55.5181 71.2371 55.5326C71.2268 55.5574 71.2186 55.5843 71.2123 55.6113C71.2061 55.6216 71.2041 55.632 71.202 55.6423C71.1916 55.6796 71.1834 55.715 71.1771 55.7521C70.091 60.6996 69.2641 65.4648 68.7127 69.9355C67.6824 70.1097 66.6689 70.4681 65.7135 71.0195C63.6139 72.2341 62.1111 74.1908 61.4832 76.5308C60.8551 78.873 61.1785 81.3187 62.393 83.4183C63.649 85.5966 65.6803 87.058 67.9396 87.6529C68.1199 91.479 68.551 95.1603 69.2246 98.6341H31.7752C34.1318 86.546 33.4936 72.4931 29.8289 55.7519C29.8227 55.7146 29.8145 55.6792 29.8041 55.6421C29.8021 55.6318 29.8 55.6214 29.7959 55.6111C29.7877 55.5841 29.7795 55.5572 29.7689 55.5324C29.7648 55.5179 29.7607 55.5035 29.7545 55.4888C29.7523 55.4847 29.7504 55.4785 29.7482 55.4744C28.9441 53.4265 27.9988 51.3435 26.9377 49.2749C26.5728 48.5619 25.6982 48.2822 24.9852 48.6468C24.2721 49.0136 23.9902 49.8884 24.3572 50.6013C25.2941 52.4294 26.1377 54.2701 26.865 56.0816C23.3188 67.6867 18.2158 77.9031 10.4266 88.9734L0.597656 82.5291C5.64668 66.074 10.3912 52.4189 16.9119 39.5537C18.2301 36.9482 19.9193 34.8382 22.048 33.1408C23.6959 34.8529 26.0131 35.9203 28.5729 35.9203C33.5783 35.9203 37.6512 31.8494 37.6512 26.848C37.6512 25.7433 37.4521 24.6841 37.0895 23.7037C38.8887 22.2818 40.5135 20.7894 42.035 19.1624C42.2877 18.8929 42.4266 18.5386 42.4266 18.1697V12.4115H58.5791V18.1695C58.5791 18.5363 58.718 18.8908 58.9687 19.1603C64.0117 24.5701 69.9355 28.0314 75.5877 30.9664C79.4367 32.9685 82.1375 35.6962 84.0879 39.5537C90.6088 52.4189 95.3533 66.0738 100.402 82.5291ZM51.951 15.8792C51.951 15.0771 51.3021 14.4283 50.5 14.4283C49.6979 14.4283 49.049 15.0771 49.049 15.8792V95.5083C49.049 96.3083 49.6979 96.9593 50.5 96.9593C51.3021 96.9593 51.951 96.3085 51.951 95.5083V15.8792Z" fill="#FAFAFA"/>
</g>
<defs>
<clipPath id="clip0_282_680">
<rect width="100" height="100" fill="white" transform="translate(0.5)"/>
</clipPath>
</defs>
</svg>
