<svg width="100" height="100" viewBox="0 0 100 100" fill="none" xmlns="http://www.w3.org/2000/svg">
<path d="M89.4849 79.3437C89.4067 79.2031 78.938 50.6406 78.8286 50.5469C71.3599 37.25 51.8442 36.7656 47.9224 36.8594L46.3911 29.3281C46.313 28.9687 46.0005 28.7031 45.6255 28.7031H29.3599C28.9692 28.7031 28.6255 29 28.5786 29.3906L27.5942 37.9375L17.9692 40.2812C12.7349 41.5312 9.54737 46.6406 10.688 51.9062L16.7817 79.7812C16.8599 80.1406 17.188 80.4062 17.5474 80.4062H66.9224C67.2817 80.4062 67.5942 80.1562 67.6724 79.8125L70.2661 69.3594L73.4849 79.8437C73.5942 80.1719 73.8911 80.4062 74.2349 80.4062H88.7505C89.2817 80.4062 89.688 79.8437 89.4849 79.3437ZM60.5942 60.8594C60.9849 61.8125 59.563 62.4219 59.1567 61.4687C59.0161 61.1562 56.188 54.2812 58.2349 48.7656C58.063 48.7031 57.8911 48.6406 57.7192 48.5781C53.7036 55 47.2817 58.9687 46.6411 59.0625C45.8599 59.0937 45.563 57.9844 46.2505 57.6094C46.313 57.5625 52.5317 53.8437 56.1724 48.1094C48.8911 46.2187 42.1255 48.5937 42.0161 48.6406C41.063 48.9844 40.5161 47.5156 41.4849 47.1719C41.6099 47.125 49.2974 44.4219 57.3599 46.8125C63.188 48.6719 67.4067 51.8906 71.0786 59.0156C71.5161 59.9375 70.1255 60.625 69.6724 59.7031C67.0161 54.2812 63.4224 51.1406 59.7036 49.375C57.8911 54.2969 60.563 60.7969 60.5942 60.8594ZM46.6255 40.8437C47.5005 40.8281 68.3442 40.75 73.6411 53.7344C74.0005 54.6719 72.6099 55.2812 72.188 54.3281C67.2974 42.3281 46.8286 42.4062 46.6411 42.4062C45.6411 42.4062 45.6099 40.8594 46.6255 40.8437ZM58.3442 26.4219L60.3599 20.1406C60.6724 19.1719 62.1567 19.6406 61.8442 20.6094L60.0317 26.2656L63.4692 28C63.813 28.1719 63.9692 28.5625 63.8599 28.9219L61.8442 35.5469C61.5317 36.5312 60.063 36.0625 60.3442 35.0937L62.1724 29.0937L58.7349 27.3437C58.3911 27.1719 58.2192 26.7656 58.3442 26.4062V26.4219ZM66.7192 35.7969L70.8442 31.0625L68.4224 28.0625C68.188 27.7656 68.188 27.3437 68.4536 27.0469L72.8599 22.1406C73.5317 21.375 74.7036 22.4375 74.0161 23.1875L70.0474 27.6094L72.4692 30.6094C72.7036 30.9062 72.7036 31.3281 72.4536 31.6094L67.9067 36.8281C67.2349 37.5937 66.063 36.5625 66.7349 35.7969H66.7192ZM76.8442 31.3125C76.7505 30.9375 76.938 30.5625 77.2817 30.4062L83.313 27.7187C84.2505 27.3125 84.8755 28.7344 83.9536 29.1406L78.5317 31.5625L79.5161 35.2812C79.6099 35.6406 79.438 36.0312 79.0942 36.1875L72.813 39.1094C71.9067 39.5469 71.2349 38.1094 72.1567 37.6875L77.8442 35.0469L76.8599 31.3125H76.8442Z" fill="#FAFAFA"/>
</svg>
