<svg width="150" height="151" viewBox="0 0 150 151" fill="none" xmlns="http://www.w3.org/2000/svg">
<path d="M36.25 31.6993C39.375 30.7618 42.5 30.4493 45.625 30.4493C50.625 30.4493 55.625 31.6993 60 33.8868C56.875 27.0118 49.0625 23.8868 42.1875 26.6993C39.6875 27.9493 37.8125 29.5118 36.25 31.6993Z" fill="#2F95FF"/>
<path d="M90 33.8867C94.375 31.6992 99.375 30.4492 104.375 30.4492C107.5 30.4492 110.625 31.0742 113.75 31.6992C110.938 27.9492 106.875 25.7617 102.188 25.7617C96.875 25.7617 91.875 28.8867 90 33.8867Z" fill="#2F95FF"/>
<path d="M90 63.2618C102.5 55.1368 118.75 54.8243 131.25 62.6368L121.563 43.2618C121.25 42.6368 120.938 42.3243 120.313 42.0118C120.313 42.0118 115.312 37.0118 104.062 37.0118C96.875 37.0118 92.5 38.8868 88.75 42.3243C88.125 42.6368 87.8125 43.5743 87.5 44.1993L85.9375 53.8868H82.5C81.5625 53.2618 80.9375 52.6368 80 52.3243C76.875 51.0743 73.4375 51.0743 70.3125 52.3243C69.375 52.6368 68.4375 53.2618 67.8125 53.8868H64.375L62.5 43.8868C62.5 43.5743 62.1875 42.9493 62.1875 42.9493C56.25 37.9493 50.625 37.0118 45.9375 37.0118C40.625 37.0118 37.8125 36.6993 29.6875 42.0118C29.0625 42.3243 28.75 42.6368 28.4375 43.2618L19.0625 62.6368C31.5625 55.1368 47.5 55.1368 60 63.2618C62.1875 64.8243 75 80.4493 75 80.4493C75 80.4493 87.5 64.8243 90 63.2618Z" fill="#2F95FF"/>
<path d="M39.0625 63.2617C20.9375 63.2617 6.25 77.9492 6.25 96.0742C6.25 114.199 20.9375 128.887 39.0625 128.887C57.1875 128.887 71.875 114.199 71.875 96.0742C71.875 77.9492 57.1875 63.2617 39.0625 63.2617ZM39.0625 117.637C27.1875 117.637 17.1875 107.949 17.1875 95.7617C17.1875 83.8867 26.875 73.8867 39.0625 73.8867C51.25 73.8867 60.9375 83.5742 60.9375 95.7617C60.9375 107.949 50.9375 117.637 39.0625 117.637Z" fill="#2F95FF"/>
<path d="M110.938 63.2617C92.8125 63.2617 78.125 77.9492 78.125 96.0742C78.125 114.199 92.8125 128.887 110.938 128.887C129.062 128.887 143.75 114.199 143.75 96.0742C143.75 77.9492 129.062 63.2617 110.938 63.2617ZM110.938 117.637C99.0625 117.637 89.0625 107.949 89.0625 95.7617C89.0625 83.8867 98.75 73.8867 110.938 73.8867C123.125 73.8867 132.812 83.5742 132.812 95.7617C132.812 107.949 122.812 117.637 110.938 117.637Z" fill="#2F95FF"/>
</svg>
