<svg width="100" height="100" viewBox="0 0 100 100" fill="none" xmlns="http://www.w3.org/2000/svg">
<path d="M79.4841 40.3099C87.396 38.4396 92.2936 30.5089 90.4231 22.5961C88.5527 14.6833 80.6225 9.78478 72.7106 11.655C64.7986 13.5253 59.9011 21.456 61.7715 29.3688C63.642 37.2816 71.5721 42.1801 79.4841 40.3099Z" fill="#FAFAFA"/>
<path d="M67.9244 54.4497C70.391 52.133 71.8078 48.833 71.8078 45.3996C71.8078 44.7664 71.7577 44.133 71.6577 43.5164C66.0411 42.0829 61.4744 38.0163 59.341 32.6996C57.2911 32.633 55.2077 33.0997 53.2744 34.1163L30.7411 36.6163C27.0744 37.0163 23.8577 39.233 22.1411 42.5163C20.4411 45.7997 20.4745 49.6829 22.2577 52.933L31.2078 69.283C28.7577 78.1163 28.3578 84.8829 28.3077 86.183C28.2911 86.633 28.4578 87.0663 28.7577 87.3829C29.0577 87.7163 29.4744 87.8996 29.9077 87.9163L51.9078 88.7163H51.9577C52.8411 88.7163 53.5744 88.0163 53.6244 87.133C53.6744 86.2997 54.9411 66.6496 67.9244 54.4497ZM36.6245 55.0497L34.5577 51.2663C34.1577 50.533 34.141 49.6829 34.5244 48.9496C34.9077 48.1997 35.6077 47.733 36.4411 47.633L41.1744 47.1163C39.5078 49.6163 37.991 52.2664 36.6245 55.0497Z" fill="#FAFAFA"/>
<path d="M12.1637 58.2133C11.8902 59.0922 12.3801 60.0265 13.259 60.3007L23.4006 63.4631C23.5667 63.5144 23.7327 63.5396 23.8971 63.5396C24.6083 63.5396 25.2659 63.0815 25.4889 62.3686C25.7623 61.4897 25.2724 60.5554 24.3935 60.2812L14.2519 57.1187C13.3697 56.8461 12.4387 57.336 12.1637 58.2133Z" fill="#FAFAFA"/>
<path d="M27.1006 69.6155C26.5358 68.8896 25.4909 68.7586 24.7617 69.3225L15.4811 76.5409C14.7552 77.1065 14.6234 78.1539 15.1898 78.8798C15.5185 79.3022 16.0101 79.5235 16.5065 79.5235C16.863 79.5235 17.2243 79.4088 17.5286 79.1728L26.8092 71.9544C27.5352 71.3888 27.667 70.3414 27.1006 69.6155Z" fill="#FAFAFA"/>
<path d="M20.4135 67.5484C20.132 66.6736 19.1896 66.1902 18.3156 66.4742L10.3224 69.0523C9.44512 69.3347 8.96497 70.2739 9.24655 71.1503C9.47442 71.8559 10.1287 72.3059 10.8335 72.3059C11.0027 72.3059 11.1753 72.2799 11.3445 72.2245L19.3377 69.6464C20.215 69.364 20.6951 68.4249 20.4135 67.5484Z" fill="#FAFAFA"/>
</svg>
