<svg width="101" height="100" viewBox="0 0 101 100" fill="none" xmlns="http://www.w3.org/2000/svg">
<g clip-path="url(#clip0_282_696)">
<path d="M100.491 75.7031C100.394 74.8457 99.6217 74.2295 98.7633 74.325L89.1838 75.4023L90.7529 71.9273C90.9842 71.4154 90.9226 70.8187 90.592 70.3646C90.2615 69.9103 89.7111 69.6689 89.1543 69.7316L77.8666 71.0011C77.009 71.0976 76.392 71.8709 76.4885 72.7285C76.5849 73.5861 77.3574 74.2035 78.2158 74.1066L86.7746 73.1441L85.2054 76.6191C84.9742 77.131 85.0357 77.7277 85.3664 78.1818C85.6623 78.5884 86.1334 78.8248 86.6293 78.8248C86.6873 78.8248 86.7457 78.8214 86.8043 78.815L99.1127 77.4308C99.9703 77.3343 100.587 76.5611 100.491 75.7035L100.491 75.7031Z" fill="#FAFAFA"/>
<path d="M93.1715 94.9177L84.545 90.6156L87.7508 88.5515C88.2231 88.2474 88.4958 87.7132 88.4651 87.1523C88.4344 86.5914 88.1049 86.0902 87.6024 85.8394L77.4377 80.7699C76.6655 80.3851 75.7272 80.6986 75.3422 81.4709C74.9573 82.2431 75.271 83.1812 76.0432 83.5664L83.7506 87.4103L80.5448 89.4744C80.0725 89.7785 79.7997 90.3127 79.8305 90.8736C79.8612 91.4345 80.1907 91.9357 80.6932 92.1865L91.7772 97.7142C92.001 97.8259 92.2389 97.8789 92.4733 97.8789C93.0471 97.8789 93.5993 97.5615 93.8729 97.0133C94.2581 96.241 93.9442 95.3029 93.1719 94.9177H93.1715Z" fill="#FAFAFA"/>
<path d="M77.5356 64.5822C77.8231 64.8107 78.1663 64.9217 78.5069 64.9217C78.9669 64.9217 79.4225 64.7195 79.7311 64.3314L85.0911 57.5898L86.4446 61.1543C86.644 61.6795 87.11 62.0572 87.6651 62.1435C88.22 62.2301 88.779 62.0119 89.1284 61.5721L96.8366 51.8771C97.3737 51.2017 97.2614 50.2187 96.586 49.6818C95.9106 49.1447 94.9276 49.257 94.3905 49.9324L88.3913 57.4779L87.0378 53.9135C86.8384 53.3883 86.3723 53.0105 85.8173 52.9242C85.2628 52.8379 84.7036 53.056 84.354 53.4957L77.2848 62.3867C76.7477 63.0621 76.86 64.0451 77.5356 64.5822Z" fill="#FAFAFA"/>
<path d="M3.625 91.5977H26.0488V96.875H3.625V91.5977Z" fill="#FAFAFA"/>
<path d="M40.6914 19.8164C37.7363 13.4668 31.3184 9.375 24.332 9.375H9.22656C7 9.375 5.1875 7.5625 5.1875 5.33594V3.125H3.625V69.2988H26.0488V52.584C26.0488 52.5586 26.0508 52.5352 26.0527 52.5098L20.0918 40.4023C19.7109 39.6289 20.0293 38.6914 20.8027 38.3105C21.5781 37.9297 22.5137 38.248 22.8945 39.0215L38.2305 70.1699C38.4688 70.6543 38.4395 71.2285 38.1543 71.6855C37.8691 72.1445 37.3672 72.4238 36.8281 72.4238H3.625V88.4727H55.8203C59.7031 88.4727 63.2559 86.5117 65.3223 83.2246C67.3906 79.9375 67.6211 75.8867 65.9394 72.3867L40.6914 19.8164ZM43.5088 71.0527C43.76 70.5582 44.0439 70.0731 44.3529 69.6107C44.8326 68.8934 45.8027 68.7002 46.5203 69.1799C47.2377 69.6594 47.4307 70.6297 46.9512 71.3473C46.7109 71.7066 46.4902 72.0838 46.2949 72.468C46.0193 73.0106 45.4703 73.3232 44.9006 73.3232C44.6625 73.3232 44.4209 73.2686 44.1941 73.1533C43.4248 72.7625 43.118 71.8221 43.5088 71.0527ZM43.6471 80.5365C42.8701 80.5365 42.1969 79.9576 42.0984 79.1666C42.0301 78.6174 41.9938 78.057 41.9904 77.501C41.9852 76.6381 42.6805 75.9342 43.5434 75.9289C44.4131 75.9215 45.11 76.6189 45.1154 77.4818C45.118 77.9158 45.1463 78.3529 45.1996 78.7809C45.3061 79.6371 44.6982 80.4178 43.8418 80.5242C43.7764 80.5324 43.7113 80.5363 43.6469 80.5363L43.6471 80.5365ZM47.1684 86.3455C46.8826 86.5691 46.5434 86.6775 46.2064 86.6775C45.7424 86.6775 45.283 86.4717 44.9748 86.0779C44.7943 85.8475 44.6197 85.6094 44.4555 85.3703C43.967 84.659 44.1475 83.6863 44.8586 83.1977C45.5699 82.7092 46.5426 82.8896 47.0312 83.6008C47.159 83.7867 47.2951 83.9721 47.4357 84.152C47.9676 84.8314 47.8477 85.8135 47.1682 86.3453L47.1684 86.3455ZM51.9113 67.2881C51.5121 67.4516 51.1182 67.641 50.7406 67.8514C50.5 67.9855 50.2391 68.049 49.9818 68.049C49.4332 68.049 48.901 67.7598 48.6152 67.2465C48.1953 66.4926 48.4662 65.541 49.2201 65.1213C49.7061 64.8506 50.2129 64.6068 50.727 64.3963C51.5256 64.0693 52.4381 64.4514 52.765 65.2502C53.092 66.0488 52.7098 66.9613 51.9111 67.2883L51.9113 67.2881ZM59.4652 65.2844C59.3492 66.0594 58.6826 66.6158 57.9219 66.6158C57.8449 66.6158 57.7672 66.6102 57.6887 66.5984C57.4639 66.5648 57.2355 66.5377 57.01 66.5184C56.1502 66.4443 55.5133 65.6873 55.5875 64.8275C55.6617 63.9678 56.4201 63.3299 57.2785 63.4051C57.5686 63.4301 57.8623 63.4646 58.1514 63.5078C59.0049 63.6355 59.5932 64.4311 59.4654 65.2844H59.4652Z" fill="#FAFAFA"/>
</g>
<defs>
<clipPath id="clip0_282_696">
<rect width="100" height="100" fill="white" transform="translate(0.5)"/>
</clipPath>
</defs>
</svg>
