<svg width="100" height="100" viewBox="0 0 100 100" fill="none" xmlns="http://www.w3.org/2000/svg">
<path d="M86.141 57.5519C83.1037 53.2699 81.6532 41.1953 81.2601 36.7727C75.6529 14.6918 49.5271 15.7997 41.5922 18.5966C41.5517 19.5729 41.1924 20.5091 40.5693 21.2619C41.1462 21.5869 43.4389 23.0066 44.0712 23.3692C44.7454 23.7767 45.301 24.3537 45.6827 25.0428C49.4033 24.3883 53.2359 24.9552 56.6077 26.6588C59.9795 28.3624 62.7096 31.1112 64.3902 34.4946C66.0708 37.8779 66.6115 41.7142 65.9317 45.4303C65.2519 49.1464 63.388 52.5428 60.6185 55.1121C57.8489 57.6813 54.3224 59.2856 50.5659 59.6851C46.8093 60.0846 43.0243 59.258 39.7763 57.3287C36.5284 55.3994 33.9918 52.471 32.5456 48.981C31.0994 45.491 30.8212 41.6268 31.7525 37.9657L26.6854 35.2852C25.7606 34.8618 24.8829 34.3425 24.0668 33.7357C21.6039 39.1922 17.0705 52.1788 29.567 66.3999C29.614 66.4462 34.433 70.6919 28.0179 85.9239C27.9295 86.1395 27.8907 86.3723 27.9044 86.605C27.918 86.8377 27.9838 87.0643 28.0969 87.2681C28.21 87.4719 28.3674 87.6477 28.5576 87.7825C28.7478 87.9173 28.9658 88.0076 29.1956 88.0467L62.6345 93.7336C62.8848 93.7722 63.1408 93.7502 63.3808 93.6693C63.6208 93.5884 63.8378 93.451 64.0136 93.2686C64.1916 93.0852 64.3205 92.8598 64.3882 92.6133C64.4559 92.3668 64.4603 92.1072 64.401 91.8586C63.8741 89.5188 64.8503 84.5913 65.2532 82.9333C65.2928 82.631 65.3945 82.3401 65.552 82.0791C65.7094 81.818 65.9191 81.5923 66.168 81.4162C66.4169 81.2401 66.6995 81.1174 66.9981 81.0558C67.2966 80.9942 67.6047 80.995 67.903 81.0583C75.6196 83.1192 78.4553 80.33 78.7032 80.0511C79.9095 79.0734 80.6877 77.6643 80.8728 76.1225C81.0579 74.5808 80.6354 73.0276 79.6948 71.792L80.8105 71.2033C81.1058 71.0389 81.3591 70.8086 81.5507 70.5302C81.7423 70.2518 81.8669 69.9329 81.9149 69.5984C81.9629 69.2639 81.933 68.9229 81.8274 68.6018C81.7218 68.2808 81.5435 67.9885 81.3063 67.7478C81.5934 67.5507 81.8287 67.2872 81.9922 66.9797C82.1558 66.6723 82.2427 66.3299 82.2458 65.9817C82.2488 65.6334 82.1678 65.2896 82.0097 64.9793C81.8515 64.6691 81.6209 64.4015 81.3373 64.1994L80.5626 63.6415L84.7619 61.968C85.1766 61.8075 85.5497 61.5555 85.8535 61.2308C86.1572 60.9061 86.3838 60.517 86.5164 60.0926C86.6489 59.6681 86.684 59.2192 86.619 58.7793C86.554 58.3395 86.3907 57.9199 86.141 57.5519Z" fill="#FAFAFA"/>
<path d="M29.1191 27.4291C28.5229 27.7595 26.9899 28.598 26.4075 28.9166C26.1658 29.0537 25.9651 29.2527 25.8259 29.4932C25.6868 29.7337 25.6142 30.0069 25.6158 30.2848C25.6174 30.5626 25.693 30.835 25.8349 31.0739C25.9768 31.3127 26.1798 31.5095 26.423 31.6438C26.423 31.6438 46.9929 42.7649 47.605 42.5991C47.9949 42.5905 48.3733 42.4652 48.6913 42.2394C49.0093 42.0137 49.2524 41.6978 49.3892 41.3325C49.5259 40.9673 49.5501 40.5694 49.4585 40.1903C49.367 39.8112 49.1639 39.4682 48.8756 39.2056C45.9172 36.6084 42.005 33.1826 39.0362 30.5747L42.4141 28.7153C42.6551 28.5751 42.8546 28.3734 42.9922 28.1309C43.1298 27.8884 43.2006 27.6137 43.1975 27.3349C43.1943 27.0561 43.1173 26.7831 42.9742 26.5438C42.8311 26.3045 42.6272 26.1074 42.3831 25.9726C40.4506 24.8256 36.6417 22.4945 34.7439 21.3705L37.7346 19.6815C37.9758 19.5383 38.1741 19.3329 38.3087 19.0868C38.4433 18.8407 38.5093 18.563 38.4998 18.2826C38.4903 18.0023 38.4056 17.7297 38.2546 17.4933C38.1036 17.2569 37.8919 17.0654 37.6415 16.9389L15.9171 6.44848C15.5274 6.26721 15.0857 6.23155 14.672 6.34797C14.2583 6.4644 13.8999 6.72519 13.662 7.08309C13.424 7.44098 13.3222 7.87229 13.3749 8.29883C13.4276 8.72536 13.6314 9.11889 13.9493 9.40809L23.7577 18.1164L21.0771 19.511C20.8372 19.6374 20.6345 19.8243 20.4891 20.0532C20.3437 20.2821 20.2606 20.545 20.2481 20.8159C20.2355 21.0868 20.294 21.3562 20.4177 21.5975C20.5413 21.8388 20.7259 22.0437 20.9531 22.1917C21.3519 22.4497 28.9357 27.3082 29.1191 27.4291Z" fill="#FAFAFA"/>
<path d="M34.589 39.4689C33.9896 42.4829 34.3705 45.6097 35.676 48.3917C36.9816 51.1736 39.1432 53.4647 41.8446 54.9297C44.546 56.3947 47.6454 56.9566 50.6892 56.5333C53.733 56.11 56.5614 54.7237 58.7605 52.5772C60.9596 50.4306 62.4141 47.6366 62.911 44.604C63.4078 41.5714 62.9211 38.4593 61.522 35.7232C60.1228 32.9871 57.8847 30.7707 55.1352 29.3981C52.3857 28.0256 49.269 27.5691 46.2414 28.0954C46.0437 29.3162 45.3693 30.4086 44.3666 31.1324L46.3654 32.8834C47.7938 32.5347 49.2826 32.5142 50.72 32.8234C52.1574 33.1326 53.506 33.7635 54.6646 34.6687C55.8233 35.5738 56.7618 36.7297 57.4096 38.0495C58.0575 39.3694 58.3979 40.8189 58.4053 42.2891C57.9405 55.4294 38.8461 54.9239 39.0207 41.8242L34.589 39.4689Z" fill="#FAFAFA"/>
<path d="M50.7954 44.5359C50.0238 45.1609 49.087 45.5479 48.0993 45.6497C47.1116 45.7516 46.1155 45.5638 45.2327 45.1093L42.2266 43.5132C42.4509 44.7038 42.9988 45.8097 43.8101 46.7094C44.6215 47.6092 45.6651 48.2681 46.8263 48.6138C47.9874 48.9596 49.2214 48.9788 50.3928 48.6695C51.5642 48.3601 52.6278 47.7341 53.4669 46.8601C54.3059 45.9861 54.888 44.8978 55.1494 43.7148C55.4107 42.5317 55.3411 41.2996 54.9483 40.1534C54.5555 39.0073 53.8546 37.9915 52.9225 37.2175C51.9904 36.4435 50.8631 35.9412 49.6643 35.7656L50.9194 36.8658C51.6633 37.5267 52.1965 38.3917 52.4527 39.3532C52.7089 40.3146 52.6769 41.3302 52.3605 42.2736L50.7954 44.5359Z" fill="#FAFAFA"/>
</svg>
