<svg width="101" height="100" viewBox="0 0 101 100" fill="none" xmlns="http://www.w3.org/2000/svg">
<path d="M62.3482 59.7532C62.8355 60.1899 63.114 60.8228 63.1014 61.4747C63.095 62.1329 62.8166 62.7278 62.3166 63.1519L62.2912 63.1709C59.0444 65.9051 56.8545 69.7975 56.1393 74.1329L52.3672 96.5633L46.8672 95.8228L51.1583 70.2152C51.69 67.0253 50.8229 63.8228 48.7849 61.424C47.9431 60.4304 47.6077 59.1329 47.8672 57.8544C48.3039 55.7215 50.3355 54.2595 52.4938 54.5253C53.095 54.6013 53.6647 54.7975 54.1773 55.1076C55.1267 55.6835 56.2153 55.9937 57.3292 56C57.8798 56.0063 58.4242 56.2215 58.8672 56.6139L62.3482 59.7532Z" fill="#FAFAFA"/>
<path d="M70.7221 48.576C71.0322 48.9874 71.0765 49.5 70.836 49.9557C70.5955 50.4114 70.1461 50.6583 69.6271 50.6266L63.4942 50.2279C62.836 50.1836 62.5385 49.7279 62.4373 49.5317C62.336 49.3355 62.1461 48.8228 62.5006 48.2658L65.1588 44.1329C65.3866 43.7785 65.7601 43.5633 66.1778 43.5507H66.2347C66.4373 43.5507 66.6271 43.595 66.798 43.6772C66.9689 43.7595 67.1208 43.8861 67.2474 44.0443C68.2917 45.4114 69.5702 47.076 70.7221 48.576Z" fill="#FAFAFA"/>
<path d="M58.6538 31.1646C60.5715 32.5253 61.1411 35.1772 59.9449 37.2025C59.6665 37.6772 59.312 38.0886 58.888 38.4304C57.4639 39.5886 56.4829 41.1393 56.0525 42.9241C55.926 43.4494 55.7044 43.9494 55.3943 44.4051C54.0779 46.3544 51.4386 46.981 49.388 45.8355C48.1665 45.1519 47.3373 43.9747 47.1095 42.6013C46.5336 39.1456 44.5525 36.1266 41.6728 34.3038L12.8184 16.1393L16.3184 11.0886L46.5715 30.1899C48.831 31.6139 51.6665 31.8101 54.1665 30.7089C55.6475 30.0506 57.3247 30.2215 58.6538 31.1646Z" fill="#FAFAFA"/>
<path d="M65.5263 27.4051C74.1845 32.7026 78.6592 42.9494 76.6655 52.9051L67.5136 98.6077L54.4946 96.8482L58.2541 74.4874C58.8934 70.652 60.8174 67.2216 63.6782 64.8102L63.7098 64.7849C64.6719 63.9621 65.2288 62.7659 65.2478 61.5001C65.2668 60.2216 64.7288 59.0064 63.7794 58.152L60.2858 55.0127C59.4567 54.2659 58.406 53.8545 57.3237 53.8482C56.6022 53.8418 55.8934 53.6393 55.2731 53.2659C54.501 52.7975 53.6465 52.5001 52.7351 52.3861C49.4756 51.9874 46.406 54.1963 45.7478 57.4178C45.3554 59.3482 45.8617 61.3102 47.1339 62.8102C48.7605 64.7279 49.4503 67.2912 49.0263 69.8545L44.7288 95.5317L34.1275 94.095C34.6402 92.4431 35.5643 89.3102 36.3744 85.6899C37.9946 78.4747 38.4313 72.8482 37.6782 68.9684C36.8237 64.5887 38.1149 59.8355 39.3427 56.6203C40.7035 53.076 42.2984 50.5633 42.3174 50.538C42.4883 50.2722 42.5326 49.9368 42.4377 49.633C42.3427 49.3292 42.1149 49.0823 41.8237 48.9621C28.2541 43.3798 19.0453 37.3292 13.7035 33.2406C9.3997 29.9368 6.85539 27.3418 5.83008 26.2216L11.5959 17.8988L40.5263 36.1076C42.887 37.6013 44.5136 40.0887 44.9883 42.9431C45.3237 44.9621 46.5453 46.6963 48.3364 47.7026C49.3554 48.2722 50.4756 48.5507 51.5832 48.5507C53.7541 48.5507 55.887 47.5064 57.1719 45.6076C57.6212 44.9368 57.9503 44.2026 58.1339 43.4304C58.4567 42.1076 59.1782 40.9621 60.2351 40.1013C60.8554 39.595 61.3807 38.9937 61.7921 38.2975C63.5516 35.3165 62.7162 31.4114 59.8934 29.4178C57.944 28.038 55.482 27.7912 53.2984 28.7532C51.4567 29.5633 49.3681 29.4304 47.7162 28.3861L17.5389 9.33549L23.0326 1.39246L65.5263 27.4051ZM72.7288 50.9684C73.3681 49.7659 73.2541 48.3545 72.425 47.2722C71.2731 45.7722 69.9946 44.1076 68.944 42.7406C68.2668 41.8608 67.1972 41.3608 66.0896 41.4051C64.9757 41.4494 63.9567 42.038 63.3554 42.9747L60.6972 47.1076C60.0326 48.1393 59.9693 49.4051 60.52 50.5001C61.0706 51.595 62.1275 52.2912 63.3554 52.3735L69.4883 52.7722C69.5643 52.7785 69.6465 52.7785 69.7225 52.7785C70.9883 52.7722 72.1275 52.095 72.7288 50.9684Z" fill="#FAFAFA"/>
<path d="M94.217 44.9051C94.8056 44.9684 95.236 45.4937 95.1727 46.0886C95.1157 46.6393 94.6474 47.0507 94.1094 47.0507C94.0714 47.0507 94.0335 47.0507 93.9955 47.0443L85.3056 46.1266C84.717 46.0633 84.2866 45.538 84.3499 44.9431C84.4132 44.3545 84.9385 43.9241 85.5335 43.9874L94.217 44.9051Z" fill="#FAFAFA"/>
<path d="M94.2861 35.1583C94.4759 35.7216 94.1721 36.3292 93.6089 36.5191L85.3177 39.2849C85.2038 39.3229 85.0899 39.3419 84.9759 39.3419C84.5266 39.3419 84.1089 39.0571 83.957 38.6077C83.7671 38.0444 84.0709 37.4368 84.6342 37.2469L92.9253 34.4811C93.4886 34.2912 94.0962 34.595 94.2861 35.1583Z" fill="#FAFAFA"/>
<path d="M89.8626 26.0443C90.2361 26.5064 90.1664 27.1836 89.7044 27.557L82.9069 33.0507C82.7107 33.2089 82.4702 33.2912 82.2297 33.2912C81.9196 33.2912 81.6095 33.1519 81.3943 32.8924C81.0209 32.4304 81.0905 31.7532 81.5525 31.3798L88.35 25.8861C88.812 25.5127 89.4892 25.5823 89.8626 26.0443Z" fill="#FAFAFA"/>
</svg>
