<svg width="88" height="86" viewBox="0 0 88 86" fill="none" xmlns="http://www.w3.org/2000/svg">
<path d="M71.5288 11.8124C71.2458 11.8474 70.9585 11.8103 70.6937 11.7043C70.4289 11.5984 70.1953 11.4272 70.0145 11.2067C68.0846 9.03303 65.6423 7.37583 62.9095 6.38555C60.1766 5.39526 57.2397 5.10325 54.3653 5.53603C54.1243 5.57565 53.8774 5.56219 53.6421 5.4966C53.4067 5.431 53.1885 5.31485 53.0027 5.15624C52.8168 4.99763 52.6678 4.80038 52.5661 4.57826C52.4643 4.35614 52.4122 4.11449 52.4135 3.87017V0H35.5865V3.87017C35.5872 4.11432 35.5348 4.35569 35.4328 4.57753C35.3309 4.79938 35.1819 4.99638 34.9962 5.15487C34.8104 5.31337 34.5925 5.42955 34.3574 5.49537C34.1223 5.56119 33.8756 5.57506 33.6346 5.53602C30.7611 5.12375 27.8303 5.42545 25.101 6.41444C22.3717 7.40344 19.9279 9.04931 17.9855 11.2067C17.8047 11.4272 17.5711 11.5984 17.3063 11.7043C17.0415 11.8103 16.7542 11.8474 16.4712 11.8124C5.44956 10.4159 1.10819 16.4567 0.25 17.887V53.4927C2.9788 52.9034 6.70244 51.5469 8.05767 49.0672C8.26761 48.8297 8.53842 48.654 8.84089 48.5591C9.14336 48.4642 9.46601 48.4537 9.774 48.5288C10.0383 48.601 10.2809 48.7369 10.4804 48.9247C10.6799 49.1124 10.8303 49.3463 10.9183 49.6058C11.6005 50.94 12.6552 52.0476 13.9545 52.7943C15.2537 53.541 16.7417 53.8947 18.238 53.8125C18.5048 53.7957 18.7715 53.8471 19.0129 53.9619C19.2543 54.0768 19.4625 54.2512 19.6178 54.4687C19.782 54.6805 19.8936 54.9282 19.9433 55.1914C19.993 55.4547 19.9795 55.726 19.9038 55.9831C19.8366 56.1683 18.524 61.048 23.7236 65.3221C24.0674 65.6062 24.2848 66.0149 24.328 66.4588C24.3712 66.9027 24.2367 67.3456 23.954 67.6906C23.6714 68.0355 23.2635 68.2545 22.8198 68.2994C22.3761 68.3443 21.9326 68.2116 21.5865 67.9303C19.9048 66.6812 18.5515 65.0424 17.6429 63.1549C16.7343 61.2673 16.2976 59.1874 16.3702 57.0938C14.6572 56.9024 13.0168 56.2959 11.5913 55.3269C12.7755 60.8769 14.7416 66.2308 17.4305 71.2282L19.7187 85.5817H42.3173V75.6538C42.3173 75.2075 42.4946 74.7795 42.8102 74.4639C43.1257 74.1484 43.5537 73.9711 44 73.9711C44.4463 73.9711 44.8743 74.1484 45.1898 74.4639C45.5054 74.7795 45.6827 75.2075 45.6827 75.6538V85.5817H68.2812L70.5697 71.2284C73.2567 66.23 75.2224 60.8763 76.4085 55.3268C74.9831 56.2959 73.3427 56.9024 71.6298 57.0937C71.7024 59.1873 71.2657 61.2673 70.3571 63.1548C69.4485 65.0424 68.0952 66.6811 66.4135 67.9302C66.1153 68.1776 65.7408 68.3143 65.3534 68.3172C65.0091 68.309 64.6753 68.1969 64.396 67.9955C64.1167 67.7941 63.9048 67.5128 63.7883 67.1888C63.6718 66.8647 63.6561 66.513 63.7432 66.1798C63.8304 65.8466 64.0163 65.5476 64.2766 65.3221C69.5433 60.9808 68.1131 56.0336 68.0963 55.983C68.0229 55.7273 68.0105 55.4579 68.0601 55.1964C68.1097 54.935 68.2199 54.6888 68.382 54.4778C68.544 54.2667 68.7532 54.0965 68.9929 53.981C69.2326 53.8654 69.4961 53.8077 69.7621 53.8124C71.2746 53.9033 72.78 53.5444 74.0887 52.7807C75.3973 52.0171 76.4505 50.883 77.1155 49.5216C77.2695 49.1471 77.5533 48.8407 77.9149 48.6584C78.2764 48.4761 78.6915 48.43 79.0842 48.5287C79.3034 48.5812 79.5092 48.6786 79.6888 48.8147C79.8684 48.9509 80.0178 49.1228 80.1275 49.3196C81.4875 51.6695 85.1729 52.9141 87.7501 53.4927V17.8702C86.8918 16.423 82.601 10.399 71.5288 11.8124ZM38.9182 25.4086C37.9581 29.2011 35.9034 32.6273 33.01 35.2603C30.1166 37.8933 26.5124 39.6169 22.6465 40.2162C22.2327 40.2074 21.8367 40.0464 21.5341 39.7641C21.2315 39.4818 21.0435 39.0979 21.0061 38.6857C20.9687 38.2735 21.0844 37.862 21.3312 37.5298C21.5779 37.1975 21.9385 36.9678 22.3439 36.8846C25.497 36.3595 28.4298 34.9305 30.7865 32.7709C33.1432 30.6113 34.8224 27.8141 35.6202 24.7188C35.7195 24.2893 35.9831 23.9158 36.3545 23.6784C36.7259 23.4409 37.1755 23.3585 37.607 23.4488C38.0385 23.539 38.4174 23.7948 38.6625 24.1611C38.9077 24.5275 38.9995 24.9754 38.9182 25.4086ZM45.6827 68.7211C45.6773 69.1638 45.4976 69.5866 45.1826 69.8978C44.8676 70.2089 44.4427 70.3834 44 70.3834C43.5572 70.3834 43.1323 70.2089 42.8173 69.8977C42.5023 69.5865 42.3227 69.1638 42.3173 68.721V57.0938C42.3173 56.8728 42.3608 56.654 42.4454 56.4498C42.53 56.2457 42.6539 56.0602 42.8102 55.9039C42.9664 55.7477 43.1519 55.6237 43.3561 55.5392C43.5602 55.4546 43.779 55.4111 44 55.4111C44.221 55.4111 44.4398 55.4546 44.6439 55.5392C44.8481 55.6237 45.0336 55.7477 45.1898 55.9039C45.3461 56.0602 45.47 56.2457 45.5546 56.4498C45.6392 56.654 45.6827 56.8728 45.6827 57.0938V68.7211ZM45.6827 50.1611C45.6773 50.6038 45.4976 51.0266 45.1827 51.3377C44.8677 51.6489 44.4428 51.8234 44 51.8234C43.5572 51.8234 43.1323 51.6489 42.8173 51.3377C42.5024 51.0266 42.3227 50.6038 42.3173 50.1611V38.5504C42.3173 38.1042 42.4946 37.6762 42.8102 37.3606C43.1257 37.045 43.5537 36.8677 44 36.8677C44.4463 36.8677 44.8743 37.045 45.1898 37.3606C45.5054 37.6762 45.6827 38.1042 45.6827 38.5504V50.1611ZM65.3534 40.2163C61.4874 39.617 57.8833 37.8935 54.9899 35.2604C52.0966 32.6273 50.0419 29.2011 49.0819 25.4086C48.9926 24.9713 49.0808 24.5164 49.3269 24.144C49.573 23.7717 49.957 23.5124 50.3943 23.4231C50.8316 23.3339 51.2865 23.422 51.6589 23.6681C52.0312 23.9142 52.2905 24.2982 52.3798 24.7355C53.1793 27.8283 54.8594 30.6226 57.2161 32.7792C59.5728 34.9358 62.5048 36.3619 65.6562 36.8846C66.0615 36.968 66.4219 37.1978 66.6686 37.53C66.9152 37.8622 67.0308 38.2737 66.9934 38.6858C66.9559 39.0979 66.768 39.4817 66.4655 39.764C66.163 40.0463 65.7671 40.2074 65.3534 40.2163Z" fill="#2F95FF"/>
</svg>
