<svg width="83" height="78" viewBox="0 0 83 78" fill="none" xmlns="http://www.w3.org/2000/svg">
<path d="M70.8179 29.0529C78.7298 27.1827 83.6274 19.252 81.7569 11.3391C79.8865 3.42632 71.9563 -1.47215 64.0444 0.398085C56.1325 2.26832 51.2349 10.1991 53.1053 18.1119C54.9758 26.0247 62.906 30.9232 70.8179 29.0529Z" fill="#2F95FF"/>
<path d="M59.2582 43.1927C61.7249 40.876 63.1416 37.576 63.1416 34.1426C63.1416 33.5094 63.0915 32.876 62.9915 32.2594C57.3749 30.826 52.8082 26.7593 50.6748 21.4426C48.6249 21.376 46.5415 21.8427 44.6083 22.8593L22.0749 25.3593C18.4082 25.7593 15.1915 27.976 13.4749 31.2593C11.7749 34.5427 11.8083 38.4259 13.5915 41.676L22.5416 58.026C20.0916 66.8593 19.6916 73.6259 19.6415 74.926C19.6249 75.376 19.7916 75.8093 20.0916 76.1259C20.3915 76.4593 20.8082 76.6426 21.2416 76.6593L43.2416 77.4594H43.2915C44.1749 77.4594 44.9082 76.7593 44.9582 75.876C45.0082 75.0427 46.2749 55.3926 59.2582 43.1927ZM27.9583 43.7927L25.8915 40.0093C25.4915 39.276 25.4749 38.4259 25.8583 37.6926C26.2416 36.9427 26.9415 36.476 27.7749 36.376L32.5082 35.8593C30.8416 38.3593 29.3249 41.0094 27.9583 43.7927Z" fill="#2F95FF"/>
<path d="M3.49747 46.9563C3.22403 47.8352 3.71394 48.7695 4.59285 49.0437L14.7344 52.2061C14.9005 52.2574 15.0665 52.2826 15.2309 52.2826C15.9421 52.2826 16.5997 51.8245 16.8227 51.1116C17.0961 50.2327 16.6062 49.2984 15.7273 49.0242L5.58569 45.8617C4.70352 45.5891 3.77253 46.079 3.49747 46.9563Z" fill="#2F95FF"/>
<path d="M18.4344 58.3585C17.8696 57.6326 16.8247 57.5016 16.0955 58.0655L6.81493 65.284C6.08902 65.8495 5.95718 66.8969 6.52359 67.6228C6.85236 68.0452 7.3439 68.2665 7.84032 68.2665C8.19676 68.2665 8.55809 68.1518 8.86245 67.9158L18.1431 60.6974C18.869 60.1318 19.0008 59.0844 18.4344 58.3585Z" fill="#2F95FF"/>
<path d="M11.7475 56.2914C11.466 55.4166 10.5236 54.9332 9.64955 55.2172L1.65638 57.7953C0.779103 58.0777 0.298959 59.0169 0.580535 59.8933C0.808399 60.5989 1.4627 61.0489 2.16745 61.0489C2.33672 61.0489 2.50925 61.0229 2.67852 60.9675L10.6717 58.3894C11.549 58.107 12.0291 57.1679 11.7475 56.2914Z" fill="#2F95FF"/>
</svg>
