<svg width="101" height="100" viewBox="0 0 101 100" fill="none" xmlns="http://www.w3.org/2000/svg">
<g clip-path="url(#clip0_282_683)">
<path d="M26.7012 7.80493H32.56V18.2921H26.7012V7.80493Z" fill="#FAFAFA"/>
<path d="M11.8711 15.5167L16.0133 11.3745L23.4277 18.7889L19.2855 22.9311L11.8711 15.5167Z" fill="#FAFAFA"/>
<path d="M8.30469 26.2012H18.7918V32.06H8.30469V26.2012Z" fill="#FAFAFA"/>
<path d="M68.4395 81.7081H74.2983V92.1953H68.4395V81.7081Z" fill="#FAFAFA"/>
<path d="M77.5508 81.2111L81.693 77.0689L89.1072 84.4831L84.965 88.6253L77.5508 81.2111Z" fill="#FAFAFA"/>
<path d="M82.207 67.9402H92.6942V73.799H82.207V67.9402Z" fill="#FAFAFA"/>
<path d="M32.0796 63.6618C34.2403 56.6013 37.8267 49.1992 43.7625 43.2634C49.6983 37.3277 57.1002 33.7415 64.1606 31.5805C64.8278 28.9171 65.3476 26.1234 65.7054 23.2493C66.3116 18.3774 67.8761 13.675 70.2542 9.43237C66.5356 11.4048 62.463 12.6989 58.2274 13.2258C49.1298 14.3577 36.2456 17.6017 27.1734 26.6741C18.1012 35.7466 14.8572 48.6309 13.7252 57.7283C13.1981 61.9641 11.9043 66.0365 9.93164 69.7553C14.1742 67.3771 18.8767 65.8127 23.7485 65.2066C26.6219 64.849 29.4158 64.3291 32.0796 63.6618Z" fill="#FAFAFA"/>
<path d="M70.5352 29.9625C72.64 29.5313 74.6567 29.2122 76.5264 28.9796C83.5312 28.108 90.1201 24.8969 95.0792 19.9378L100.499 14.5176L85.9816 0L80.5614 5.42021C75.6023 10.3793 72.3912 16.9682 71.5196 23.973C71.2661 26.0091 70.9353 28.0099 70.5352 29.9625Z" fill="#FAFAFA"/>
<path d="M91.0669 30.2446C86.8243 32.6229 82.1218 34.1872 77.25 34.7934C68.5325 35.8781 56.365 38.947 47.9058 47.4061C39.4465 55.8655 36.3776 68.033 35.2929 76.7505C34.6867 81.6225 33.1224 86.3248 30.7441 90.5674C34.4627 88.5949 38.5354 87.3009 42.7712 86.7738C51.8686 85.6419 64.7529 82.3979 73.8251 73.3254C82.8974 64.2532 86.1414 51.3689 87.2735 42.2715C87.8004 38.0359 89.0944 33.9634 91.0669 30.2446Z" fill="#FAFAFA"/>
<path d="M30.4625 70.0359C28.5095 70.436 26.5087 70.7671 24.4728 71.0204C17.468 71.892 10.8791 75.103 5.92001 80.0621L0.5 85.4823L15.0176 99.9999L20.4376 94.5799C25.3967 89.6208 28.6078 83.0322 29.4794 76.0271C29.7122 74.1576 30.0313 72.1408 30.4625 70.0359Z" fill="#FAFAFA"/>
</g>
<defs>
<clipPath id="clip0_282_683">
<rect width="100" height="100" fill="white" transform="translate(0.5)"/>
</clipPath>
</defs>
</svg>
