<svg width="100" height="100" viewBox="0 0 100 100" fill="none" xmlns="http://www.w3.org/2000/svg">
<path d="M40.1218 43.4125C40.089 43.3953 40.064 43.375 40.0249 43.3609C39.9827 43.3453 39.9312 43.3437 39.8859 43.3328C39.8062 43.3156 39.7296 43.2937 39.6343 43.3L19.3156 44.7531C19.0843 44.7703 18.8671 44.8656 18.7124 45.0203C18.5968 45.1359 18.4031 45.389 18.4327 45.7547C18.4687 46.3031 18.9343 46.7187 19.4562 46.6672L20.0702 46.6234C20.0702 46.6234 20.0843 46.6203 20.0906 46.6203L39.6437 45.2219C39.7406 45.2031 39.8374 45.1937 39.9374 45.1937C40.3296 45.1531 40.7015 44.7094 40.6609 44.1922C40.6609 44.1828 40.6609 44.1719 40.6609 44.1609C40.639 43.8031 40.4312 43.6047 40.3062 43.5172C40.2515 43.475 40.1874 43.4437 40.1234 43.4094L40.1218 43.4125Z" fill="#2F95FF"/>
<path d="M76.2238 61.7219C76.1301 61.7062 76.0348 61.7015 75.941 61.6797C75.6707 61.6172 75.4051 61.5297 75.1457 61.4109L56.6566 52.8469C56.4191 52.7437 56.1941 52.6031 55.977 52.4437C55.9113 52.3969 55.852 52.3406 55.7895 52.2891C55.7051 52.2187 55.616 52.1594 55.5363 52.0812C50.5816 50.1328 45.3535 48.8719 39.9895 48.3312C39.952 48.3344 39.9129 48.3359 39.877 48.3359L20.4535 49.7297C14.6785 51.2203 9.66914 53.7016 6.25195 56.7562V86.8844H93.7504V66.225C91.1457 65.9937 85.3848 65.1125 76.6582 61.7875C76.5113 61.7797 76.3691 61.7453 76.2238 61.7219ZM38.4645 53.4203C38.4129 53.4203 38.3598 53.4187 38.3066 53.4125C37.002 53.2812 36.2363 53.2672 36.1988 53.2672C35.3363 53.2547 34.6488 52.5469 34.6613 51.6844C34.6723 50.8234 35.3535 50.1391 36.241 50.1422C36.241 50.1422 37.1129 50.1516 38.6176 50.3031C39.477 50.3891 40.102 51.1547 40.0176 52.0141C39.9363 52.8187 39.2582 53.4203 38.4645 53.4203ZM79.8926 66.95C79.6973 67.6375 79.0723 68.0875 78.3895 68.0875C78.2488 68.0875 78.1051 68.0672 77.9645 68.0281C77.6191 67.9312 69.3832 65.5625 56.2941 58.7625C52.8457 56.9719 49.0895 55.5719 45.127 54.6031C44.2879 54.3984 43.7754 53.5531 43.9801 52.7141C44.1863 51.875 45.0426 51.3609 45.8691 51.5687C50.0738 52.5969 54.066 54.0844 57.7363 55.9906C70.5113 62.6281 78.7363 64.9984 78.8176 65.0219C79.6473 65.2578 80.1301 66.1219 79.8941 66.9515L79.8926 66.95Z" fill="#2F95FF"/>
<path d="M79.2126 54.3641C79.2783 54.4094 79.3314 54.4656 79.3939 54.5141C79.5142 54.6094 79.6392 54.7016 79.7486 54.8078C83.8345 53.3141 87.1845 50.25 89.0345 46.2703C90.8767 42.2906 91.0564 37.8313 89.5408 33.7141C88.0251 29.5969 84.997 26.3141 81.0142 24.4719C72.7829 20.6688 63.0033 24.2609 59.1986 32.475C57.3533 36.4422 57.1861 40.9719 58.7033 45.0656C59.1814 45.1047 59.6501 45.2297 60.0908 45.4391L78.5783 53.9953C78.8033 54.1016 79.0142 54.225 79.2126 54.3641ZM87.5923 34.0344C88.9501 37.25 89.6595 42.3125 85.3298 48.1672C85.0251 48.5813 84.5517 48.8 84.072 48.8C83.7501 48.8 83.4236 48.7016 83.1439 48.4938C82.4501 47.9797 82.3032 47.0016 82.8173 46.3078C85.5892 42.5578 86.2282 38.8359 84.7142 35.2469C84.3782 34.4516 84.7501 33.5359 85.5454 33.2C86.3392 32.8641 87.2564 33.2375 87.5923 34.0344ZM82.1579 29.4188C82.7329 28.7797 83.7157 28.7266 84.3579 29.2969C84.3579 29.2969 84.5986 29.5109 84.972 29.9203C85.5517 30.5594 85.5048 31.5484 84.8673 32.1281C84.5689 32.4 84.1907 32.5344 83.8157 32.5344C83.3923 32.5344 82.9673 32.3625 82.6595 32.0234C82.4376 31.7797 82.2907 31.6391 82.2642 31.6172C81.6314 31.0375 81.5814 30.0563 82.1579 29.4188Z" fill="#2F95FF"/>
<path d="M77.2547 56.8266L58.7656 48.2688C58.6469 48.2125 58.5203 48.1891 58.3953 48.1844C58.3 48.1813 58.2047 48.1844 58.1156 48.211C57.9297 48.2656 57.661 48.4031 57.5219 48.7156C57.3547 49.0844 57.3985 49.4719 57.6281 49.7453C57.7344 49.875 57.8281 49.9469 57.9344 49.9953L76.4516 58.5719C76.5985 58.6391 76.7422 58.6625 76.8906 58.6641C77.2641 58.6516 77.5781 58.4375 77.7391 58.0953C77.8985 57.7547 77.8063 57.4531 77.7391 57.3031C77.6438 57.0906 77.4766 56.9313 77.2547 56.8266Z" fill="#2F95FF"/>
<path d="M44.833 28.386C44.219 19.7422 36.9846 13.1188 28.4424 13.1188C28.0518 13.1188 27.6612 13.1328 27.2658 13.161C18.233 13.8157 11.4033 21.6891 12.0424 30.7094C12.3612 35.0969 14.408 39.15 17.7033 41.986C17.8643 41.9141 18.0346 41.8625 18.2049 41.8125C18.2612 41.7953 18.3127 41.7703 18.369 41.7563C18.6018 41.6969 18.8408 41.6578 19.0862 41.6391L39.4049 40.186C39.783 40.1563 40.1596 40.1985 40.5268 40.275C40.6315 40.2969 40.7393 40.3078 40.8424 40.3375C43.7034 37.0422 45.1502 32.7469 44.8346 28.3891L44.833 28.386ZM34.3487 18.0063C34.1268 18.6547 33.5205 19.0625 32.8721 19.0625C32.7049 19.0625 32.533 19.0344 32.3643 18.9766C32.058 18.8703 31.8612 18.8203 31.8284 18.8141C30.994 18.6141 30.4783 17.7782 30.6721 16.9422C30.8643 16.1063 31.6987 15.5875 32.5362 15.7703C32.5362 15.7703 32.8533 15.8406 33.3799 16.0219C34.194 16.3016 34.6299 17.1891 34.3487 18.0063ZM39.4127 31.4094C40.0268 26.786 38.7877 23.2188 35.7268 20.8094C35.0487 20.275 34.933 19.2922 35.4674 18.6156C36.0002 17.9391 36.983 17.8188 37.6612 18.3547C40.4018 20.5141 43.469 24.6031 42.5112 31.8219C42.408 32.6063 41.7362 33.1781 40.9643 33.1781C40.8955 33.1781 40.8268 33.1735 40.7565 33.1641C39.9018 33.05 39.2971 32.2656 39.4127 31.4094Z" fill="#2F95FF"/>
</svg>
