<svg width="100" height="100" viewBox="0 0 100 100" fill="none" xmlns="http://www.w3.org/2000/svg">
<path d="M16.4924 47.3599C16.6594 48.085 17.0763 48.7281 17.67 49.1767L34.7271 62.2135C35.0074 62.4225 35.34 62.55 35.6882 62.5817C36.0364 62.6134 36.3866 62.5482 36.7 62.3932C37.0135 62.2383 37.2779 61.9996 37.4641 61.7037C37.6503 61.4077 37.751 61.066 37.755 60.7164C37.7627 60.2966 37.6261 59.8869 37.3681 59.5557L29.1423 49.1935C27.8101 49.3513 26.468 48.993 25.3918 48.1921C24.3156 47.3912 23.5869 46.2086 23.3556 44.8871L21.9259 36.2071C21.8906 35.9884 21.8986 35.7649 21.9497 35.5493C22.0007 35.3337 22.0937 35.1303 22.2234 34.9507C22.353 34.7711 22.5168 34.6187 22.7053 34.5024C22.8938 34.3861 23.1034 34.308 23.3221 34.2726C23.5408 34.2373 23.7643 34.2454 23.9799 34.2964C24.1954 34.3474 24.3988 34.4404 24.5785 34.5701C24.7581 34.6997 24.9104 34.8635 25.0268 35.052C25.1431 35.2405 25.2212 35.4501 25.2565 35.6688L26.6696 44.3319C26.7536 44.7781 26.9995 45.1775 27.36 45.4534C27.7206 45.7294 28.1704 45.8624 28.623 45.827C29.0756 45.7915 29.4992 45.5901 29.8124 45.2614C30.1256 44.9327 30.3063 44.4999 30.3199 44.0461C30.3231 43.9449 30.3175 43.8435 30.3031 43.7433L29.092 36.2911C28.9634 35.4602 26.9385 33.3632 26.5182 32.6409L21.4716 26.1309C21.3505 25.9546 21.2052 25.8105 21.0847 25.6262C20.1103 24.3584 19.4529 22.8763 19.167 21.303L17.3166 10.9577C17.2818 10.7504 17.2061 10.552 17.0939 10.3743C16.9816 10.1965 16.8351 10.0429 16.6629 9.92229C16.4906 9.80172 16.2961 9.71666 16.0907 9.67205C15.8852 9.62744 15.6729 9.62418 15.4662 9.66246L9.37676 10.7222C9.16148 10.7601 8.95624 10.8416 8.77369 10.9619C8.59115 11.0821 8.43517 11.2384 8.31539 11.4213C8.1956 11.6041 8.11454 11.8096 8.07722 12.0249C8.03989 12.2403 8.04708 12.461 8.09835 12.6735L16.4924 47.3599Z" fill="#2F95FF"/>
<path d="M71.5743 36.5154C71.2816 37.322 71.1008 38.165 71.0371 39.0207C70.8425 40.639 70.6478 42.2574 70.453 43.8758C70.3357 44.8511 70.3875 46.1214 71.3124 46.453C71.6242 46.5311 71.9528 46.5073 72.25 46.385C72.5473 46.2628 72.7976 46.0486 72.9643 45.7738C73.2854 45.2164 73.4804 44.5953 73.5356 43.9545C73.9136 41.582 74.2917 39.2095 74.6698 36.8369C74.7304 36.1887 74.9177 35.5587 75.2212 34.9828C75.3554 34.68 75.586 34.4301 75.8771 34.272C76.1681 34.1139 76.5033 34.0565 76.8303 34.1087C77.1574 34.1609 77.458 34.3198 77.6854 34.5606C77.9128 34.8014 78.0541 35.1107 78.0875 35.4402C78.1957 36.0785 78.1781 36.7317 78.0358 37.3632L77.1594 42.8919C77.0102 44.6651 76.4678 46.3829 75.5717 47.9203C75.1057 48.6775 74.4061 49.2625 73.5784 49.5871C72.7507 49.9117 71.8399 49.9582 70.9834 49.7197C68.9228 52.149 63.6297 58.3946 63.3226 59.2373C63.0107 60.0928 63.1407 62.6399 64.5811 62.4557C65.0133 62.3613 65.4141 62.1578 65.7455 61.8647C70.926 58.0047 76.1066 54.1445 81.2871 50.2844C82.086 49.7623 82.7807 49.0959 83.3356 48.3194C83.7413 47.5795 84.0223 46.7777 84.1673 45.9463C86.7059 34.9622 89.2445 23.978 91.7831 12.9937C91.8214 12.8281 91.859 12.6572 91.8857 12.4854C91.9754 12.0893 91.928 11.6744 91.7513 11.3087C91.5309 11.0351 91.2525 10.8137 90.9363 10.6605C90.6201 10.5073 90.2739 10.4261 89.9225 10.4226C88.3411 10.1808 86.7596 9.93896 85.1782 9.69717C84.6023 9.53441 83.9858 9.60006 83.457 9.88047C83.0187 10.3023 82.7632 10.8791 82.7452 11.4872C82.2769 14.4821 81.8087 17.4771 81.3405 20.4721C81.1901 21.7911 80.8752 23.086 80.403 24.3268C79.8046 25.5676 79.0475 26.7254 78.1508 27.7711C76.4178 29.9778 74.6848 32.1844 72.9518 34.3912C72.3988 35.0338 71.9354 35.7483 71.5743 36.5154Z" fill="#2F95FF"/>
<path d="M62.8702 7.89611C58.3217 5.66872 50.9409 6.36661 45.998 6.26447C40.8311 6.27147 35.8347 8.11387 31.9001 11.463C27.9655 14.8121 25.3488 19.4501 24.5166 24.5496L27.9317 28.9741C33.3821 21.0364 53.1154 11.4269 62.8702 7.89611Z" fill="#2F95FF"/>
<path d="M72.3071 29.7812L76.1592 24.7515C75.7212 21.7743 74.6623 18.9224 73.051 16.3809C71.4397 13.8394 69.3121 11.665 66.8063 9.99878C63.6607 11.1764 58.7991 13.0772 53.5508 15.5164C57.7344 15.7829 61.7462 17.2788 65.083 19.8166C68.4197 22.3543 70.9328 25.8208 72.3071 29.7812Z" fill="#2F95FF"/>
<path d="M39.9923 57.4529C40.6914 58.3235 41.0871 59.3985 41.1193 60.5145C45.5435 62.6509 52.9956 64.9049 59.7915 60.666C59.6712 59.9083 59.714 59.1337 59.9171 58.394C60.1202 57.6542 60.4788 56.9664 60.9691 56.3763L68.0173 48.0159C67.2179 46.9832 66.85 45.6808 66.9911 44.3825L67.9837 36.5267C68.2137 35.2664 68.8106 34.1019 69.6995 33.1792C68.9054 29.1502 66.7403 25.5206 63.5723 22.9077C60.4043 20.2948 56.4291 18.8599 52.3226 18.847H46.8724C38.5624 23.3217 32.9104 27.6617 30.0674 31.7494C31.1803 32.8684 31.9907 34.2517 32.4225 35.7697L33.6169 43.1882C33.7454 43.9925 33.6846 44.8157 33.4393 45.5925C33.194 46.3692 32.771 47.0781 32.2038 47.6627L39.9923 57.4529Z" fill="#2F95FF"/>
<path d="M84.6032 92.3243C84.8192 83.937 74.1477 77.6098 64.7704 75.4859C63.2759 75.1828 61.932 74.3725 60.9664 73.1923C60.0008 72.0121 59.4726 70.5344 59.4715 69.0095V64.6694C56.9147 65.8502 54.1292 66.4533 51.313 66.4358C47.437 66.3596 43.6225 65.4533 40.1265 63.7779C39.994 63.9828 39.8419 64.1744 39.6723 64.3499V69.9852C39.677 71.4491 39.1932 72.8728 38.2974 74.0307C37.4017 75.1886 36.1452 76.0145 34.7269 76.3775C27.7948 78.2427 15.6477 81.6147 15.9874 91.315V93.7374H84.6032V92.3243Z" fill="#2F95FF"/>
</svg>
