<svg width="100" height="101" viewBox="0 0 100 101" fill="none" xmlns="http://www.w3.org/2000/svg">
<g clip-path="url(#clip0_26_160)">
<path d="M96.9788 99.0131H3.02163C1.40682 99.0131 0.0976562 97.7039 0.0976562 96.0891C0.0976562 89.6296 5.33411 84.3932 11.7936 84.3932H88.2068C94.6663 84.3932 99.9027 89.6296 99.9027 96.0891C99.9027 97.7039 98.5936 99.0131 96.9788 99.0131Z" fill="#FAFAFA" stroke="#FAFAFA" stroke-width="0.998051" stroke-miterlimit="10"/>
<path d="M10.8189 78.5452C4.90721 78.5452 0.0976562 73.7356 0.0976562 67.8239C0.0976562 61.9122 4.90721 57.1027 10.8189 57.1027C16.7306 57.1027 21.5402 61.9122 21.5402 67.8239C21.5402 73.7356 16.7306 78.5452 10.8189 78.5452Z" fill="#FAFAFA" stroke="#FAFAFA" stroke-width="0.998051" stroke-miterlimit="10"/>
<path d="M77.7559 59.9563V61.0013H86.5284V54.8916L77.7559 59.9563Z" fill="#FAFAFA" stroke="#FAFAFA" stroke-width="0.998051" stroke-miterlimit="10"/>
<path d="M94.0543 66.8493H71.9075V56.5801L85.761 48.5818C88.5204 46.9886 89.604 43.4781 88.0871 40.676C86.5132 37.7686 82.8627 36.7499 80.0183 38.392L63.1366 48.1386C61.2623 49.2208 60.2387 51.1849 60.237 53.204H60.2118V61.0013H29.142C28.0882 61.0013 27.0779 61.1875 26.1419 61.5282C26.9428 63.4705 27.3877 65.5959 27.3877 67.8239C27.3877 71.3009 26.3089 74.5294 24.4717 77.1972C25.8243 78.0501 27.4249 78.5452 29.142 78.5452H93.9327C97.1192 78.5452 99.8128 76.0467 99.8999 72.8616C99.9906 69.5567 97.3387 66.8493 94.0543 66.8493Z" fill="#FAFAFA" stroke="#FAFAFA" stroke-width="0.998051" stroke-miterlimit="10"/>
<path d="M77.0476 28.1356C75.1928 26.9536 73.1725 26.0869 71.0608 25.5563C67.8776 28.7832 63.4571 30.7869 58.577 30.7869C53.6359 30.7869 49.1659 28.7327 45.9743 25.4344C36.831 27.4818 29.998 35.6458 29.998 45.4068V49.3054C29.998 52.5352 32.6162 55.1534 35.846 55.1534H37.7953H51.4402C53.055 55.1534 54.3641 53.8442 54.3641 52.2294V52.2282C54.3641 50.614 53.0556 49.3054 51.4413 49.3054H41.694C40.0791 49.3054 38.77 47.9962 38.77 46.3814V40.6161C38.77 39.0417 39.9799 37.6869 41.5526 37.6128C43.2318 37.5337 44.6179 38.8717 44.6179 40.5335V43.4574H51.4402C53.6359 43.4574 55.6442 44.2703 57.1846 45.6083C58.0329 44.6089 59.0505 43.7456 60.2131 43.0742L77.0947 33.3276L80.7864 31.1962C79.6698 30.0391 78.4177 29.0091 77.0476 28.1356Z" fill="#FAFAFA" stroke="#FAFAFA" stroke-width="0.998051" stroke-miterlimit="10"/>
<path d="M58.5768 24.9389C52.1276 24.9389 46.8809 19.6921 46.8809 13.243C46.8809 6.7939 52.1276 1.54712 58.5768 1.54712C65.0259 1.54712 70.2727 6.7939 70.2727 13.243C70.2727 19.6921 65.0259 24.9389 58.5768 24.9389Z" fill="#FAFAFA" stroke="#FAFAFA" stroke-width="0.998051" stroke-miterlimit="10"/>
</g>
<defs>
<clipPath id="clip0_26_160">
<rect width="100" height="100" fill="white" transform="translate(0 0.280029)"/>
</clipPath>
</defs>
</svg>
