<svg width="101" height="101" viewBox="0 0 101 101" fill="none" xmlns="http://www.w3.org/2000/svg">
<g clip-path="url(#clip0_2_276)">
<path d="M95.1808 55.0673C93.3051 55.0673 91.6788 56.1522 90.8941 57.7269H78.8086C79.7736 55.5061 80.2873 53.0898 80.2873 50.6183V32.324C80.2873 29.9604 78.4243 27.9941 76.1343 27.9406C73.7355 27.8855 71.7765 29.8116 71.7765 32.1947V50.3481C71.7765 51.523 70.8237 52.4757 69.6488 52.4757C68.4739 52.4757 67.5212 51.523 67.5212 50.3481C67.5212 46.0385 67.5212 22.6416 67.5212 17.3012H84.511C85.2957 18.8759 86.922 19.9608 88.7977 19.9608C91.4373 19.9608 93.5849 17.8132 93.5849 15.1736C93.5849 12.534 91.4373 10.3863 88.7977 10.3863C86.922 10.3863 85.2957 11.4712 84.511 13.0459H67.5212V10.9183C67.5212 8.56826 65.6161 6.66297 63.2659 6.66297C60.9194 6.66297 59.0106 8.57199 59.0106 10.9183V30.0673C59.0106 31.2424 58.0579 32.1949 56.883 32.1949C55.7081 32.1949 54.7553 31.2424 54.7553 30.0673C54.7553 27.8998 54.7553 7.97219 54.7553 4.53532C54.7553 2.18905 52.8465 0.280029 50.5 0.280029C48.1536 0.280029 46.2447 2.18905 46.2447 4.53532V30.0673C46.2447 31.2424 45.292 32.1949 44.1171 32.1949C42.9422 32.1949 41.9894 31.2424 41.9894 30.0673V10.9183C41.9894 8.57199 40.0806 6.66297 37.7341 6.66297C35.3877 6.66297 33.4788 8.57199 33.4788 10.9183V30.0673C33.4788 31.2424 32.5261 32.1949 31.3512 32.1949C30.1763 32.1949 29.2236 31.2424 29.2236 30.0673V17.4304C29.2236 15.0669 27.3606 13.1006 25.0706 13.0471C22.6467 12.9916 20.7128 14.9447 20.7128 17.3012V42.8332H10.1059C9.3212 41.2585 7.69492 40.1736 5.81924 40.1736C3.17963 40.1736 1.03198 42.3212 1.03198 44.9608C1.03198 47.6004 3.17963 49.7481 5.81924 49.7481C7.69492 49.7481 9.3212 48.6632 10.1059 47.0885H20.7128V51.131C20.7128 55.0426 22.0583 58.8791 24.5018 61.934C24.5145 61.9498 24.5261 61.9663 24.5387 61.9822H12.2336C11.4488 60.4075 9.82257 59.3226 7.94688 59.3226C5.30728 59.3226 3.15963 61.4702 3.15963 64.1098C3.15963 66.7494 5.30728 68.8971 7.94688 68.8971C9.82257 68.8971 11.4488 67.8122 12.2336 66.2375H27.1779C28.5341 69.1265 29.2234 72.2585 29.2234 75.3928V85.3863H18.6165C17.8318 83.8116 16.2055 82.7267 14.3298 82.7267C11.6902 82.7267 9.54257 84.8743 9.54257 87.514C9.54257 90.1536 11.6902 92.3012 14.3298 92.3012C16.2055 92.3012 17.8318 91.2163 18.6165 89.6416H29.2234V96.0245C29.2234 98.371 31.1322 100.28 33.4786 100.28H67.5212C69.8677 100.28 71.7765 98.371 71.7765 96.0245V81.131H82.3834C83.1681 82.7057 84.7943 83.7906 86.67 83.7906C89.3096 83.7906 91.4573 81.643 91.4573 79.0034C91.4573 76.3638 89.3096 74.2161 86.67 74.2161C84.7943 74.2161 83.1681 75.301 82.3834 76.8757H71.7765C71.8839 76.1204 70.9251 69.0216 76.2183 61.9822H90.8941C91.6788 63.5569 93.3051 64.6418 95.1808 64.6418C97.8204 64.6418 99.9681 62.4941 99.9681 59.8545C99.9681 57.2147 97.8206 55.0673 95.1808 55.0673Z" fill="#FAFAFA"/>
</g>
<defs>
<clipPath id="clip0_2_276">
<rect width="100" height="100" fill="white" transform="translate(0.5 0.280029)"/>
</clipPath>
</defs>
</svg>
