<svg width="101" height="101" viewBox="0 0 101 101" fill="none" xmlns="http://www.w3.org/2000/svg">
<g clip-path="url(#clip0_2_268)">
<path d="M31.7582 65.8809C31.7582 64.7152 30.7349 63.7694 29.4715 63.7694C28.2081 63.7694 27.1848 64.7152 27.1848 65.8809C27.1848 67.0474 28.2081 67.9924 29.4715 67.9924C30.7349 67.9924 31.7582 67.0474 31.7582 65.8809Z" fill="#FAFAFA"/>
<path d="M29.4715 48.7766C28.2107 48.7766 27.1848 49.7233 27.1848 50.8881C27.1848 52.0521 28.2107 52.9996 29.4715 52.9996C30.7323 52.9996 31.759 52.0521 31.759 50.8881C31.759 49.7233 30.7323 48.7766 29.4715 48.7766Z" fill="#FAFAFA"/>
<path d="M31.7582 35.8953C31.7582 34.7288 30.7349 33.7838 29.4715 33.7838C28.2081 33.7838 27.1848 34.7288 27.1848 35.8953C27.1848 37.061 28.2081 38.0068 29.4715 38.0068C30.7349 38.0068 31.7582 37.061 31.7582 35.8953Z" fill="#FAFAFA"/>
<path d="M79.2439 3.03772C67.5047 3.03772 57.9882 12.5542 57.989 24.2934C57.989 36.0326 67.5055 45.5491 79.2447 45.5491C90.9839 45.5491 100.5 36.0326 100.5 24.2934C100.487 12.5601 90.978 3.0512 79.2439 3.03772ZM79.1453 22.7732C82.7973 22.774 85.8513 25.5484 86.2 29.1835C86.5487 32.8195 84.0784 36.1244 80.4929 36.8184V38.8061C80.4929 39.6399 79.8174 40.3154 78.9836 40.3154C78.1498 40.3154 77.4743 39.6399 77.4743 38.8061V36.7477C74.2982 35.9737 72.0621 33.1302 72.0578 29.8615C72.0578 29.0277 72.7333 28.3522 73.5672 28.3522C74.4001 28.3522 75.0765 29.0277 75.0765 29.8615C75.0765 32.1086 76.8982 33.9304 79.1453 33.9304C81.3924 33.9304 83.2142 32.1086 83.2142 29.8615C83.2142 27.6135 81.3924 25.7918 79.1453 25.7918C75.5565 25.7918 72.5346 23.1092 72.1084 19.5465C71.6822 15.983 73.9866 12.6637 77.4743 11.8173V9.9138C77.4743 9.08082 78.1498 8.4045 78.9836 8.4045C79.8174 8.4045 80.4929 9.08082 80.4929 9.9138V11.7465C83.8232 12.3959 86.2286 15.3117 86.2328 18.7043C86.2328 19.5381 85.5573 20.2136 84.7235 20.2136C83.8905 20.2136 83.2142 19.5381 83.2142 18.7043C83.2117 16.485 81.4312 14.6758 79.211 14.6388C79.1361 14.6506 79.0603 14.6573 78.9836 14.6573C78.9365 14.6573 78.8901 14.6548 78.8438 14.6506C76.6624 14.8131 74.9998 16.6711 75.0815 18.8576C75.1624 21.0432 76.958 22.7732 79.1462 22.7732H79.1453Z" fill="#FAFAFA"/>
<path d="M54.8845 96.9791C52.3713 94.4827 50.9571 91.0867 50.9538 87.5443V81.4978H0.5V87.5695C0.525267 93.2682 5.14918 97.8769 10.8478 97.8845H55.9062C55.5364 97.6175 55.1936 97.3143 54.8845 96.9791Z" fill="#FAFAFA"/>
<path d="M58.8237 37.2968H40.5436C39.7098 37.2968 39.0343 36.6213 39.0343 35.7875C39.0343 34.9545 39.7098 34.2782 40.5436 34.2782H57.1695C55.7108 31.1164 54.9603 27.6742 54.9704 24.1915C54.9755 22.5095 55.1498 20.8326 55.4909 19.1852H14.8712L14.472 78.4791H52.5406C52.9246 78.464 53.2969 78.6088 53.5689 78.88C53.841 79.1512 53.9867 79.5235 53.9724 79.9076V87.5459C54.0002 93.2571 58.6325 97.8743 64.3438 97.8844H64.3774C70.0668 97.8726 74.6713 93.258 74.6713 87.5695V48.1356C68.1077 46.8925 62.362 42.9634 58.8237 37.2968ZM29.4715 71.0118C26.5464 71.0118 24.1662 68.7099 24.1662 65.8809C24.1662 63.0526 26.5464 60.7507 29.4715 60.7507C32.3966 60.7507 34.7776 63.0526 34.7776 65.8809C34.7776 68.7099 32.3975 71.0118 29.4715 71.0118ZM29.4715 56.0182C26.5464 56.0182 24.1662 53.7172 24.1662 50.8881C24.1662 48.059 26.5464 45.758 29.4715 45.758C32.3966 45.758 34.7776 48.059 34.7776 50.8881C34.7776 53.7163 32.3975 56.0182 29.4715 56.0182ZM29.4715 41.0254C26.5464 41.0254 24.1662 38.7235 24.1662 35.8953C24.1662 33.0662 26.5464 30.7643 29.4715 30.7643C32.3966 30.7643 34.7776 33.0654 34.7776 35.8945C34.7776 38.7235 32.3975 41.0254 29.4715 41.0254ZM63.5403 67.4828H40.5436C39.7098 67.4828 39.0343 66.8073 39.0343 65.9735C39.0343 65.1405 39.7098 64.4642 40.5436 64.4642H63.5403C64.3741 64.4642 65.0496 65.1405 65.0496 65.9735C65.0496 66.8073 64.3741 67.4828 63.5403 67.4828ZM65.0496 50.8805C65.0496 51.7143 64.3741 52.3898 63.5403 52.3898H40.5436C39.7098 52.3898 39.0343 51.7143 39.0343 50.8805C39.0343 50.0475 39.7098 49.3712 40.5436 49.3712H63.5403C64.3741 49.3712 65.0496 50.0475 65.0496 50.8805Z" fill="#FAFAFA"/>
</g>
<defs>
<clipPath id="clip0_2_268">
<rect width="100" height="100" fill="white" transform="translate(0.5 0.280029)"/>
</clipPath>
</defs>
</svg>
