<svg width="100" height="101" viewBox="0 0 100 101" fill="none" xmlns="http://www.w3.org/2000/svg">
<path fill-rule="evenodd" clip-rule="evenodd" d="M43.4658 94.8781C43.4658 97.3055 41.4947 99.2998 39.0445 99.2998C36.6172 99.2998 34.6232 97.3055 34.6232 94.8781V37.1115C34.6232 34.3234 32.3394 32.041 29.5764 32.041H14.0777C11.6264 32.041 9.63202 30.0707 9.63202 27.6193C9.63202 25.1924 11.6264 23.198 14.0777 23.198H41.9998C42.7451 22.7895 43.1045 21.9006 43.1289 20.5549C40.5578 18.0791 39.4764 14.3793 40.0535 7.74746C40.342 3.68594 43.6336 1.64355 46.9021 1.64355C50.1939 1.64355 53.4619 3.68594 53.7744 7.74746C54.3271 14.3793 53.2461 18.0791 50.675 20.5549C50.699 21.9008 51.0592 22.7895 51.8041 23.198H79.75C82.1773 23.198 84.1713 25.1924 84.1713 27.6193C84.1713 30.0707 82.1773 32.041 79.75 32.041H64.2271C61.8238 32.041 59.7814 33.7709 59.3004 36.0537C56.225 36.6545 53.2697 37.8318 50.5785 39.5617C45.1238 43.0945 41.3027 48.6209 39.9572 54.9887C38.5873 61.3572 39.8135 67.965 43.3459 73.4437L43.4656 73.6115V94.8781H43.4658ZM74.7764 18.9684C74.7764 19.6412 74.2472 20.1943 73.5744 20.1943C72.8775 20.1943 72.3492 19.6412 72.3492 18.9684V13.923H67.3027C66.6299 13.923 66.0775 13.3699 66.0775 12.6971C66.0775 12.0246 66.6299 11.4723 67.3027 11.4723H73.5744C74.2472 11.4723 74.7764 12.0246 74.7764 12.6971V18.9684ZM19.0273 59.7471C19.0273 59.0746 19.5805 58.5455 20.2533 58.5455C20.9265 58.5455 21.4545 59.0746 21.4545 59.7471V64.7924H26.5014C27.1734 64.7924 27.7262 65.3459 27.7262 66.0188C27.7262 66.6912 27.1734 67.2439 26.5014 67.2439H20.2533C19.5805 67.2439 19.0273 66.6912 19.0273 66.0188V59.7471ZM21.4547 18.9684C21.4547 19.6412 20.9267 20.1943 20.2535 20.1943C19.5807 20.1943 19.0275 19.6412 19.0275 18.9684V12.6971C19.0275 12.0246 19.5807 11.4723 20.2535 11.4723H26.5016C27.1736 11.4723 27.7264 12.0246 27.7264 12.6971C27.7264 13.3699 27.1736 13.923 26.5016 13.923H21.4547V18.9684ZM76.6265 85.2902L77.4678 84.7379L75.4726 81.6857C76.0734 81.3736 76.651 81.0373 77.2269 80.6523C77.8037 80.2922 78.3568 79.9074 78.8848 79.4996L80.8551 82.551L81.6963 81.9986L89.8902 94.6383C90.7795 96.0314 90.3953 97.9057 89.001 98.8187C87.6078 99.708 85.7336 99.3234 84.8209 97.9299L76.6265 85.2902ZM51.9002 41.6049C62.1361 34.9723 75.7855 37.9039 82.3937 48.117C89.0256 58.3293 86.118 71.9775 75.906 78.6105C65.6685 85.2424 52.0199 82.3107 45.4121 72.0988C38.7795 61.8853 41.6877 48.2371 51.9002 41.6049ZM65.9816 43.1906C75.3287 44.3445 81.9613 52.8506 80.807 62.1744C79.6539 71.5215 71.1723 78.1535 61.824 77.0242C52.4773 75.8711 45.8443 67.3639 46.9986 58.0412C48.1514 48.6926 56.6338 42.0613 65.9816 43.1906ZM53.8699 62.7504C53.39 62.2945 53.366 61.5252 53.8463 61.0445C54.3029 60.5643 55.0963 60.5402 55.5762 61.0205L60.214 65.5143L72.1808 52.1289C72.6371 51.625 73.406 51.5773 73.8871 52.0336C74.3914 52.4906 74.4398 53.2592 73.9832 53.7398L61.199 68.0373C61.175 68.0613 61.1506 68.1094 61.1269 68.133C60.6707 68.6141 59.9017 68.6141 59.4211 68.157L53.8699 62.7504ZM59.1808 84.1367V94.8781C59.1808 97.3055 57.1865 99.2998 54.7592 99.2998C52.3326 99.2998 50.3379 97.3055 50.3379 94.8781V80.5082C52.8609 82.1904 55.7445 83.4158 58.7963 84.065C58.9164 84.0887 59.0607 84.1131 59.1808 84.1367Z" fill="#FAFAFA"/>
</svg>
