<svg width="100" height="100" viewBox="0 0 100 100" fill="none" xmlns="http://www.w3.org/2000/svg">
<path d="M75.7187 77.2188L68.3125 78.125L26.0625 83.2188L19.1562 26.3438L18.0625 17.4063L28.125 16.1875V77.2188H75.7187Z" fill="#2F95FF"/>
<path d="M69.5 84.6875L18.75 93.75L7.0625 28.5L16.0625 26.9062L23.3438 86.6875L68.6875 81.2188L68.875 81.1875L69.5 84.6875Z" fill="#2F95FF"/>
<path d="M66.8438 7.8125H31.25V74.0938H82.8125V23.7813L66.8438 7.8125ZM71.875 65.625H43.75C42.8875 65.625 42.1875 64.925 42.1875 64.0625C42.1875 63.2 42.8875 62.5 43.75 62.5H71.875C72.7375 62.5 73.4375 63.2 73.4375 64.0625C73.4375 64.925 72.7375 65.625 71.875 65.625ZM71.875 50H43.75C42.8875 50 42.1875 49.3 42.1875 48.4375C42.1875 47.575 42.8875 46.875 43.75 46.875H71.875C72.7375 46.875 73.4375 47.575 73.4375 48.4375C73.4375 49.3 72.7375 50 71.875 50ZM71.875 34.375H43.75C42.8875 34.375 42.1875 33.675 42.1875 32.8125C42.1875 31.95 42.8875 31.25 43.75 31.25H71.875C72.7375 31.25 73.4375 31.95 73.4375 32.8125C73.4375 33.675 72.7375 34.375 71.875 34.375Z" fill="#2F95FF"/>
</svg>
