<svg width="101" height="100" viewBox="0 0 101 100" fill="none" xmlns="http://www.w3.org/2000/svg">
<path d="M63.8815 8.04779C64.7084 11.419 63.8702 15.1077 61.5202 17.6898C59.209 20.2293 55.6419 21.3621 52.2916 20.5909C48.9537 19.8226 46.2098 17.3094 44.9844 14.1334C43.7205 10.8577 44.0965 7.05341 46.114 4.15941C48.0774 1.34299 51.4426 -0.275958 54.8737 0.038842C58.2591 0.349539 61.2792 2.48097 62.8832 5.45143C63.3252 6.26976 63.66 7.14479 63.8815 8.04779Z" fill="#FAFAFA"/>
<path d="M64.0791 43.4805C65.6142 44.5003 67.7008 44.3839 69.1135 43.2012C69.4248 42.9404 69.7099 42.6434 70.0029 42.3627C71.4562 40.9711 72.9094 39.5795 74.3627 38.188C76.0113 36.6094 77.6601 35.0307 79.3087 33.4522C79.7779 33.003 80.247 32.5537 80.7162 32.1045C81.4071 31.4428 81.9222 30.6688 82.0781 29.7035C82.3631 27.9382 81.376 26.1568 79.7197 25.4746C78.3611 24.915 76.7985 25.1828 75.6816 26.1268C74.4153 27.1973 73.149 28.2679 71.8827 29.3384C70.2496 30.719 68.6167 32.0996 66.9836 33.4802C66.8144 33.6233 66.6453 33.7663 66.4761 33.9093C66.4099 33.9653 66.4207 33.9722 66.3568 33.9168C65.9901 33.5998 65.6235 33.2827 65.257 32.9657C63.6431 31.57 62.029 30.1741 60.4151 28.7784C58.7132 27.3065 57.0112 25.8346 55.3091 24.3628C54.8324 23.9506 54.3559 23.5385 53.8793 23.1263C53.8058 23.0629 53.7325 22.9993 53.659 22.9359C52.8485 22.2349 51.8689 21.8084 50.8236 21.6023C49.782 21.397 48.7087 21.3194 47.6524 21.449C47.4074 21.479 47.1664 21.5309 46.9221 21.5637C46.4757 21.6237 46.0292 21.6838 45.5827 21.7436C43.6647 22.0016 41.7464 22.2593 39.8283 22.5172C37.4089 22.8425 34.9896 23.1677 32.5702 23.4928C30.6885 23.7457 28.8066 23.9987 26.9249 24.2516C26.5103 24.3074 26.0955 24.3631 25.681 24.4189C25.5034 24.4428 25.3255 24.4635 25.1483 24.4898C24.3065 24.6143 23.5119 24.9998 22.8903 25.5806C22.1353 26.2859 21.7404 27.1984 21.5748 28.2008C21.4755 28.8015 21.3763 29.402 21.2771 30.0027C20.9116 32.2162 20.5461 34.4295 20.1803 36.643C19.8351 38.7326 19.4901 40.8223 19.1449 42.9119C19.0713 43.3578 18.9976 43.8039 18.9239 44.2498C18.6942 45.6407 19.2233 47.0757 20.3234 47.9649C21.6894 49.0692 23.6845 49.1026 25.0929 48.0584C25.7791 47.5498 26.285 46.8195 26.5192 45.9982C26.5647 45.8385 26.5987 45.6752 26.6354 45.5133C27.0528 43.6793 27.4702 41.8455 27.8875 40.0116C28.3534 37.9643 28.8194 35.9169 29.2853 33.8698C29.3334 33.6581 29.3817 33.4463 29.4298 33.2346C29.4526 33.1343 29.4435 33.1438 29.5475 33.1419C30.2383 33.1298 30.9289 33.1177 31.6196 33.1056C33.9159 33.0653 36.2122 33.025 38.5085 32.9845L40.0381 32.9577C40.2293 32.9543 40.4628 32.9058 40.6655 32.8736C41.0336 32.815 41.401 32.7531 41.7684 32.6904C42.5733 32.5532 43.3775 32.4114 44.1816 32.2701C44.2704 32.2544 44.3594 32.2389 44.4481 32.2233C44.3269 32.393 44.1009 32.5049 43.9245 32.6046C43.6 32.7881 43.2613 32.947 42.9209 33.0985C42.0793 33.4729 41.2141 33.801 40.3358 34.079C40.2362 34.1106 40.1364 34.1413 40.0363 34.1712C39.907 34.2096 39.9324 34.2721 39.9201 34.3991C39.8981 34.6253 39.8748 34.8515 39.8505 35.0775C39.7996 35.5508 39.744 36.0238 39.6849 36.4962C39.5536 37.5441 39.4052 38.5899 39.2409 39.6332C38.9042 41.7717 38.4949 43.8977 37.9998 46.0055C37.6704 47.4073 37.2689 48.7878 36.8808 50.1741C36.6266 51.0826 36.4099 52.0033 36.1203 52.9001C35.889 53.6157 35.7822 54.365 35.7937 55.1164C35.7995 55.4974 35.8053 55.8782 35.8113 56.2592C35.8409 58.1928 35.8704 60.1263 35.9 62.0597C35.9371 64.4824 35.9741 66.9052 36.0112 69.3281C36.036 70.9526 36.0608 72.5772 36.0858 74.2017C36.0882 74.3621 36.1318 74.5531 36.0543 74.698C35.8588 75.0639 35.6634 75.4298 35.4679 75.7957C34.5741 77.4691 33.68 79.1423 32.7862 80.8157C31.6353 82.9699 30.4845 85.1242 29.3334 87.2784C28.422 88.9843 27.5108 90.6901 26.5994 92.396C26.3887 92.7904 26.1781 93.1847 25.9674 93.5791C25.4391 94.5681 25.2587 95.6852 25.5409 96.7806C25.9792 98.4831 27.4651 99.777 29.2129 99.9736C30.7603 100.148 32.3093 99.4493 33.2069 98.1782L34.8987 95.7819C36.1393 94.0248 37.3799 92.2679 38.6204 90.5107C40.023 88.5242 41.4256 86.5375 42.8282 84.551C43.8784 83.0635 44.9285 81.5762 45.9787 80.0888C46.2109 79.76 46.4429 79.4312 46.675 79.1024C46.8731 78.8219 47.0473 78.5269 47.1827 78.2106C47.4583 77.567 47.5215 76.9008 47.5805 76.2136C47.7015 74.8019 47.8225 73.3903 47.9436 71.9785C48.1427 69.6563 48.3417 67.3343 48.5409 65.0123C48.5957 64.372 48.6507 63.7316 48.7056 63.0914C48.7097 63.044 48.7138 62.9965 48.7177 62.9491C48.7201 62.9213 47.9708 62.7744 47.89 62.7548C47.0115 62.5422 46.1387 62.2897 45.29 61.9777C45.0216 61.879 44.7543 61.7748 44.497 61.6498C44.3525 61.5797 44.1785 61.5025 44.0712 61.3777C44.9476 61.4514 45.8239 61.5265 46.7006 61.5965C47.1124 61.6293 47.5243 61.6616 47.9365 61.6892C48.0821 61.6989 48.228 61.7084 48.3738 61.7155C48.5484 61.724 48.6515 61.7611 48.8121 61.846C48.8203 61.7498 48.7951 61.7328 48.8758 61.7361C48.9463 61.7391 49.0168 61.7419 49.0875 61.7449C49.3678 61.7565 49.6481 61.7682 49.9282 61.7798C50.8939 61.8199 51.8595 61.86 52.8252 61.9001C55.1638 61.9972 57.5025 62.0944 59.8411 62.1916C60.5208 62.2197 61.2004 62.2481 61.8802 62.2762C61.9063 62.2774 62.0919 62.2688 62.0915 62.2971C62.09 62.4295 62.0887 62.5619 62.0872 62.6945C62.0674 64.5242 62.0477 66.3537 62.0279 68.1834C62.0029 70.5052 61.9777 72.8269 61.9527 75.1487C61.9453 75.8326 61.938 76.5167 61.9305 77.2005C61.9207 78.111 62.0611 78.9821 62.5393 79.778C63.4279 81.2575 65.1651 82.0758 66.8724 81.8146C68.5427 81.5589 69.944 80.2997 70.3735 78.6652C70.4699 78.298 70.5115 77.9133 70.5676 77.5381C70.6679 76.8658 70.7683 76.1933 70.8686 75.521C71.1916 73.3569 71.5146 71.193 71.8376 69.029C72.1892 66.6732 72.5409 64.3174 72.8924 61.9616C73.1114 60.4947 73.3303 59.0275 73.5492 57.5606C73.6569 56.8403 73.6968 56.1244 73.5515 55.4025C73.2236 53.7723 72.12 52.3539 70.6198 51.6364C69.8431 51.2649 69.015 51.1605 68.1747 51.0438C67.5048 50.9507 66.8351 50.8576 66.1652 50.7646C63.8483 50.4427 61.5314 50.1206 59.2145 49.7987C57.7956 49.6016 56.3768 49.4045 54.9579 49.2074C54.9568 49.2072 54.9557 49.207 54.9546 49.2068C55.2737 47.1613 55.5521 45.1096 55.8464 43.0604C56.1209 41.1492 56.2503 39.2276 56.2929 37.3037C56.3186 36.1407 56.3277 34.9774 56.341 33.814C56.4713 33.9498 56.5362 34.1632 56.5976 34.3358C56.7089 34.6493 56.7958 34.9716 56.876 35.2942C57.081 36.1187 57.2374 36.957 57.3561 37.7983C57.4114 38.1914 57.4583 38.5864 57.4862 38.9825C57.4957 39.1185 57.49 39.106 57.5894 39.172C57.8573 39.3499 58.1253 39.5278 58.3933 39.7055C60.1162 40.8493 61.8392 41.9929 63.562 43.1366C63.7349 43.251 63.907 43.3657 64.0791 43.4805Z" fill="#FAFAFA"/>
</svg>
