<svg width="101" height="100" viewBox="0 0 101 100" fill="none" xmlns="http://www.w3.org/2000/svg">
<path fill-rule="evenodd" clip-rule="evenodd" d="M50.3954 12.2142C55.7676 12.2142 60.1291 16.5757 60.1291 21.9477C60.1291 27.3199 55.7676 31.6814 50.3954 31.6814C45.0233 31.6814 40.6619 27.3199 40.6619 21.9477C40.6619 16.5757 45.0233 12.2142 50.3954 12.2142ZM50.0548 67.1695L50.0531 67.1689L44.3286 89.1752C43.745 91.4189 41.5788 92.874 39.2811 92.5659L38.506 92.462C37.3005 92.3004 36.2088 91.6665 35.4705 90.6999C34.7325 89.7332 34.4086 88.5128 34.5701 87.3075L38.047 61.3742V47.8365L20.2531 30.2483C18.7454 28.7581 18.7313 26.3281 20.2215 24.8204L20.3382 24.7024C21.8284 23.1948 24.2584 23.1806 25.766 24.6708L36.8568 35.6334H63.5652L74.656 24.6708C76.1637 23.1806 78.5937 23.1948 80.0838 24.7024L80.2005 24.8204C81.6907 26.3281 81.6766 28.7581 80.1689 30.2483L62.375 47.8365V61.3742L65.8519 87.3075C66.0135 88.5128 65.6895 89.7332 64.9515 90.6999C64.2135 91.6665 63.1215 92.3004 61.916 92.462L61.1409 92.5659C58.8433 92.874 56.677 91.4189 56.0935 89.1752L50.3689 67.1689L50.3672 67.1695H50.0548ZM77.9737 8.76574C77.9737 8.00809 78.5888 7.39319 79.3462 7.39319C80.1039 7.39319 80.7188 8.00809 80.7188 8.76574V15.4471C80.7188 16.2046 80.1039 16.8197 79.3462 16.8197C78.5888 16.8197 77.9737 16.2046 77.9737 15.4471V8.76574ZM69.0515 11.892C68.6727 11.2359 68.8978 10.3957 69.5538 10.0169C70.2099 9.63829 71.0499 9.86338 71.4288 10.5195L74.7695 16.3057C75.1482 16.9616 74.9231 17.8018 74.267 18.1806C73.6111 18.5595 72.7709 18.3342 72.3921 17.6783L69.0515 11.892ZM62.8876 19.0604C62.2315 18.6816 62.0064 17.8416 62.3852 17.1855C62.764 16.5295 63.604 16.3044 64.2601 16.6832L70.0464 20.024C70.7025 20.4026 70.9276 21.2428 70.549 21.8989C70.1701 22.5548 69.3299 22.7801 68.6739 22.4012L62.8876 19.0604ZM87.2637 10.5195C87.6425 9.86338 88.4827 9.63829 89.1387 10.0169C89.7946 10.3957 90.0197 11.2359 89.6411 11.892L86.3003 17.6783C85.9215 18.3342 85.0815 18.5595 84.4254 18.1806C83.7693 17.8018 83.5442 16.9616 83.9231 16.3057L87.2637 10.5195ZM94.4323 16.6832C95.0884 16.3044 95.9286 16.5295 96.3072 17.1855C96.686 17.8416 96.4609 18.6816 95.8048 19.0604L90.0186 22.4012C89.3625 22.7801 88.5223 22.5548 88.1437 21.8989C87.7648 21.2428 87.9899 20.4026 88.646 20.024L94.4323 16.6832ZM97.5586 25.6053C98.316 25.6053 98.9311 26.2204 98.9311 26.9779C98.9311 27.7355 98.316 28.3504 97.5586 28.3504H90.8772C90.1195 28.3504 89.5046 27.7355 89.5046 26.9779C89.5046 26.2204 90.1195 25.6053 90.8772 25.6053H97.5586ZM95.8048 34.8955C96.4609 35.2742 96.686 36.1144 96.3072 36.7704C95.9286 37.4265 95.0884 37.6516 94.4323 37.2728L88.646 33.932C87.9899 33.5534 87.7648 32.7132 88.1437 32.0571C88.5223 31.401 89.3625 31.1759 90.0186 31.5548L95.8048 34.8955ZM89.6411 42.064C90.0197 42.7201 89.7946 43.5602 89.1387 43.9391C88.4827 44.3177 87.6425 44.0926 87.2637 43.4365L83.9231 37.6502C83.5442 36.9942 83.7693 36.1542 84.4254 35.7753C85.0815 35.3965 85.9215 35.6216 86.3003 36.2777L89.6411 42.064ZM20.2807 8.76574C20.2807 8.00809 20.8956 7.39319 21.6533 7.39319C22.4107 7.39319 23.0258 8.00809 23.0258 8.76574V15.4471C23.0258 16.2046 22.4107 16.8197 21.6533 16.8197C20.8956 16.8197 20.2807 16.2046 20.2807 15.4471V8.76574ZM29.5707 10.5195C29.9495 9.86338 30.7895 9.63829 31.4456 10.0169C32.1017 10.3957 32.3268 11.2359 31.948 11.892L28.6074 17.6783C28.2286 18.3342 27.3884 18.5595 26.7325 18.1806C26.0764 17.8018 25.8513 16.9616 26.2299 16.3057L29.5707 10.5195ZM36.7393 16.6832C37.3954 16.3044 38.2354 16.5295 38.6142 17.1855C38.9931 17.8416 38.768 18.6816 38.1119 19.0604L32.3256 22.4012C31.6695 22.7801 30.8293 22.5548 30.4505 21.8989C30.0719 21.2428 30.297 20.4026 30.9531 20.024L36.7393 16.6832ZM11.3584 11.892C10.9797 11.2359 11.2048 10.3957 11.8607 10.0169C12.5168 9.63829 13.357 9.86338 13.7358 10.5195L17.0764 16.3057C17.4552 16.9616 17.2301 17.8018 16.574 18.1806C15.918 18.5595 15.078 18.3342 14.6991 17.6783L11.3584 11.892ZM5.19463 19.0604C4.53856 18.6816 4.31346 17.8416 4.69228 17.1855C5.07091 16.5295 5.9111 16.3044 6.56718 16.6832L12.3535 20.024C13.0095 20.4026 13.2346 21.2428 12.8558 21.8989C12.4772 22.5548 11.637 22.7801 10.9809 22.4012L5.19463 19.0604ZM3.44091 28.3504C2.68346 28.3504 2.06836 27.7355 2.06836 26.9779C2.06836 26.2204 2.68346 25.6053 3.44091 25.6053H10.1223C10.8799 25.6053 11.4948 26.2204 11.4948 26.9779C11.4948 27.7355 10.8799 28.3504 10.1223 28.3504H3.44091ZM6.56718 37.2728C5.9111 37.6516 5.07091 37.4265 4.69228 36.7704C4.31346 36.1144 4.53856 35.2742 5.19463 34.8955L10.9809 31.5548C11.637 31.1759 12.4772 31.401 12.8558 32.0571C13.2346 32.7132 13.0095 33.5534 12.3535 33.932L6.56718 37.2728ZM13.7358 43.4365C13.357 44.0926 12.5168 44.3177 11.8607 43.9391C11.2048 43.5602 10.9797 42.7201 11.3584 42.064L14.6991 36.2777C15.078 35.6216 15.918 35.3965 16.574 35.7753C17.2301 36.1542 17.4552 36.9942 17.0764 37.6502L13.7358 43.4365Z" fill="#FAFAFA"/>
</svg>
