<svg width="101" height="100" viewBox="0 0 101 100" fill="none" xmlns="http://www.w3.org/2000/svg">
<g clip-path="url(#clip0_282_1337)">
<path d="M31.3449 22.4516H62.1996C63.0103 22.4516 63.6674 21.7944 63.6674 20.9836C63.6674 20.1728 63.0103 19.5156 62.1996 19.5156H31.3449C30.5342 19.5156 29.877 20.1728 29.877 20.9836C29.877 21.7944 30.5342 22.4516 31.3449 22.4516Z" fill="#FAFAFA"/>
<path d="M3.74924 36.8047H34.6037C35.4144 36.8047 36.0717 36.1474 36.0717 35.3367C36.0717 34.5259 35.4144 33.8689 34.6037 33.8689H3.74924C2.93847 33.8689 2.28125 34.5259 2.28125 35.3367C2.28125 36.1474 2.93847 36.8047 3.74924 36.8047Z" fill="#FAFAFA"/>
<path d="M12.0332 51.9083C12.0332 52.7191 12.6904 53.3765 13.5012 53.3765H44.3556C45.1664 53.3765 45.8236 52.7191 45.8236 51.9083C45.8236 51.0976 45.1664 50.4406 44.3556 50.4406H13.5012C12.6904 50.4406 12.0332 51.0976 12.0332 51.9083Z" fill="#FAFAFA"/>
<path d="M29.6909 68.9695H1.96799C1.15722 68.9695 0.5 69.6265 0.5 70.4373C0.5 71.248 1.15722 71.9053 1.96799 71.9053H29.6909C30.5016 71.9053 31.1589 71.248 31.1589 70.4373C31.1589 69.6265 30.5016 68.9695 29.6909 68.9695Z" fill="#FAFAFA"/>
<path d="M79.574 31.6554C84.002 31.6554 87.5917 28.0653 87.5917 23.6371C87.5917 19.2089 84.0017 15.619 79.574 15.619C75.145 15.619 71.5547 19.2091 71.5547 23.6371C71.5545 28.0653 75.1448 31.6554 79.574 31.6554Z" fill="#FAFAFA"/>
<path d="M92.7626 29.3465C88.1586 35.7956 81.9934 36.5424 75.3593 32.604C74.9077 32.3362 72.904 31.2323 72.4604 30.9687C61.788 24.633 51.1281 27.1176 43.9793 37.1289C40.9414 41.3869 47.9675 45.4229 50.9713 41.2145C54.665 36.042 59.3617 34.5453 64.4983 36.1836C61.8682 40.7489 59.5687 45.2866 56.324 51.7333C53.0785 58.1801 45.9128 63.3284 39.0275 59.3019C34.0594 56.3981 29.5792 63.5353 34.5323 66.43C43.9323 71.9238 54.954 68.5503 60.5806 61.409C60.7758 61.5134 60.982 61.6075 61.2083 61.6866C65.8048 63.288 71.8301 67.5516 73.666 69.0626C75.5014 70.5737 78.6548 78.2713 80.5275 82.139C82.7993 86.8321 90.136 83.4139 87.8558 78.701C85.733 74.3128 82.1699 65.5547 79.3908 63.3389C77.1614 61.5618 72.8333 58.2543 69.1624 56.378C71.646 51.5675 74.2318 46.8089 76.954 42.1325C85.6311 44.7911 93.8788 41.6593 99.7528 33.4311C102.793 29.1737 95.7687 25.1377 92.7626 29.3465Z" fill="#FAFAFA"/>
</g>
<defs>
<clipPath id="clip0_282_1337">
<rect width="100" height="100" fill="white" transform="translate(0.5)"/>
</clipPath>
</defs>
</svg>
