<svg width="101" height="100" viewBox="0 0 101 100" fill="none" xmlns="http://www.w3.org/2000/svg">
<path fill-rule="evenodd" clip-rule="evenodd" d="M14.0539 35.6989C14.0495 37.3191 14.4188 38.9184 15.1331 40.3726C15.8475 41.8268 16.8875 43.0967 18.1725 44.0835C18.3141 44.1929 18.4328 44.3291 18.5219 44.4844C18.6109 44.6397 18.6684 44.811 18.6912 44.9885C18.714 45.166 18.7016 45.3463 18.6548 45.5191C18.6079 45.6918 18.5275 45.8536 18.4181 45.9953C18.3087 46.137 18.1724 46.2557 18.0171 46.3447C17.8619 46.4337 17.6906 46.4912 17.513 46.514C17.3355 46.5369 17.1552 46.5245 16.9825 46.4776C16.8097 46.4307 16.6479 46.3503 16.5063 46.2409C14.8749 44.9806 13.5572 43.36 12.6561 41.5059C10.2943 43.6545 8.86499 46.6404 8.67265 49.8275C8.48031 53.0145 9.54016 56.1507 11.6264 58.5677C13.0336 57.1527 14.7068 56.0301 16.5497 55.2645C18.3926 54.4988 20.3687 54.1053 22.3643 54.1065C22.7269 54.1065 23.0746 54.2506 23.331 54.507C23.5874 54.7634 23.7314 55.1111 23.7314 55.4737C23.7314 55.8363 23.5874 56.1841 23.331 56.4405C23.0746 56.6969 22.7269 56.8409 22.3643 56.8409C20.3225 56.8418 18.3124 57.346 16.512 58.309C14.7116 59.2719 13.1763 60.6638 12.0421 62.3615C10.9078 64.0593 10.2096 66.0104 10.0092 68.0423C9.80879 70.0742 10.1124 72.1242 10.8931 74.0108C11.6739 75.8974 12.9076 77.5624 14.4853 78.8585C16.0629 80.1546 17.9357 81.0418 19.938 81.4416C21.9402 81.8413 24.0102 81.7413 25.9645 81.1503C27.9189 80.5594 29.6975 79.4958 31.1428 78.0536C31.3992 77.7986 31.7464 77.656 32.108 77.657C32.4696 77.658 32.8159 77.8027 33.0709 78.0591C33.3259 78.3155 33.4685 78.6627 33.4675 79.0243C33.4665 79.3859 33.3218 79.7322 33.0654 79.9872C30.6182 82.4311 27.4085 83.9641 23.9695 84.3315C23.8413 85.7933 24.0184 87.2657 24.4896 88.6554C24.9608 90.0451 25.7158 91.3216 26.7066 92.4039C27.6975 93.4862 28.9026 94.3506 30.2453 94.9424C31.5881 95.5341 33.0393 95.8401 34.5066 95.8411C40.2736 95.8411 45.0824 91.0296 45.0824 85.2651V25.0161C45.0824 19.3487 40.1812 14.4401 34.5066 14.4401C32.1584 14.4399 29.8767 15.2207 28.0209 16.6596C26.1651 18.0985 24.8405 20.1137 24.2557 22.388C26.082 22.3347 27.8998 22.6587 29.5953 23.3398C31.2908 24.0208 32.8275 25.0443 34.1096 26.3462C34.3631 26.604 34.5039 26.9519 34.5008 27.3135C34.4978 27.675 34.3513 28.0206 34.0936 28.2741C33.8358 28.5276 33.4878 28.6684 33.1263 28.6654C32.7647 28.6624 32.4192 28.5159 32.1656 28.2581C30.69 26.7664 28.8043 25.7468 26.748 25.329C24.6917 24.9111 22.5577 25.1137 20.6168 25.9112C18.676 26.7086 17.0159 28.0648 15.8473 29.8076C14.6788 31.5504 14.0546 33.6012 14.0539 35.6995V35.6989ZM78.7701 19.8559L83.3209 4.41004C83.3336 4.36664 83.3309 4.32015 83.3132 4.27852C83.2955 4.23689 83.2639 4.2027 83.2238 4.18179C83.1837 4.16087 83.1375 4.15454 83.0933 4.16386C83.049 4.17318 83.0093 4.19758 82.981 4.2329L64.0777 27.8479C64.0547 27.8767 64.0403 27.9113 64.0361 27.9478C64.032 27.9844 64.0382 28.0214 64.0541 28.0545C64.07 28.0877 64.095 28.1157 64.1261 28.1353C64.1573 28.1549 64.1933 28.1653 64.2301 28.1653H77.3019C77.3323 28.1653 77.3623 28.1724 77.3895 28.186C77.4167 28.1996 77.4403 28.2194 77.4585 28.2438C77.4767 28.2681 77.4889 28.2964 77.4942 28.3263C77.4996 28.3562 77.4979 28.387 77.4893 28.4161L72.9068 43.8784C72.894 43.9218 72.8966 43.9684 72.9143 44.01C72.932 44.0517 72.9636 44.086 73.0038 44.1069C73.0439 44.1279 73.0901 44.1342 73.1344 44.1249C73.1787 44.1156 73.2184 44.0911 73.2467 44.0557L92.1437 20.4229C92.1667 20.3942 92.1811 20.3596 92.1852 20.323C92.1893 20.2865 92.1831 20.2495 92.1671 20.2164C92.1512 20.1833 92.1262 20.1553 92.0951 20.1357C92.064 20.1162 92.028 20.1058 91.9912 20.1057H78.9574C78.927 20.1058 78.8971 20.0987 78.8699 20.0851C78.8427 20.0715 78.8191 20.0518 78.8009 20.0274C78.7827 20.0031 78.7704 19.9749 78.765 19.945C78.7596 19.9151 78.7613 19.8843 78.7699 19.8552L78.7701 19.8559ZM78.6363 56.8409C80.6781 56.8418 82.6882 57.346 84.4886 58.3089C86.2891 59.2718 87.8244 60.6637 88.9586 62.3614C90.0929 64.0591 90.7912 66.0103 90.9916 68.0422C91.192 70.0741 90.8884 72.1241 90.1077 74.0107C89.327 75.8973 88.0932 77.5624 86.5155 78.8585C84.9379 80.1546 83.0651 81.0418 81.0628 81.4415C79.0606 81.8413 76.9907 81.7413 75.0363 81.1503C73.0819 80.5594 71.3033 79.4958 69.858 78.0536C69.731 77.9274 69.5805 77.8274 69.4148 77.7593C69.2492 77.6913 69.0718 77.6565 68.8928 77.657C68.7138 77.6575 68.5366 77.6933 68.3714 77.7623C68.2061 77.8313 68.0561 77.9321 67.9299 78.0591C67.8036 78.186 67.7036 78.3366 67.6356 78.5022C67.5675 78.6678 67.5328 78.8452 67.5333 79.0243C67.5338 79.2033 67.5696 79.3805 67.6385 79.5457C67.7075 79.7109 67.8084 79.861 67.9353 79.9872C70.3825 82.4311 73.5923 83.9641 77.0312 84.3315C77.1601 85.7934 76.9834 87.2661 76.5124 88.656C76.0415 90.046 75.2865 91.3227 74.2955 92.4051C73.3045 93.4876 72.0992 94.352 70.7562 94.9435C69.4131 95.5351 67.9617 95.8407 66.4941 95.8411C60.7271 95.8411 55.9184 91.0296 55.9184 85.2651V25.0161C55.9184 19.3487 60.8195 14.4401 66.4941 14.4401C67.9169 14.4381 69.3253 14.7237 70.6348 15.28L61.9434 26.1393C61.5997 26.5706 61.3846 27.09 61.3228 27.6379C61.2609 28.1858 61.3548 28.7401 61.5936 29.2371C61.8325 29.7341 62.2066 30.1537 62.6731 30.4477C63.1395 30.7418 63.6794 30.8984 64.2309 30.8995H73.9021L70.2855 43.1014C69.3783 46.1624 73.3885 48.2577 75.3832 45.7634L86.3168 32.0915C87.0795 34.2022 87.1527 36.5005 86.5261 38.6555C85.8994 40.8105 84.6051 42.7111 82.8295 44.0837C82.6878 44.1931 82.5691 44.3293 82.4801 44.4846C82.3911 44.6399 82.3335 44.8112 82.3107 44.9887C82.2879 45.1662 82.3003 45.3465 82.3472 45.5193C82.394 45.692 82.4745 45.8538 82.5839 45.9955C82.6933 46.1371 82.8295 46.2559 82.9848 46.3449C83.1401 46.4339 83.3114 46.4914 83.4889 46.5142C83.6665 46.5371 83.8467 46.5247 84.0195 46.4778C84.1922 46.4309 84.354 46.3505 84.4957 46.2411C86.1269 44.9807 87.4447 43.3601 88.3459 41.5061C90.7076 43.6547 92.137 46.6406 92.3293 49.8277C92.5216 53.0147 91.4618 56.1509 89.3756 58.5679C87.9685 57.1526 86.2953 56.0298 84.4524 55.2641C82.6094 54.4985 80.6332 54.1051 78.6375 54.1067C78.2749 54.1067 77.9271 54.2508 77.6707 54.5072C77.4144 54.7636 77.2703 55.1113 77.2703 55.4739C77.2703 55.8365 77.4144 56.1843 77.6707 56.4407C77.9271 56.6971 78.2749 56.8411 78.6375 56.8411L78.6363 56.8409Z" fill="#2F95FF"/>
</svg>
