<svg width="100" height="100" viewBox="0 0 100 100" fill="none" xmlns="http://www.w3.org/2000/svg">
<path fill-rule="evenodd" clip-rule="evenodd" d="M59.3284 71.6785C57.07 67.6907 56.8665 65.7579 55.7068 61.3225C55.015 58.7386 56.4799 57.3754 57.9245 56.9685C60.1422 56.3581 63.1737 57.6602 63.8858 60.2848C64.0689 60.9563 64.4962 62.0142 64.9642 63.1333C65.839 65.2696 66.4698 66.8973 66.6529 68.0977C67.0598 68.1791 67.4464 68.2808 67.7922 68.3825C67.9143 66.4903 67.9347 64.6185 67.955 62.645C68.016 57.0499 68.1788 52.0651 69.9896 46.7752C71.2714 43.0112 71.4952 38.2299 70.6 34.0183C69.5827 29.2981 67.2429 25.6358 64.0079 23.7436C60.9967 21.9736 57.0903 20.7325 53.7536 20.1424C48.6875 19.2269 43.4179 19.41 39.9184 21.2818C34.3436 24.2726 36.2765 36.765 38.0262 41.3428C38.1279 41.6277 38.25 41.9125 38.3518 42.1974C38.6162 41.8515 38.9011 41.4649 39.1859 41.0783C39.9184 40.1221 40.6101 39.2065 40.956 38.5961C42.3395 36.2564 45.5949 35.7884 47.5684 36.9481C48.8706 37.7009 49.9082 39.41 48.5857 41.7294C46.3884 45.5544 45.5542 47.589 42.4006 50.8037C42.014 51.1902 41.5867 51.6378 41.0578 52.1668C41.953 57.823 41.5867 63.3571 39.837 70.0509C38.3924 75.5646 39.0028 81.7091 41.3833 85.7375C42.9499 88.3622 45.1676 90.0509 48.0364 90.763C53.5094 92.1262 57.7414 91.1902 60.9967 87.8739C60.9967 84.1709 61.9937 76.8871 60.7322 74.2218C60.1829 73.2045 59.7149 72.35 59.3284 71.6785ZM52.3294 37.3957C50.5186 34.8322 48.0974 33.7945 44.9845 34.2218C44.4555 34.2828 43.9672 33.9166 43.8858 33.3876C43.8248 32.8586 44.191 32.3703 44.72 32.2889C48.5857 31.7803 51.6783 33.1231 53.9164 36.2767C54.2215 36.7243 54.1198 37.3347 53.6925 37.6399C53.2653 37.9451 52.6549 37.8433 52.3294 37.3957ZM52.9804 56.175C52.5939 55.7884 52.6142 55.178 53.0008 54.7915C56.2765 51.5972 59.7149 50.9257 63.2551 52.7976C63.7231 53.0417 63.9062 53.6521 63.662 54.12C63.4179 54.588 62.8278 54.7711 62.3395 54.527C59.6132 53.0824 57.0089 53.6114 54.364 56.1953C53.9774 56.5616 53.3467 56.5616 52.9804 56.175Z" fill="#2F95FF"/>
<path fill-rule="evenodd" clip-rule="evenodd" d="M41.0171 49.4405C43.8452 46.5514 44.9235 44.232 46.8971 40.7732C47.7313 39.3286 46.8767 38.82 46.5919 38.6572C45.5746 38.0672 43.4993 38.1486 42.6448 39.6135C42.2175 40.3256 41.5054 41.2818 40.7323 42.2788C40.244 42.9095 38.0873 45.6765 37.9449 46.5718C37.8838 47.1008 37.3955 47.528 36.8462 47.4466C32.1667 46.938 31.1087 48.8708 30.7018 50.3968C30.3762 51.6379 28.4841 51.1496 28.8096 49.9085C29.3996 47.6704 31.1697 45.1475 36.2562 45.4527C36.4189 45.0662 36.6631 44.6389 36.9479 44.1709C36.7038 43.4792 36.4393 42.7671 36.1748 42.055C35.2999 39.7762 34.5268 36.4395 34.303 32.9807C30.8442 36.114 28.6468 38.881 28.4637 39.939L24.3945 63.7233H35.1168C35.5848 61.1598 37.0497 53.8759 38.8401 51.6989L38.8605 51.6786V51.6582L38.8808 51.6379C39.7557 50.702 40.4474 50.0102 41.0171 49.4405Z" fill="#2F95FF"/>
<path fill-rule="evenodd" clip-rule="evenodd" d="M75.5848 64.7813C75.7069 63.4181 73.5502 58.9624 70.2948 54.4049C69.9693 57.2126 69.9286 59.9593 69.9083 62.6653C69.8879 64.7813 69.8676 66.9787 69.6845 69.176C72.0853 70.5392 72.6753 72.5941 72.6753 74.3235C72.6753 75.6053 70.7221 75.6053 70.7221 74.3235C70.7425 71.2309 68.0771 70.2747 65.5543 69.8881C65.0049 69.8067 64.6387 69.2981 64.7201 68.7488C64.8015 67.9553 63.8045 65.4934 63.1331 63.8657C62.6448 62.6857 62.1972 61.587 61.9734 60.7935C61.5258 59.1658 59.5319 58.5351 58.3925 58.8403C58.0873 58.9217 57.1311 59.1862 57.5583 60.7935C58.5756 64.6592 59.0029 67.1618 60.9968 70.702C61.424 71.4751 62.1972 72.6755 62.5024 73.4283C63.8249 76.3581 63.0314 85.5138 62.9296 86.7752V92.7365H73.6519L73.5502 86.999C73.5502 86.7956 73.5502 86.6124 73.5705 86.409L75.5848 64.7813Z" fill="#2F95FF"/>
<path fill-rule="evenodd" clip-rule="evenodd" d="M38.6162 19.7762C38.7383 19.6948 38.8604 19.6338 38.9825 19.5727C41.1798 18.3927 43.8044 17.823 46.5715 17.6806C46.8767 15.2391 46.8563 13.0417 46.4901 10.6002C46.2459 9.25739 45.7373 8.34182 44.9642 7.81283C44.0282 7.16176 42.5633 7.06003 40.6305 7.4873C38.8807 7.87387 37.721 8.60632 37.131 9.68465C36.3172 11.2106 36.8868 13.0214 36.9479 13.2045C38.0466 15.6867 38.4738 17.9451 38.6162 19.7762Z" fill="#2F95FF"/>
<path fill-rule="evenodd" clip-rule="evenodd" d="M53.489 18.1078C54.018 16.5005 54.3231 14.9135 54.4859 13.2248C54.5266 12.4517 54.3435 11.8617 53.9366 11.3734C53.3262 10.6613 52.1665 10.2136 50.783 10.1526C50.1116 10.1323 49.6029 10.2136 49.2163 10.3764C48.7891 10.5392 48.5449 10.9461 48.5856 11.3937C48.8501 13.6928 48.7484 15.8901 48.5449 17.6195C50.1726 17.6602 51.841 17.8434 53.489 18.1078Z" fill="#2F95FF"/>
<path fill-rule="evenodd" clip-rule="evenodd" d="M61.1594 15.9309C61.2408 15.0356 61.1187 14.3846 60.7525 13.9777C60.3659 13.5097 59.6131 13.2655 58.5348 13.2045C57.9041 13.1842 57.3547 13.2655 56.9071 13.469C56.5816 13.6114 56.3781 13.8963 56.3374 14.2218C56.1543 15.646 55.8084 17.2126 55.4219 18.4944C57.0902 18.8607 58.7179 19.3286 60.2235 19.878C60.6711 18.6165 61.017 17.2533 61.1594 15.9309Z" fill="#2F95FF"/>
<path fill-rule="evenodd" clip-rule="evenodd" d="M65.554 22.4008C66.022 21.648 66.4289 20.8546 66.7341 20.0204C66.9782 19.349 66.9986 18.7996 66.8155 18.413C66.5917 17.9654 66.0627 17.5992 65.2081 17.3144C64.4146 17.0499 63.2753 16.8668 62.7259 18.291C62.5225 19.1455 62.2783 19.9186 62.0342 20.5901C63.1329 21.058 64.1298 21.5463 65.0047 22.0753C65.1878 22.1567 65.3709 22.2788 65.554 22.4008Z" fill="#2F95FF"/>
<path fill-rule="evenodd" clip-rule="evenodd" d="M69.9287 27.0193C70.417 26.2869 70.9053 25.3916 71.2512 24.415C71.4953 23.7436 71.536 23.1943 71.3325 22.8077C71.1087 22.3601 70.5797 21.9939 69.7252 21.709C69.0945 21.5056 68.5858 21.4649 68.1789 21.6277C67.833 22.3805 67.4465 23.0519 67.1006 23.6216C68.1789 24.5575 69.1352 25.6968 69.9287 27.0193Z" fill="#2F95FF"/>
</svg>
