<svg width="101" height="100" viewBox="0 0 101 100" fill="none" xmlns="http://www.w3.org/2000/svg">
<g clip-path="url(#clip0_282_1372)">
<path d="M76.3097 13.5526L78.8228 16.0657C79.3974 16.6403 79.4725 17.5467 79.002 18.2091C77.2269 20.7074 76.327 21.9565 75.8371 22.6805C75.3673 23.3748 74.4505 23.6119 73.7058 23.2263C71.211 21.935 68.378 21.2049 65.3742 21.2049H37.4119C27.3863 21.2049 19.2588 29.3324 19.2588 39.358V49.8043C19.2588 52.0776 15.8385 52.1858 15.7427 49.9125C15.7323 49.6544 15.7365 51.4697 15.7365 22.8475C15.7365 18.2322 19.2047 14.4101 23.6722 13.8521C27.4319 5.55005 35.736 0.0750064 45.0478 0.0750064H63.8545C68.4479 0.0750064 72.734 1.39422 76.3522 3.67688C77.2889 4.26789 77.4153 5.60959 76.5826 6.33988C74.0805 8.53469 74.5208 11.7637 76.3097 13.5526ZM87.3279 30.3537C87.327 29.1452 86.0782 28.3388 84.9763 28.8355C84.0062 29.2728 83.3144 29.5851 82.8127 29.8101C81.9773 30.1851 81.6022 31.1639 81.9742 32.0006C82.9745 34.2497 83.5291 36.7399 83.5291 39.3603V51.4595C83.5291 53.5017 86.404 53.8993 86.9827 51.9425C87.4118 50.4877 87.3429 51.5557 87.3279 30.3537ZM74.8398 98.4558C74.7779 99.337 74.0031 100 73.1198 100H29.6094C28.6936 100 27.9494 99.2608 27.944 98.3444C27.9386 97.4185 28.724 96.673 29.65 96.669C34.309 96.6499 38.2119 93.3376 39.107 88.8753C39.3027 87.9 40.3026 87.3263 41.2463 87.641C47.8172 89.8327 54.9787 89.8296 61.54 87.6416C62.4886 87.3252 63.4854 87.9079 63.6827 88.8884C64.5883 93.3896 68.5432 96.669 73.1787 96.669C74.1409 96.6692 74.9082 97.4799 74.8398 98.4558ZM16.3387 9.55309L12.806 3.07629C12.2716 2.09661 10.9478 1.91508 10.1663 2.69616L7.31158 5.55089L4.70354 0.856918C4.257 0.0529397 3.24318 -0.236842 2.43899 0.209905C1.63481 0.656652 1.34523 1.67068 1.79198 2.47445L5.47213 9.09843C6.00922 10.0656 7.32407 10.2486 8.10556 9.46732L10.9478 6.62508L13.4149 11.1481C13.7172 11.7023 14.2886 12.0164 14.8784 12.0164C16.1291 12.0164 16.9472 10.6685 16.3387 9.55309ZM9.33089 39.6873C10.2981 39.1502 10.4809 37.8347 9.69978 37.0541L8.31874 35.6728L10.6984 34.375C11.5059 33.9345 11.8034 32.9228 11.3631 32.1155C10.9224 31.3082 9.91087 31.0103 9.10356 31.451L4.76995 33.8146C3.7936 34.3471 3.60499 35.6697 4.38961 36.4543L5.78314 37.8481L3.28107 39.2381C1.78365 40.0699 2.37925 42.3595 4.09129 42.3595C4.6644 42.3592 4.51847 42.3607 9.33089 39.6873ZM80.1984 39.3603V57.3155C80.1984 72.6789 67.5552 85.9523 51.393 85.9523C35.659 85.9523 22.8312 73.2702 22.5918 57.5924C22.5884 57.537 22.5897 39.4156 22.5897 39.3603C22.5897 31.1872 29.2388 24.536 37.4119 24.536H65.3742C73.5472 24.536 80.1984 31.1852 80.1984 39.3603ZM39.8307 53.0354L46.4923 48.0391C47.3808 47.3726 47.3789 46.0396 46.4923 45.3743L39.8307 40.378C39.095 39.8264 38.0508 39.9752 37.4991 40.7113C36.9472 41.447 37.0963 42.491 37.8322 43.0429L42.7172 46.7068L37.8322 50.3707C36.5533 51.33 37.2409 53.3691 38.8327 53.3685C39.1805 53.3685 39.5313 53.26 39.8307 53.0354ZM62.7505 63.0847L59.5238 60.5866C58.9234 60.1219 58.0851 60.1219 57.4847 60.5866L55.2774 62.2955L53.0701 60.5866C52.4697 60.1219 51.6314 60.1219 51.031 60.5866L48.8237 62.2955L46.6164 60.5866C46.016 60.1219 45.1777 60.1219 44.5773 60.5866L41.3506 63.0847C40.6232 63.6478 40.4902 64.6939 41.0533 65.4213C41.6166 66.1484 42.6625 66.2821 43.3897 65.7188L45.597 64.0098L47.8043 65.7188C48.4046 66.1834 49.243 66.1834 49.8433 65.7188L52.0506 64.0098L54.2579 65.7188C54.8583 66.1834 55.6966 66.1834 56.297 65.7188L58.5043 64.0098C60.8517 65.8272 61.001 66.0672 61.7298 66.0672C63.3086 66.0672 64.0062 64.0571 62.7505 63.0847ZM61.5922 46.7068L66.4773 43.0429C67.2132 42.491 67.3623 41.447 66.8104 40.7113C66.2585 39.9756 65.2147 39.8262 64.4788 40.378L57.8171 45.3743C56.9286 46.0409 56.9305 47.3738 57.8171 48.0391L64.4788 53.0354C65.2164 53.5885 66.2602 53.4359 66.8104 52.7021C67.3623 51.9664 67.2132 50.9224 66.4773 50.3705L61.5922 46.7068ZM93.4281 10.9379L99.105 2.92932C100.086 1.53849 98.5946 -0.243296 97.0628 0.445769L79.1596 8.50013C78.0975 8.9781 77.8419 10.3737 78.6642 11.196L84.16 16.6919L78.4831 24.7004C77.509 26.0821 78.9804 27.8758 80.5253 27.184L98.4285 19.1296C99.4908 18.6519 99.7462 17.256 98.9239 16.4337L93.4281 10.9379Z" fill="#2F95FF"/>
</g>
<defs>
<clipPath id="clip0_282_1372">
<rect width="100" height="100" fill="white" transform="translate(0.5)"/>
</clipPath>
</defs>
</svg>
