<svg width="41" height="41" viewBox="0 0 41 41" fill="none" xmlns="http://www.w3.org/2000/svg">
<g clip-path="url(#clip0_6_586)">
<path d="M20.5438 24.2129C22.8091 24.2129 24.6454 22.3766 24.6454 20.1113C24.6454 17.8461 22.8091 16.0098 20.5438 16.0098C18.2786 16.0098 16.4423 17.8461 16.4423 20.1113C16.4423 22.3766 18.2786 24.2129 20.5438 24.2129Z" fill="#FAFAFA"/>
<path d="M20.5438 0.580078C9.75703 0.580078 1.01257 9.32453 1.01257 20.1113C1.01257 30.8981 9.75703 39.6426 20.5438 39.6426C31.3306 39.6426 40.0751 30.8981 40.0751 20.1113C40.0751 9.32453 31.3306 0.580078 20.5438 0.580078ZM32.6109 25.0754C32.5171 26.9323 31.9953 28.7634 30.6421 30.1022C29.2758 31.4537 27.436 31.9573 25.5612 32.0502H15.5265C13.6515 31.9573 11.8119 31.4541 10.4456 30.1022C9.09234 28.7634 8.57062 26.9323 8.47687 25.0754V15.1473C8.57062 13.2904 9.09242 11.4593 10.4456 10.1204C11.8119 8.76883 13.6517 8.26523 15.5265 8.1725H25.5612C27.4362 8.26523 29.2757 8.76859 30.642 10.1204C31.9953 11.4593 32.517 13.2904 32.6108 15.1473L32.6109 25.0754Z" fill="#FAFAFA"/>
<path d="M25.4344 10.435C22.9902 10.368 18.098 10.368 15.6538 10.435C14.3819 10.47 12.9399 10.7866 12.0337 11.7546C11.0919 12.7607 10.7361 13.9764 10.7 15.3363C10.6366 17.7232 10.7 24.8872 10.7 24.8872C10.7413 26.247 11.0919 27.4628 12.0337 28.4689C12.9399 29.4372 14.3819 29.7536 15.6538 29.7885C18.098 29.8555 22.9902 29.8555 25.4344 29.7885C26.7064 29.7536 28.1484 29.4369 29.0546 28.4689C29.9963 27.4628 30.3522 26.2471 30.3883 24.8872V15.3363C30.3522 13.9764 29.9963 12.7607 29.0546 11.7546C28.148 10.7863 26.7061 10.47 25.4344 10.435ZM20.5438 26.4692C19.2864 26.4692 18.0573 26.0963 17.0118 25.3978C15.9664 24.6992 15.1515 23.7063 14.6703 22.5446C14.1892 21.383 14.0633 20.1047 14.3086 18.8715C14.5539 17.6383 15.1593 16.5055 16.0484 15.6164C16.9375 14.7273 18.0703 14.1218 19.3036 13.8765C20.5368 13.6312 21.815 13.7571 22.9767 14.2383C24.1384 14.7194 25.1313 15.5343 25.8298 16.5798C26.5284 17.6252 26.9012 18.8544 26.9012 20.1118C26.9012 21.7979 26.2314 23.4149 25.0392 24.6071C23.8469 25.7994 22.2299 26.4692 20.5438 26.4692ZM26.9283 15.0666C26.6768 15.0665 26.431 14.9919 26.222 14.8522C26.0129 14.7124 25.85 14.5138 25.7538 14.2815C25.6576 14.0491 25.6325 13.7935 25.6816 13.5469C25.7307 13.3002 25.8518 13.0737 26.0296 12.8959C26.2075 12.7181 26.434 12.5971 26.6806 12.548C26.9273 12.499 27.1829 12.5242 27.4152 12.6204C27.6476 12.7167 27.8461 12.8797 27.9858 13.0888C28.1255 13.2978 28.2001 13.5437 28.2001 13.7951C28.2001 13.9621 28.1672 14.1275 28.1033 14.2818C28.0393 14.436 27.9457 14.5762 27.8276 14.6943C27.7095 14.8124 27.5692 14.906 27.4149 14.9699C27.2606 15.0338 27.0953 15.0666 26.9283 15.0666Z" fill="#FAFAFA"/>
</g>
<defs>
<clipPath id="clip0_6_586">
<rect width="40" height="40" fill="white" transform="translate(0.543823 0.111328)"/>
</clipPath>
</defs>
</svg>
