<svg width="100" height="100" viewBox="0 0 100 100" fill="none" xmlns="http://www.w3.org/2000/svg">
<path fill-rule="evenodd" clip-rule="evenodd" d="M10.6914 53.6432C8.46138 58.4774 7.95358 60.8 8.68958 66.2216C9.81438 74.5052 11.905 82.1564 12.8564 90.8386C12.8664 90.9296 12.9424 90.9978 13.034 90.9978H20.729C20.8164 90.9978 20.8896 90.9364 20.905 90.8506L24.2542 72.1026C24.2696 72.0166 24.3428 71.9554 24.4302 71.9554C24.5176 71.9554 24.5908 72.0168 24.6062 72.1026L27.9554 90.8506C27.9708 90.9366 28.044 90.9978 28.1314 90.9978H35.8264C35.918 90.9978 35.994 90.9296 36.004 90.8386C36.9556 82.1564 39.0462 74.5052 40.1708 66.2216C40.9068 60.8 40.3992 58.4772 38.1692 53.6432C38.1322 53.563 38.0444 53.5222 37.9592 53.5458C33.4302 54.797 29.1402 55.3224 24.43 55.3224C19.7204 55.3224 15.4294 54.797 10.901 53.5458C10.8164 53.5222 10.7284 53.563 10.6914 53.6432ZM78.1402 9.0022H63.764C63.6672 9.0022 63.5878 9.0796 63.5854 9.1764C63.4908 12.8274 66.8274 15.8158 70.9522 15.8158C75.0748 15.8158 78.412 12.8312 78.319 9.1766C78.3162 9.0796 78.237 9.0022 78.1402 9.0022ZM56.4316 9.1856C56.4302 9.1356 56.4474 9.092 56.4822 9.0562C56.5172 9.0204 56.5602 9.0022 56.6102 9.0022H60.7244C60.7742 9.0022 60.817 9.0202 60.8518 9.0556C60.8868 9.091 60.9038 9.1344 60.9028 9.1842C60.8048 14.6306 65.7148 18.497 70.9518 18.497C76.1888 18.497 81.0986 14.6306 81.0008 9.1842C80.9998 9.1344 81.0168 9.0912 81.0518 9.0556C81.0866 9.0202 81.1294 9.0022 81.1792 9.0022H85.2934C85.3434 9.0022 85.3864 9.0204 85.4214 9.0562C85.4564 9.092 85.4734 9.1356 85.472 9.1856C85.3302 14.648 86.7352 19.6252 90.0736 23.996C90.1166 24.0522 90.1228 24.1236 90.0904 24.1864C87.2106 29.7658 85.411 36.9826 83.914 44.641C83.9012 44.7064 83.8574 44.7562 83.794 44.7768C76.1984 47.2478 65.7048 47.2478 58.1092 44.7768C58.046 44.7562 58.002 44.7064 57.9892 44.641C56.4924 36.9826 54.6926 29.7658 51.8128 24.1864C51.7804 24.1236 51.7866 24.0522 51.8296 23.996C55.1684 19.6252 56.5734 14.648 56.4316 9.1856ZM58.1196 49.205L57.0752 53.9934C57.0554 54.0836 57.1072 54.1734 57.195 54.2018C65.371 56.8252 76.5328 56.8252 84.7088 54.2018C84.7968 54.1736 84.8484 54.0838 84.8286 53.9934L83.7842 49.205C83.773 49.1542 83.7442 49.1146 83.6992 49.0884C83.6542 49.0624 83.6054 49.057 83.5558 49.0726C76.0594 51.442 65.8442 51.442 58.3478 49.0726C58.2982 49.057 58.2494 49.0622 58.2044 49.0884C58.1596 49.1146 58.1306 49.1542 58.1196 49.205ZM56.425 56.9748L49.0518 90.781C49.0398 90.8356 49.0522 90.8876 49.0872 90.9312C49.1224 90.9748 49.1704 90.9978 49.2264 90.9978H63.7248C63.8006 90.9978 63.8652 90.9532 63.892 90.8822L70.785 72.6448C70.8118 72.574 70.8764 72.5292 70.9522 72.5292C71.028 72.5292 71.0926 72.5738 71.1194 72.6448L78.0124 90.8822C78.0392 90.953 78.1038 90.9978 78.1796 90.9978H92.678C92.734 90.9978 92.782 90.9748 92.8172 90.9312C92.8522 90.8876 92.8646 90.8356 92.8526 90.781L85.4794 56.9748C85.4684 56.924 85.4396 56.8846 85.3946 56.8584C85.3496 56.8322 85.3012 56.8268 85.2516 56.8422C76.6596 59.5232 65.2452 59.5232 56.6532 56.8422C56.6036 56.8268 56.555 56.8322 56.5102 56.8584C56.4648 56.8846 56.436 56.924 56.425 56.9748ZM18.4186 9.4332L24.2688 21.8324C24.299 21.8964 24.3596 21.9348 24.4304 21.9348C24.5012 21.9348 24.5618 21.8964 24.592 21.8324L30.4422 9.4332C30.4672 9.3802 30.4656 9.3236 30.4378 9.272C30.41 9.2204 30.3636 9.188 30.3054 9.18L29.1254 9.014C29.071 9.0064 29.0212 9.0218 28.9806 9.0586C26.0128 11.7464 22.9808 11.8054 19.8802 9.0572C19.8396 9.0212 19.7904 9.0064 19.7368 9.014L18.5554 9.1802C18.4974 9.1884 18.451 9.2206 18.423 9.2722C18.3952 9.3236 18.3936 9.38 18.4186 9.4332ZM15.4938 9.6104C15.5702 9.5996 15.6416 9.6364 15.6772 9.7048L24.3048 26.2818C24.3364 26.3426 24.3952 26.378 24.4636 26.378C24.532 26.378 24.5906 26.3422 24.6222 26.2814L33.192 9.7064C33.2276 9.6378 33.2992 9.6008 33.3756 9.6114L35.695 9.9376C35.7748 9.9488 35.8354 10.0092 35.847 10.089C36.5456 14.8998 38.4514 18.9276 41.667 22.1056C41.7256 22.1636 41.7374 22.2508 41.696 22.3222C38.2514 28.2686 36.3356 34.8264 35.2542 41.7182C35.2428 41.7906 35.1922 41.8462 35.121 41.864C28.5236 43.5138 20.3376 43.5138 13.7402 41.864C13.669 41.8462 13.6184 41.7906 13.607 41.7182C12.5258 34.8264 10.6098 28.2686 7.16518 22.3222C7.12378 22.2508 7.13558 22.1636 7.19418 22.1056C10.4098 18.9276 12.3154 14.8998 13.0142 10.089C13.0258 10.0092 13.0862 9.949 13.1662 9.9376L15.4938 9.6104ZM14.1084 46.3224C13.3268 48.0588 12.6264 49.5454 12.0064 50.853C11.983 50.9024 11.9826 50.9544 12.0056 51.0042C12.0284 51.0538 12.068 51.0876 12.1208 51.102C19.6344 53.1534 29.2264 53.1534 36.74 51.102C36.7928 51.0876 36.8324 51.054 36.8552 51.0042C36.878 50.9544 36.8778 50.9024 36.8542 50.853C36.2342 49.5454 35.5338 48.0588 34.7522 46.3224C34.7168 46.2438 34.6328 46.2022 34.5486 46.2218C28.2492 47.6874 20.611 47.6874 14.3116 46.2218C14.228 46.202 14.1438 46.2436 14.1084 46.3224Z" fill="#2F95FF"/>
</svg>
