<svg width="100" height="100" viewBox="0 0 100 100" fill="none" xmlns="http://www.w3.org/2000/svg">
<path d="M90.4328 45.4582C85.2886 45.4716 79.6739 43.6151 76.4704 39.8696C73.2496 43.6243 67.6465 45.4943 62.4902 45.4582C61.9225 45.4582 61.3549 45.4404 60.7871 45.3873V61.1415C60.805 65.7372 62.3953 70.1883 65.2937 73.7548C68.1921 77.3213 72.2239 79.7883 76.7188 80.7456C81.1 79.6838 84.9992 77.1847 87.7938 73.6474C90.5883 70.11 92.1171 65.7383 92.136 61.2302V45.3873C91.5505 45.4404 90.9828 45.4582 90.4328 45.4582ZM87.5055 55.5352L74.4656 66.5171C74.1308 66.7939 73.7067 66.9393 73.2725 66.9263C72.8383 66.9132 72.4237 66.7426 72.1061 66.4462L65.3467 60.1126C65.0032 59.7903 64.8018 59.3447 64.7869 58.8739C64.7719 58.4031 64.9445 57.9457 65.2669 57.6022C65.5892 57.2587 66.0347 57.0573 66.5055 57.0423C66.9763 57.0273 67.4338 57.2 67.7773 57.5223L73.3835 62.7915L85.2169 52.8209C85.5782 52.5291 86.0395 52.3904 86.5018 52.4346C86.9642 52.4788 87.3908 52.7025 87.6902 53.0576C87.9896 53.4126 88.1379 53.8709 88.1034 54.3341C88.0689 54.7973 87.8542 55.2285 87.5055 55.5352Z" fill="#2F95FF"/>
<path d="M57.2393 61.1416V43.4003C57.2449 43.0914 57.3293 42.7891 57.4845 42.5221C57.6398 42.255 57.8607 42.0321 58.1264 41.8745C58.5 41.6531 58.9422 41.5773 59.3683 41.6616C65.0953 42.5975 71.7899 40.9678 74.679 36.3038L74.679 9.49658C74.6756 8.63657 74.3324 7.81277 73.7243 7.20465C73.1162 6.59653 72.2924 6.25339 71.4324 6.25H11.1119C10.2519 6.2534 9.42809 6.59654 8.81996 7.20465C8.21183 7.81276 7.86866 8.63657 7.86523 9.49658V90.5033C7.86866 91.3633 8.21182 92.1871 8.81995 92.7953C9.42808 93.4034 10.2519 93.7466 11.1119 93.75H71.4324C72.2924 93.7466 73.1162 93.4034 73.7243 92.7953C74.3324 92.1871 74.6756 91.3633 74.679 90.5033V83.9036C69.6835 82.5377 65.2733 79.5723 62.1236 75.4613C58.9739 71.3503 57.2582 66.3204 57.2393 61.1416ZM27.221 28.4798C27.2223 28.0097 27.4097 27.5592 27.7421 27.2268C28.0745 26.8944 28.525 26.707 28.9951 26.7057H35.4885V20.4607C35.4898 19.9906 35.6772 19.5401 36.0096 19.2077C36.342 18.8753 36.7925 18.6879 37.2626 18.6866H45.2817C45.5149 18.6858 45.746 18.7311 45.9616 18.82C46.1772 18.9088 46.3731 19.0395 46.538 19.2044C46.7029 19.3693 46.8335 19.5652 46.9224 19.7808C47.0113 19.9964 47.0566 20.2275 47.0558 20.4607V26.7057H53.5668C54.0369 26.707 54.4874 26.8944 54.8198 27.2268C55.1522 27.5592 55.3396 28.0097 55.341 28.4798V36.6763C55.3396 37.1464 55.1522 37.5968 54.8198 37.9292C54.4874 38.2617 54.0369 38.449 53.5668 38.4504H47.0558V44.6953C47.0566 44.9285 47.0113 45.1596 46.9224 45.3752C46.8335 45.5908 46.7029 45.7867 46.538 45.9516C46.3731 46.1165 46.1772 46.2472 45.9616 46.336C45.746 46.4249 45.5149 46.4702 45.2817 46.4694H37.2626C36.7925 46.4681 36.342 46.2807 36.0096 45.9483C35.6772 45.6159 35.4898 45.1654 35.4885 44.6953V38.4504H28.9951C28.525 38.449 28.0745 38.2617 27.7421 37.9292C27.4097 37.5968 27.2223 37.1464 27.221 36.6763V28.4798ZM16.1859 52.679H54.1346C54.368 52.6783 54.5993 52.7236 54.8151 52.8125C55.031 52.9013 55.2272 53.0319 55.3925 53.1967C55.5578 53.3615 55.6889 53.5573 55.7784 53.7729C55.8679 53.9885 55.914 54.2197 55.914 54.4531C55.914 54.6865 55.8679 54.9176 55.7784 55.1332C55.6889 55.3488 55.5578 55.5446 55.3925 55.7094C55.2272 55.8743 55.031 56.0048 54.8151 56.0937C54.5993 56.1825 54.368 56.2279 54.1346 56.2272H16.1859C15.7211 56.2186 15.2782 56.0279 14.9525 55.6961C14.6268 55.3643 14.4444 54.918 14.4444 54.4531C14.4444 53.9882 14.6268 53.5418 14.9525 53.21C15.2782 52.8783 15.7211 52.6876 16.1859 52.679ZM16.1859 65.2221H53.7442C54.2147 65.2221 54.666 65.409 54.9987 65.7417C55.3314 66.0744 55.5183 66.5256 55.5183 66.9961C55.5183 67.4667 55.3314 67.9179 54.9987 68.2506C54.666 68.5833 54.2147 68.7702 53.7442 68.7702H16.1859C15.7212 68.7615 15.2784 68.5708 14.9528 68.239C14.6272 67.9072 14.4448 67.461 14.4448 66.9961C14.4448 66.5313 14.6272 66.085 14.9528 65.7533C15.2784 65.4215 15.7212 65.2308 16.1859 65.2221ZM57.5586 81.3133H16.1859C15.7211 81.3046 15.2784 81.1138 14.9528 80.7821C14.6272 80.4503 14.4448 80.004 14.4448 79.5391C14.4448 79.0743 14.6273 78.628 14.9529 78.2963C15.2785 77.9645 15.7213 77.7738 16.186 77.7651H57.5586C58.0243 77.7724 58.4685 77.9625 58.7952 78.2944C59.122 78.6264 59.3051 79.0734 59.3051 79.5392C59.3051 80.005 59.122 80.452 58.7952 80.784C58.4685 81.1159 58.0243 81.306 57.5586 81.3133Z" fill="#2F95FF"/>
<path d="M74.8735 35.9667C74.7868 36.0786 74.7246 36.2075 74.691 36.3451C74.6574 36.4826 74.653 36.6256 74.6783 36.765C74.6798 36.4872 74.7467 36.2137 74.8735 35.9667Z" fill="#2F95FF"/>
</svg>
