<svg width="100" height="100" viewBox="0 0 100 100" fill="none" xmlns="http://www.w3.org/2000/svg">
<path d="M6.52168 46.74C2.92539 46.74 0 49.6654 0 53.2617C0 56.858 2.94707 59.7833 6.54336 59.7833V82.6091C6.54336 84.4105 7.98125 85.8699 9.78242 85.8699C11.5838 85.8699 13.0432 84.4103 13.0432 82.6091V59.7833H13.2273C13.6459 57.2974 14.0609 56.8408 19.1127 46.74H6.52168Z" fill="#FAFAFA"/>
<path d="M93.4764 46.74H45.6736C45.6736 52.6171 45.5148 52.2679 41.7578 59.7833H86.9775V82.6091C86.9775 84.4105 88.4154 85.8699 90.2166 85.8699C92.0178 85.8699 93.4773 84.4103 93.4773 82.6091V59.7832C97.074 59.7828 99.999 56.8576 99.999 53.2617C99.999 49.6654 97.0736 46.74 93.4764 46.74Z" fill="#FAFAFA"/>
<path d="M9.78242 20.6533C4.38828 20.6533 0 25.0416 0 30.4357C0 35.8301 4.38828 40.2182 9.78242 40.2182C15.1768 40.2182 19.5648 35.8299 19.5648 30.4357C19.565 25.0416 15.1768 20.6533 9.78242 20.6533Z" fill="#FAFAFA"/>
<path d="M93.4776 27.175H88.2188L91.1362 18.423C91.7061 16.7152 90.7826 14.8682 89.0739 14.2992C87.3701 13.727 85.5199 14.6527 84.95 16.3615L81.3457 27.1746H77.3494L73.7451 16.3615C73.1774 14.6525 71.3303 13.727 69.6213 14.2992C67.9123 14.8682 66.9889 16.715 67.559 18.423L70.4764 27.175H58.6957V17.3926C58.6957 15.5912 57.2362 14.1318 55.435 14.1318C53.6338 14.1318 52.1959 15.5914 52.1959 17.3926V27.175H44.7414L41.1371 16.3619C40.5694 14.6529 38.7223 13.7273 37.0133 14.2996C35.3043 14.8686 34.3809 16.7154 34.951 18.4234L37.8684 27.1754H32.6094C29.0297 27.1754 26.1192 30.0752 26.0928 33.6488L26.0889 33.6475C26.0889 34.3836 26.0889 43.6117 26.0889 47.376L20.2541 59.0393C18.6461 62.2566 19.9547 66.1828 23.1711 67.7912C26.3237 69.3676 30.2731 68.1736 31.9219 64.8742L38.4436 51.8309C38.8936 50.9316 39.1315 49.9225 39.1315 48.9139V40.2184H93.4776C97.0748 40.2184 100 37.293 100 33.6967C100 30.1004 97.0748 27.175 93.4776 27.175Z" fill="#FAFAFA"/>
</svg>
