<svg width="100" height="101" viewBox="0 0 100 101" fill="none" xmlns="http://www.w3.org/2000/svg">
<g clip-path="url(#clip0_26_205)">
<path d="M56.0547 0.280029C51.2082 0.280029 47.2656 4.41792 47.2656 9.2644C47.2656 14.1109 51.2082 18.2488 56.0547 18.2488C60.9012 18.2488 64.8438 14.1109 64.8438 9.2644C64.8438 4.41792 60.9012 0.280029 56.0547 0.280029Z" fill="#FAFAFA"/>
<path d="M91.2109 59.2644H64.8438V85.6316C64.8438 90.4857 68.7787 94.4207 73.6328 94.4207H82.4219V97.3503C82.4219 98.9697 83.7322 100.28 85.3516 100.28C86.9709 100.28 88.2812 98.9697 88.2812 97.3503V94.4207H91.2109C96.065 94.4207 100 90.4857 100 85.6316V68.0535C100 63.1994 96.065 59.2644 91.2109 59.2644Z" fill="#FAFAFA"/>
<path d="M5.85938 76.8425C2.62324 76.8425 0 79.4658 0 82.7019C0 85.9376 2.62324 88.5613 5.85938 88.5613H11.7188V97.3503C11.7188 98.9697 13.0291 100.28 14.6484 100.28C16.2678 100.28 17.5781 98.9697 17.5781 97.3503V88.5613H58.9844V76.8425H5.85938Z" fill="#FAFAFA"/>
<path d="M14.6484 70.9832C19.5025 70.9832 23.4375 67.0482 23.4375 62.1941C23.4375 57.34 19.5025 53.405 14.6484 53.405C9.79437 53.405 5.85938 57.34 5.85938 62.1941C5.85938 67.0482 9.79437 70.9832 14.6484 70.9832Z" fill="#FAFAFA"/>
<path d="M29.2973 59.2644C29.1943 59.2644 29.1084 59.3177 29.0068 59.323C29.1924 60.2525 29.2973 61.2109 29.2973 62.1941C29.2973 65.2207 28.3742 68.0359 26.7949 70.3734C27.6576 70.7867 28.1297 70.9345 29.8832 70.9832L58.9848 70.9709V59.2644H29.2973Z" fill="#FAFAFA"/>
<path d="M71.9165 19.9654C70.7893 18.8383 69.2901 18.2803 67.1958 18.2773C65.442 18.449 63.8741 19.3902 62.8985 20.858L52.0438 37.14L41.7211 42.3014C38.8176 43.7502 37.6434 47.2785 39.0975 50.1691C40.5108 52.9844 44.1243 54.209 46.9567 52.7869L58.6811 46.9246C59.5883 46.4672 60.3637 45.7834 60.9301 44.9365L68.2428 33.9645C71.7706 39.4404 73.6331 45.8176 73.6331 52.4008V53.4051H85.3518V52.4008C85.3518 40.1471 80.5795 28.6285 71.9165 19.9654Z" fill="#FAFAFA"/>
</g>
<defs>
<clipPath id="clip0_26_205">
<rect width="100" height="100" fill="white" transform="translate(0 0.280029)"/>
</clipPath>
</defs>
</svg>
