<svg width="100" height="100" viewBox="0 0 100 100" fill="none" xmlns="http://www.w3.org/2000/svg">
<g clip-path="url(#clip0_26_253)">
<path d="M36.957 16.3046C41.4594 16.3046 45.1093 12.6547 45.1093 8.15232C45.1093 3.64992 41.4594 0 36.957 0C32.4546 0 28.8047 3.64992 28.8047 8.15232C28.8047 12.6547 32.4546 16.3046 36.957 16.3046Z" fill="#FAFAFA"/>
<path d="M43.3486 44.3519L31.7097 38.7108L29.9591 25.841L34.2654 36.3061L37.1889 37.7231L38.9704 26.0082C39.4163 23.0769 37.4012 20.3389 34.4697 19.8932L27.1774 18.7842C24.246 18.3383 21.5081 20.3534 21.0624 23.2849L17.2119 48.6067C19.4252 48.6067 25.2601 48.6067 27.4647 48.6067L25.2142 47.5159C22.2157 46.0627 21.1556 42.9685 21.3063 41.3927L22.6366 27.4936L24.5699 41.705C24.7392 42.9484 25.5195 44.0207 26.644 44.5658L40.087 51.0814C41.9701 51.9945 44.1969 51.1747 45.0826 49.3476C45.9821 47.4915 45.2094 45.2539 43.3486 44.3519Z" fill="#FAFAFA"/>
<path d="M97.8611 90.7701C97.0753 90.7701 96.0515 90.7701 94.8216 90.7701V63.3537C94.8216 57.03 89.6769 51.8851 83.353 51.8851C82.3865 51.8851 48.3225 51.8851 47.3563 51.8851C45.35 54.5838 41.7128 55.5126 38.6579 54.0315L34.2294 51.8851H16.647C10.3235 51.8851 5.17882 57.0298 5.17882 63.3537V90.7701C3.9493 90.7701 2.92525 90.7701 2.13949 90.7701C1.13107 90.7701 0.313477 91.5875 0.313477 92.596V98.1738C0.313477 99.1822 1.13088 99.9998 2.1391 99.9998C14.495 99.9998 85.5018 99.9998 97.8609 99.9998C98.8693 99.9998 99.6869 99.1824 99.6869 98.174V92.5962C99.6869 91.5877 98.8695 90.7701 97.8611 90.7701ZM88.2646 90.7701C77.1958 90.7701 59.7151 90.7701 43.2429 90.7701C43.4425 90.2705 43.565 89.7309 43.5839 89.1621L44.342 66.3565C44.3689 65.5499 44.1906 64.7495 43.8238 64.0307L42.6452 61.7203H31.9352L34.7658 67.2696L34.0488 88.8453C34.0263 89.5252 34.148 90.1764 34.3851 90.7701C30.7575 90.7701 27.2533 90.7701 23.9614 90.7701C23.9868 90.7065 24.0142 90.6446 24.0368 90.5791L31.2569 69.9449C31.5827 69.0136 31.6118 68.0042 31.3401 67.0558L29.8118 61.7203H19.8875L21.751 68.2253L15.0318 87.4281C14.6359 88.5592 14.6925 89.7383 15.1046 90.7701C13.9267 90.7701 12.8012 90.7701 11.7352 90.7701V63.3537C11.7352 60.6453 13.9386 58.4421 16.6466 58.4421C17.8014 58.4421 82.1795 58.4421 83.3526 58.4421C86.061 58.4421 88.2642 60.6455 88.2642 63.3537V90.7701H88.2646Z" fill="#FAFAFA"/>
</g>
<defs>
<clipPath id="clip0_26_253">
<rect width="100" height="100" fill="white"/>
</clipPath>
</defs>
</svg>
