<svg width="150" height="151" viewBox="0 0 150 151" fill="none" xmlns="http://www.w3.org/2000/svg">
<g clip-path="url(#clip0_24_1491)">
<path d="M66.4259 77.6551L80.394 63.687C77.2528 61.6819 73.528 60.5144 69.5331 60.5144C58.3684 60.5144 49.2852 69.5976 49.2852 80.7624C49.2852 91.9271 58.3684 101.01 69.5331 101.01C80.6978 101.01 89.7811 91.9271 89.7811 80.7624C89.7811 76.7677 88.6136 73.0426 86.6085 69.9014L72.6403 83.8696L66.4259 77.6551Z" fill="#2F95FF"/>
<path d="M139.067 80.7625C139.067 68.8205 136.016 57.1422 130.224 46.8071L112.91 49.1796C119.385 58.048 123.213 68.9658 123.213 80.7625C123.213 110.362 99.1327 134.443 69.5332 134.443C39.9337 134.443 15.8534 110.362 15.8534 80.7625C15.8534 51.1633 39.9343 27.0827 69.5335 27.0827C81.3302 27.0827 92.248 30.9106 101.116 37.3855L103.489 20.0717C93.1538 14.2797 81.4755 11.229 69.5335 11.229C50.9605 11.229 33.4989 18.4618 20.366 31.595C7.23281 44.7279 0 62.1895 0 80.7625C0 99.3356 7.23281 116.797 20.366 129.93C33.4989 143.063 50.9602 150.296 69.5335 150.296C88.1068 150.296 105.568 143.063 118.701 129.93C131.834 116.797 139.067 99.3358 139.067 80.7625Z" fill="#2F95FF"/>
<path d="M69.5336 35.8716C44.7807 35.8716 24.6426 56.0094 24.6426 80.7626C24.6426 105.516 44.7804 125.654 69.5336 125.654C94.2868 125.654 114.425 105.516 114.425 80.7626C114.425 69.9652 110.592 60.0468 104.217 52.2939L92.928 63.5829C96.4729 68.397 98.5709 74.339 98.5709 80.7626C98.5709 96.7736 85.5449 109.8 69.5339 109.8C53.5229 109.8 40.4969 96.7736 40.4969 80.7626C40.4969 64.7516 53.5229 51.7256 69.5339 51.7256C75.9575 51.7256 81.8992 53.8235 86.7136 57.3685L98.0025 46.0795C90.2494 39.7039 80.331 35.8716 69.5336 35.8716Z" fill="#2F95FF"/>
<path d="M131.926 0.295898L112.394 19.8284L109.523 40.7728L130.468 37.9025L150 18.37L136.816 13.4801L131.926 0.295898Z" fill="#2F95FF"/>
</g>
<defs>
<clipPath id="clip0_24_1491">
<rect width="150" height="150" fill="white" transform="translate(0 0.295898)"/>
</clipPath>
</defs>
</svg>
